<?xml version="1.0" standalone="no"?>
<!DOCTYPE svg PUBLIC "-//W3C//DTD SVG 1.1//EN" "http://www.w3.org/Graphics/SVG/1.1/DTD/svg11.dtd" >
<svg xmlns="http://www.w3.org/2000/svg" xmlns:xlink="http://www.w3.org/1999/xlink" version="1.1">
<metadata>
Created by FontForge 20190801 at Sat Feb 15 13:50:15 2020
 By www-data
(c) Oleh Lishchuk, 2020
</metadata>
<defs>
<font id="RuberoidLight" horiz-adv-x="669" >
  <font-face 
    font-family="RuberoidLight"
    font-weight="400"
    font-stretch="normal"
    units-per-em="1000"
    panose-1="0 0 0 0 0 0 0 0 0 0"
    ascent="746"
    descent="-254"
    x-height="520"
    cap-height="700"
    bbox="-191 -295 1279 1021"
    underline-thickness="50"
    underline-position="-175"
    unicode-range="U+000D-FB02"
  />
<missing-glyph horiz-adv-x="904" 
d="M106 700h198v-51h-143v-598h143v-51h-198v700zM600 51h143v598h-143v51h198v-700h-198v51zM419 351l-140 140l33 33l141 -140l140 140l33 -33l-139 -140l139 -141l-33 -33l-140 140l-141 -140l-33 33z" />
    <glyph glyph-name="fi" unicode="fi" horiz-adv-x="649" 
d="M33 458v62h99v23q0 111 47.5 160.5t151.5 49.5h45v-62h-43q-71 0 -103 -35t-32 -113v-23h174v-62h-174v-458h-66v458h-99zM494 0v520h66v-520h-66zM527 627q-27 0 -38.5 11.5t-11.5 38.5t11.5 39t38.5 12q51 0 51 -51q0 -27 -12 -38.5t-39 -11.5z" />
    <glyph glyph-name="fl" unicode="fl" horiz-adv-x="649" 
d="M132 458h-99v62h99v23q0 111 47.5 160.5t151.5 49.5h45v-62h-43q-71 0 -103 -35t-32 -113v-23h174v-62h-174v-458h-66v458zM494 750h66v-750h-66v750z" />
    <glyph glyph-name="afii10104_afii10104" unicode="&#x457;&#x457;" horiz-adv-x="469" 
d="M150 0h-65v520h65v-520zM384 0h-65v520h65v-520zM-6 653q0 25 11 36t36 11q48 0 48 -47q0 -25 -11.5 -36t-36.5 -11t-36 11t-11 36zM188 653q0 25 11 36t36 11t36 -11t11 -36t-11 -36t-36 -11t-36 11t-11 36zM380 653q0 25 11 36t36 11q48 0 48 -47q0 -25 -11.5 -36
t-36.5 -11t-36 11t-11 36z" />
    <glyph glyph-name=".notdef" horiz-adv-x="904" 
d="M106 700h198v-51h-143v-598h143v-51h-198v700zM600 51h143v598h-143v51h198v-700h-198v51zM419 351l-140 140l33 33l141 -140l140 140l33 -33l-139 -140l139 -141l-33 -33l-140 140l-141 -140l-33 33z" />
    <glyph glyph-name="uni0000" horiz-adv-x="0" 
 />
    <glyph glyph-name="uni0000" horiz-adv-x="0" 
 />
    <glyph glyph-name="uni000D" unicode="&#xd;" horiz-adv-x="250" 
 />
    <glyph glyph-name="space" unicode=" " horiz-adv-x="280" 
 />
    <glyph glyph-name="exclam" unicode="!" horiz-adv-x="267" 
d="M104 218l-5 482h69l-5 -482h-59zM133 103q55 0 55 -55q0 -29 -13 -42t-42 -13t-41.5 13t-12.5 42t12.5 42t41.5 13z" />
    <glyph glyph-name="quotedbl" unicode="&#x22;" horiz-adv-x="353" 
d="M228 700h62l-5 -295h-51zM63 700h62l-6 -295h-50z" />
    <glyph glyph-name="numbersign" unicode="#" horiz-adv-x="698" 
d="M23 193l10 55h141l36 204h-140l10 55h140l35 193h60l-35 -193h195l35 193h60l-35 -193h140l-10 -55h-140l-36 -204h139l-10 -55h-139l-35 -193h-60l34 193h-194l-35 -193h-60l35 193h-141zM234 248h194l37 204h-194z" />
    <glyph glyph-name="dollar" unicode="$" horiz-adv-x="710" 
d="M51 187h72q19 -61 68.5 -91.5t138.5 -35.5v268q-151 26 -210 67t-59 122q0 183 269 189v87h48v-87q121 -5 185.5 -51t83.5 -142h-72q-16 61 -64 91.5t-133 35.5v-252q158 -28 219.5 -71.5t61.5 -127.5q0 -190 -281 -196v-86h-48v87q-125 5 -192 50.5t-87 142.5zM591 183
q0 55 -48 86t-165 51v-261q213 1 213 124zM330 641q-201 -3 -201 -119q0 -50 45 -78t156 -48v245z" />
    <glyph glyph-name="percent" unicode="%" horiz-adv-x="910" 
d="M696 390q87 0 126 -47t39 -151t-39 -151.5t-126 -47.5t-126.5 47.5t-39.5 151.5t39.5 151t126.5 47zM215 707q87 0 126.5 -47.5t39.5 -151.5t-39.5 -151t-126.5 -47q-86 0 -125.5 47t-39.5 151t39.5 151.5t125.5 47.5zM108 508q0 -74 25.5 -108.5t81.5 -34.5q57 0 82 34
t25 109q0 77 -25 110.5t-82 33.5q-56 0 -81.5 -34t-25.5 -110zM588 192q0 -75 26 -109.5t82 -34.5t81.5 34.5t25.5 109.5q0 76 -25.5 109.5t-81.5 33.5t-82 -34t-26 -109zM194 25l476 682l46 -32l-476 -682z" />
    <glyph glyph-name="ampersand" unicode="&#x26;" horiz-adv-x="800" 
d="M183 360q-113 38 -113 164q0 97 69 140t225 43t225.5 -45t69.5 -145h-66q0 67 -54.5 97.5t-174.5 30.5t-174 -30t-54 -97q0 -68 47.5 -98t154.5 -30h434v-59h-113v-137q0 -106 -71.5 -153.5t-227.5 -47.5q-157 0 -228 46t-71 148q0 134 122 173zM126 194q0 -73 56.5 -106
t179.5 -33q124 0 179.5 33t55.5 106v137h-254q-114 0 -165.5 -32t-51.5 -105z" />
    <glyph glyph-name="quotesingle" unicode="'" horiz-adv-x="188" 
d="M69 405l-6 295h62l-6 -295h-50z" />
    <glyph glyph-name="parenleft" unicode="(" horiz-adv-x="372" 
d="M106 326q0 250 56 362t180 112v-55q-92 0 -134.5 -99.5t-42.5 -319.5t42.5 -320.5t134.5 -100.5v-55q-124 0 -180 113t-56 363z" />
    <glyph glyph-name="parenright" unicode=")" horiz-adv-x="372" 
d="M30 745v55q124 0 180 -112t56 -362t-56 -363t-180 -113v55q92 0 134.5 100.5t42.5 320.5t-42.5 319.5t-134.5 99.5z" />
    <glyph glyph-name="asterisk" unicode="*" horiz-adv-x="504" 
d="M68 638l159 -56l-6 168h62l-6 -168l159 57l18 -59l-161 -46l103 -133l-50 -36l-94 139l-94 -139l-50 35l104 133l-162 46z" />
    <glyph glyph-name="plus" unicode="+" horiz-adv-x="670" 
d="M73 319v62h231v231h62v-231h231v-62h-231v-231h-62v231h-231z" />
    <glyph glyph-name="comma" unicode="," horiz-adv-x="240" 
d="M131 -10v4q-3 -1 -9 -1q-29 0 -41.5 13t-12.5 42t12.5 42t41.5 13q55 0 55 -55v-51q0 -89 -29 -129t-93 -40v34q40 0 58 30.5t18 97.5z" />
    <glyph glyph-name="hyphen" unicode="-" horiz-adv-x="400" 
d="M63 239v62h274v-62h-274z" />
    <glyph glyph-name="period" unicode="." horiz-adv-x="236" 
d="M63 48q0 29 13 42t42 13q55 0 55 -55q0 -29 -13 -42t-42 -13t-42 13t-13 42z" />
    <glyph glyph-name="slash" unicode="/" horiz-adv-x="506" 
d="M0 -150l443 950h63l-443 -950h-63z" />
    <glyph glyph-name="zero" unicode="0" horiz-adv-x="743" 
d="M371 707q161 0 233.5 -85t72.5 -272t-73 -272t-233 -85t-232.5 85t-72.5 272t72.5 272t232.5 85zM131 350q0 -154 57.5 -224.5t182.5 -70.5q126 0 183 70t57 225t-57 225t-183 70q-125 0 -182.5 -70.5t-57.5 -224.5z" />
    <glyph glyph-name="one" unicode="1" horiz-adv-x="482" 
d="M41 532l260 168h46v-700h-66v613l-204 -134z" />
    <glyph glyph-name="two" unicode="2" horiz-adv-x="640" 
d="M324 707q136 0 197 -49t61 -158q0 -72 -26.5 -113t-83.5 -61l-258 -92q-39 -15 -57 -40t-18 -68v-64h455v-62h-520v122q0 129 115 169l253 91q40 14 57.5 40.5t17.5 75.5q0 77 -46.5 112t-148.5 35t-149.5 -34.5t-47.5 -109.5h-66q0 108 63.5 157t201.5 49z" />
    <glyph glyph-name="three" unicode="3" horiz-adv-x="636" 
d="M43 194h65q0 -73 48 -106t154 -33q104 0 152 33t48 106t-51 105t-165 32h-38v59h43q106 0 154 30t48 98q0 67 -45 97t-144 30t-144 -30.5t-45 -97.5h-65q0 100 60.5 145t193.5 45q134 0 194 -43t60 -140q0 -126 -113 -164q63 -20 92.5 -62t29.5 -111q0 -102 -63 -148
t-202 -46q-140 0 -203.5 47.5t-63.5 153.5z" />
    <glyph glyph-name="four" unicode="4" horiz-adv-x="715" 
d="M690 163h-139v-163h-65v163h-438v62l401 475h102v-475h139v-62zM128 225h358l-1 428z" />
    <glyph glyph-name="five" unicode="5" horiz-adv-x="683" 
d="M73 194h65q0 -73 48 -106t152 -33q113 0 165 40t52 128q0 92 -56.5 133t-183.5 41q-84 0 -122 -19t-38 -60h-62v382h486v-65h-424v-222q47 46 179 46q149 0 217.5 -56.5t68.5 -179.5q0 -121 -67 -175.5t-215 -54.5q-139 0 -202 48t-63 153z" />
    <glyph glyph-name="six" unicode="6" horiz-adv-x="681" 
d="M66 210v262q0 124 64 179.5t206 55.5q141 0 205 -43.5t64 -140.5h-65q0 63 -48.5 92.5t-155.5 29.5q-108 0 -156.5 -40.5t-48.5 -127.5v-126q47 83 216 83q148 0 215 -52.5t67 -167.5q0 -116 -67 -168.5t-214 -52.5q-148 0 -215 52t-67 165zM131 214q0 -83 51.5 -121
t165.5 -38q113 0 164 38t51 121t-51 120.5t-164 37.5q-114 0 -165.5 -37.5t-51.5 -120.5z" />
    <glyph glyph-name="seven" unicode="7" horiz-adv-x="608" 
d="M23 638v62h554v-62l-399 -638h-75l398 638h-478z" />
    <glyph glyph-name="eight" unicode="8" horiz-adv-x="688" 
d="M185 361q-114 38 -114 163q0 96 65 139.5t209 43.5q143 0 207.5 -43t64.5 -140q0 -125 -113 -163q123 -39 123 -174q0 -102 -67 -148t-215 -46q-149 0 -216.5 46t-67.5 148q0 135 124 174zM345 55q114 0 165.5 33t51.5 105q0 73 -51.5 105t-165.5 32q-115 0 -167 -32.5
t-52 -104.5t52.5 -105t166.5 -33zM136 518q0 -68 50 -98t159 -30t158 30t49 98q0 67 -49 97t-158 30t-159 -30t-50 -97z" />
    <glyph glyph-name="nine" unicode="9" horiz-adv-x="675" 
d="M331 707q145 0 211.5 -52t66.5 -165v-262q0 -124 -65 -179.5t-209 -55.5t-209 44t-65 141h65q0 -64 50 -93.5t159 -29.5t158.5 40.5t49.5 127.5v126q-45 -92 -213 -92q-146 0 -211.5 53.5t-65.5 172.5q0 117 66 170.5t212 53.5zM118 483q0 -86 50.5 -125t162.5 -39
q111 0 161.5 39t50.5 125q0 84 -50.5 123t-161.5 39t-162 -39t-51 -123z" />
    <glyph glyph-name="colon" unicode=":" horiz-adv-x="236" 
d="M63 471q0 29 13 42t42 13q55 0 55 -55q0 -29 -13 -41.5t-42 -12.5t-42 12.5t-13 41.5zM63 48q0 29 13 42t42 13q55 0 55 -55q0 -29 -13 -42t-42 -13t-42 13t-13 42z" />
    <glyph glyph-name="semicolon" unicode=";" horiz-adv-x="236" 
d="M55 -172v34q40 0 58 30.5t18 97.5v4q-3 -1 -9 -1q-29 0 -41.5 13t-12.5 42t12.5 42t41.5 13q55 0 55 -55v-51q0 -89 -29 -129t-93 -40zM118 526q55 0 55 -55q0 -29 -13 -41.5t-42 -12.5t-42 12.5t-13 41.5t13 42t42 13z" />
    <glyph glyph-name="less" unicode="&#x3c;" horiz-adv-x="670" 
d="M582 119l-518 196v70l518 196v-67l-439 -164l439 -164v-67z" />
    <glyph glyph-name="equal" unicode="=" horiz-adv-x="670" 
d="M73 254h524v-62h-524v62zM73 446v62h524v-62h-524z" />
    <glyph glyph-name="greater" unicode="&#x3e;" horiz-adv-x="670" 
d="M527 350l-439 164v67l518 -196v-70l-518 -196v67z" />
    <glyph glyph-name="question" unicode="?" horiz-adv-x="576" 
d="M97 501h-66q20 109 82 157.5t181 48.5q243 0 243 -192q0 -108 -88 -148l-87 -39q-52 -26 -52 -79v-35h-66v42q0 88 80 124l87 40q32 15 46 37t14 57q0 66 -46.5 98.5t-131.5 32.5q-86 0 -132 -34t-64 -110zM223 48q0 29 13 42t42 13q55 0 55 -55q0 -29 -13 -42t-42 -13
t-42 13t-13 42z" />
    <glyph glyph-name="at" unicode="@" horiz-adv-x="1093" 
d="M549 740q248 0 361 -111t113 -354q0 -144 -40 -208t-128 -64q-57 0 -86.5 26t-34.5 81q-52 -102 -213 -102q-129 0 -187.5 63.5t-58.5 203.5t58.5 203.5t187.5 63.5q158 0 212 -100v93h66v-384q0 -53 17.5 -77t56.5 -24q56 0 81.5 51t25.5 164q0 227 -103 330.5
t-330 103.5q-225 0 -330 -101.5t-105 -322.5t104 -322.5t328 -101.5q90 0 163 17l13 -39q-76 -19 -178 -19q-245 0 -358.5 111t-113.5 353q0 243 115.5 354.5t363.5 111.5zM536 70q102 0 148.5 49t46.5 157q0 107 -46.5 155.5t-148.5 48.5q-103 0 -149.5 -48.5t-46.5 -155.5
q0 -108 46.5 -157t149.5 -49z" />
    <glyph glyph-name="A" unicode="A" horiz-adv-x="804" 
d="M102 0h-74l333 700h82l333 -700h-74l-81 170h-439zM402 631l-188 -396l376 1z" />
    <glyph glyph-name="B" unicode="B" horiz-adv-x="775" 
d="M500 0h-401v700h375q112 0 162.5 -42.5t50.5 -135.5q0 -64 -20.5 -102.5t-66.5 -57.5q114 -32 114 -175q0 -98 -51 -142.5t-163 -44.5zM500 327h-332v-262h332q78 0 113.5 31.5t35.5 100.5q0 68 -35.5 99t-113.5 31zM168 389h304q84 0 117 28.5t33 94.5q0 64 -35.5 93.5
t-112.5 29.5h-306v-246z" />
    <glyph glyph-name="C" unicode="C" horiz-adv-x="833" 
d="M66 350q0 188 85 272.5t272 84.5q151 0 234.5 -55t108.5 -172h-71q-25 83 -91.5 122t-180.5 39q-151 0 -219.5 -69t-68.5 -222t68.5 -222t219.5 -69q114 0 180.5 39.5t91.5 123.5h72q-26 -119 -109.5 -174t-234.5 -55q-187 0 -272 85t-85 272z" />
    <glyph glyph-name="D" unicode="D" horiz-adv-x="809" 
d="M99 0v700h288q187 0 271.5 -83t84.5 -267t-84.5 -267t-271.5 -83h-288zM385 635h-217v-570h217q152 0 221 68t69 217t-69 217t-221 68z" />
    <glyph glyph-name="E" unicode="E" horiz-adv-x="740" 
d="M666 0h-567v700h567v-65h-498v-254h448v-62h-448v-254h498v-65z" />
    <glyph glyph-name="F" unicode="F" horiz-adv-x="707" 
d="M168 0h-69v700h557v-65h-488v-252h438v-66h-438v-317z" />
    <glyph glyph-name="G" unicode="G" horiz-adv-x="837" 
d="M66 351q0 187 84.5 271.5t271.5 84.5q148 0 231 -52t110 -164h-72q-27 78 -92 114t-176 36q-151 0 -219.5 -69t-68.5 -222q0 -154 71.5 -222.5t235.5 -68.5q131 0 192 43t61 137v60h-275v62h345v-122q0 -129 -78 -187.5t-246 -58.5q-200 0 -287.5 84.5t-87.5 273.5z" />
    <glyph glyph-name="H" unicode="H" horiz-adv-x="861" 
d="M99 0v700h69v-317h525v317h69v-700h-69v317h-525v-317h-69z" />
    <glyph glyph-name="I" unicode="I" horiz-adv-x="267" 
d="M99 0v700h69v-700h-69z" />
    <glyph glyph-name="J" unicode="J" horiz-adv-x="684" 
d="M43 256h69v-56q0 -73 50.5 -107t159.5 -34q108 0 158 45t50 142v454h69v-460q0 -129 -66 -188t-211 -59q-146 0 -212.5 49.5t-66.5 156.5v57z" />
    <glyph glyph-name="K" unicode="K" horiz-adv-x="727" 
d="M99 0v700h69v-310h152l274 310h86l-303 -341l325 -359h-88l-294 325h-152v-325h-69z" />
    <glyph glyph-name="L" unicode="L" horiz-adv-x="693" 
d="M99 0v700h69v-635h472v-65h-541z" />
    <glyph glyph-name="M" unicode="M" horiz-adv-x="1017" 
d="M99 0v700h111l299 -627l298 627h111v-700h-69v635l-299 -635h-82l-300 635v-635h-69z" />
    <glyph glyph-name="N" unicode="N" horiz-adv-x="856" 
d="M99 700h69l520 -600v600h69v-700h-69l-520 600v-600h-69v700z" />
    <glyph glyph-name="O" unicode="O" horiz-adv-x="846" 
d="M423 707q187 0 272 -85t85 -272t-85 -272t-272 -85t-272 85t-85 272q0 188 85 272.5t272 84.5zM135 350q0 -153 68.5 -222t219.5 -69t219.5 69t68.5 222t-68.5 222t-219.5 69t-219.5 -69t-68.5 -222z" />
    <glyph glyph-name="P" unicode="P" horiz-adv-x="720" 
d="M99 0v700h341q123 0 178.5 -51t55.5 -163t-55.5 -163t-178.5 -51h-272v-272h-69zM437 635h-269v-297h269q88 0 128 35t40 113t-40 113.5t-128 35.5z" />
    <glyph glyph-name="Q" unicode="Q" horiz-adv-x="846" 
d="M423 707q187 0 272 -85t85 -272q0 -135 -44.5 -216t-137.5 -115l181 -163l-47 -48l-213 192q-42 -7 -96 -7q-187 0 -272 85t-85 272q0 188 85 272.5t272 84.5zM423 59q151 0 219.5 69t68.5 222t-68.5 222t-219.5 69t-219.5 -69t-68.5 -222t68.5 -222t219.5 -69z" />
    <glyph glyph-name="R" unicode="R" horiz-adv-x="775" 
d="M168 0h-69v700h355q122 0 177.5 -46.5t55.5 -149.5q0 -144 -111 -181q108 -34 108 -160v-163h-69v161q0 67 -37.5 97.5t-120.5 30.5h-289v-289zM168 354h282q89 0 129 33.5t40 107.5q0 73 -40 106.5t-129 33.5h-282v-281z" />
    <glyph glyph-name="S" unicode="S" horiz-adv-x="710" 
d="M51 187h72q20 -67 79 -97.5t168 -30.5q221 0 221 124q0 58 -54.5 90t-192.5 53q-158 25 -220.5 67t-62.5 124q0 189 286 189q137 0 209 -45.5t91 -147.5h-72q-18 67 -74 97.5t-159 30.5q-213 0 -213 -119q0 -53 51 -81.5t179 -48.5q169 -29 234.5 -73t65.5 -130
q0 -196 -297 -196q-141 0 -215 46t-96 148z" />
    <glyph glyph-name="T" unicode="T" horiz-adv-x="763" 
d="M731 635h-315v-635h-69v635h-315v65h699v-65z" />
    <glyph glyph-name="U" unicode="U" horiz-adv-x="823" 
d="M84 700h69v-394q0 -130 61.5 -188.5t196.5 -58.5q136 0 197 58.5t61 188.5v394h69v-400q0 -161 -77.5 -234t-249.5 -73q-171 0 -249 73t-78 234v400z" />
    <glyph glyph-name="V" unicode="V" horiz-adv-x="793" 
d="M356 0l-328 700h74l295 -631l294 631h74l-327 -700h-82z" />
    <glyph glyph-name="W" unicode="W" horiz-adv-x="1178" 
d="M286 0l-258 700h71l228 -620l225 620h74l225 -620l227 620h72l-258 -700h-82l-221 605l-221 -605h-82z" />
    <glyph glyph-name="X" unicode="X" horiz-adv-x="738" 
d="M111 0h-86l301 357l-289 343h85l247 -292l247 292h86l-290 -343l302 -357h-86l-259 306z" />
    <glyph glyph-name="Y" unicode="Y" horiz-adv-x="774" 
d="M353 290l-325 410h83l276 -343l275 343h84l-325 -410v-290h-68v290z" />
    <glyph glyph-name="Z" unicode="Z" horiz-adv-x="679" 
d="M638 0h-597v62l500 573h-490v65h582v-62l-499 -573h504v-65z" />
    <glyph glyph-name="bracketleft" unicode="[" horiz-adv-x="337" 
d="M308 -150h-202v950h202v-55h-143v-840h143v-55z" />
    <glyph glyph-name="backslash" unicode="\" horiz-adv-x="506" 
d="M0 800h63l443 -950h-63z" />
    <glyph glyph-name="bracketright" unicode="]" horiz-adv-x="337" 
d="M173 745h-143v55h201v-950h-201v55h143v840z" />
    <glyph glyph-name="asciicircum" unicode="^" horiz-adv-x="670" 
d="M96 468l239 239l239 -240l-43 -44l-196 196l-195 -195z" />
    <glyph glyph-name="underscore" unicode="_" horiz-adv-x="500" 
d="M0 -162v62h500v-62h-500z" />
    <glyph glyph-name="grave" unicode="`" horiz-adv-x="336" 
d="M273 734l-26 -34l-184 113l38 49z" />
    <glyph glyph-name="a" unicode="a" horiz-adv-x="649" 
d="M273 -7q-105 0 -154.5 36t-49.5 115q0 82 55 117.5t178 35.5h196v15q0 82 -42.5 119t-136.5 37q-76 0 -116.5 -24.5t-54.5 -77.5h-66q17 84 73.5 122.5t166.5 38.5q126 0 183.5 -51t57.5 -163v-313h-65v88q-57 -95 -225 -95zM135 146q0 -50 36.5 -72t114.5 -22
q103 0 152.5 38t59.5 123v33h-182q-95 0 -138 -24t-43 -76z" />
    <glyph glyph-name="b" unicode="b" 
d="M155 0h-66v750h66v-323q52 100 212 100q129 0 187.5 -63.5t58.5 -203.5t-58.5 -203.5t-187.5 -63.5q-160 0 -212 100v-93zM352 55q103 0 149 49t46 156q0 108 -46 156.5t-149 48.5t-149 -48.5t-46 -156.5q0 -107 46 -156t149 -49z" />
    <glyph glyph-name="c" unicode="c" horiz-adv-x="617" 
d="M314 -7q-136 0 -197 63.5t-61 203.5t61 203.5t197 63.5q114 0 173.5 -44t76.5 -140h-65q-16 64 -59.5 93t-123.5 29q-102 0 -148.5 -48.5t-46.5 -156.5q0 -107 46.5 -156t148.5 -49q79 0 123 29.5t60 93.5h65q-16 -97 -75.5 -141t-174.5 -44z" />
    <glyph glyph-name="d" unicode="d" 
d="M56 260q0 140 58.5 203.5t187.5 63.5q160 0 212 -100v323h66v-750h-66v93q-52 -100 -212 -100q-129 0 -187.5 63.5t-58.5 203.5zM317 55q103 0 149 49t46 156q0 108 -46 156.5t-149 48.5t-149.5 -48.5t-46.5 -156.5q0 -107 46.5 -156t149.5 -49z" />
    <glyph glyph-name="e" unicode="e" horiz-adv-x="634" 
d="M56 260q0 139 62 203t201 64q138 0 198.5 -64t60.5 -203q0 -12 -1 -18h-454q3 -98 50 -144t147 -46q141 0 178 99h68q-22 -88 -85.5 -123t-161.5 -35q-139 0 -201 63.5t-62 203.5zM320 468q-95 0 -142.5 -41t-53.5 -134h388q-6 93 -52 134t-140 41z" />
    <glyph glyph-name="f" unicode="f" horiz-adv-x="405" 
d="M132 458h-99v62h99v23q0 111 47.5 160.5t151.5 49.5h45v-62h-43q-71 0 -103 -35t-32 -113v-23h174v-62h-174v-458h-66v458z" />
    <glyph glyph-name="g" unicode="g" 
d="M302 527q160 0 212 -100v93h66v-519q0 -136 -61 -197t-196 -61q-113 0 -171.5 41t-74.5 130h65q15 -56 58 -82.5t122 -26.5q101 0 146.5 46.5t45.5 150.5v91q-52 -100 -212 -100q-129 0 -187.5 63.5t-58.5 203.5t58.5 203.5t187.5 63.5zM317 55q103 0 149 48.5t46 156.5
q0 107 -46 156t-149 49t-149.5 -49t-46.5 -156q0 -108 46.5 -156.5t149.5 -48.5z" />
    <glyph glyph-name="h" unicode="h" horiz-adv-x="673" 
d="M89 0v750h66v-321q51 98 208 98q117 0 170.5 -53.5t53.5 -170.5v-303h-65v303q0 85 -42 123.5t-133 38.5q-102 0 -147 -48.5t-45 -156.5v-260h-66z" />
    <glyph glyph-name="i" unicode="i" horiz-adv-x="243" 
d="M89 0v520h66v-520h-66zM72 677q0 27 11.5 39t38.5 12q51 0 51 -51q0 -27 -12 -38.5t-39 -11.5t-38.5 11.5t-11.5 38.5z" />
    <glyph glyph-name="j" unicode="j" horiz-adv-x="243" 
d="M-46 -250v62h32q54 0 78.5 26t24.5 84v598h66v-597q0 -91 -39.5 -132t-126.5 -41h-35zM72 677q0 27 11.5 39t38.5 12q51 0 51 -51q0 -27 -12 -38.5t-39 -11.5t-38.5 11.5t-11.5 38.5z" />
    <glyph glyph-name="k" unicode="k" horiz-adv-x="558" 
d="M155 0h-66v750h66v-454h81l190 224h80l-216 -254l232 -266h-82l-204 234h-81v-234z" />
    <glyph glyph-name="l" unicode="l" horiz-adv-x="243" 
d="M89 0v750h66v-750h-66z" />
    <glyph glyph-name="m" unicode="m" horiz-adv-x="1011" 
d="M89 520h66v-84q47 91 184 91q148 0 185 -111q45 111 197 111q106 0 155.5 -53.5t49.5 -170.5v-303h-66v303q0 85 -36.5 123.5t-115.5 38.5q-89 0 -128.5 -48.5t-39.5 -156.5v-260h-65v303q0 85 -37 123.5t-116 38.5q-89 0 -128 -48.5t-39 -156.5v-260h-66v520z" />
    <glyph glyph-name="n" unicode="n" horiz-adv-x="673" 
d="M89 0v520h66v-91q51 98 208 98q117 0 170.5 -53.5t53.5 -170.5v-303h-65v303q0 85 -42 123.5t-133 38.5q-102 0 -147 -48.5t-45 -156.5v-260h-66z" />
    <glyph glyph-name="o" unicode="o" horiz-adv-x="639" 
d="M320 527q138 0 200.5 -63.5t62.5 -203.5t-62.5 -203.5t-200.5 -63.5q-139 0 -201.5 63.5t-62.5 203.5t62.5 203.5t201.5 63.5zM121 260q0 -107 47.5 -156t151.5 -49t151 49t47 156q0 108 -47 156.5t-151 48.5t-151.5 -48.5t-47.5 -156.5z" />
    <glyph glyph-name="p" unicode="p" 
d="M89 -250v770h66v-93q52 100 212 100q129 0 187.5 -63.5t58.5 -203.5t-58.5 -203.5t-187.5 -63.5q-160 0 -212 100v-343h-66zM352 55q103 0 149 48.5t46 156.5q0 107 -46 156t-149 49t-149 -49t-46 -156q0 -108 46 -156.5t149 -48.5z" />
    <glyph glyph-name="q" unicode="q" 
d="M56 260q0 140 58.5 203.5t187.5 63.5q160 0 212 -100v93h66v-770h-66v343q-52 -100 -212 -100q-129 0 -187.5 63.5t-58.5 203.5zM317 55q103 0 149 48.5t46 156.5q0 107 -46 156t-149 49t-149.5 -49t-46.5 -156q0 -108 46.5 -156.5t149.5 -48.5z" />
    <glyph glyph-name="r" unicode="r" horiz-adv-x="426" 
d="M155 0h-66v520h66v-89q51 96 202 96h40v-62h-57q-99 0 -142 -48.5t-43 -156.5v-260z" />
    <glyph glyph-name="s" unicode="s" horiz-adv-x="584" 
d="M56 151h65q16 -52 59 -75.5t122 -23.5q82 0 122 23t40 62q0 37 -40 58.5t-133 35.5q-123 19 -173 53.5t-50 99.5q0 143 215 143q108 0 164 -37.5t72 -119.5h-65q-15 51 -56 74.5t-116 23.5q-76 0 -113.5 -22t-37.5 -60q0 -36 39.5 -57t131.5 -37q127 -20 176.5 -53
t49.5 -97q0 -149 -227 -149q-111 0 -170 38t-75 120z" />
    <glyph glyph-name="t" unicode="t" horiz-adv-x="419" 
d="M196 520h171v-62h-171v-286q0 -58 28 -84t91 -26h56v-62h-57q-97 0 -140 39.5t-43 126.5v292h-96v62h96v116h65v-116z" />
    <glyph glyph-name="u" unicode="u" 
d="M86 217v303h65v-303q0 -85 42 -123.5t132 -38.5q100 0 144.5 48.5t44.5 156.5v260h66v-520h-66v90q-51 -97 -205 -97q-116 0 -169.5 53.5t-53.5 170.5z" />
    <glyph glyph-name="v" unicode="v" horiz-adv-x="582" 
d="M26 520h71l194 -451l195 451h70l-228 -520h-74z" />
    <glyph glyph-name="w" unicode="w" horiz-adv-x="860" 
d="M26 520h69l148 -443l154 443h65l153 -438l150 438h68l-181 -520h-73l-149 427l-149 -427h-73z" />
    <glyph glyph-name="x" unicode="x" horiz-adv-x="601" 
d="M36 0l223 264l-216 256h83l175 -206l174 206h83l-215 -256l222 -264h-83l-181 215l-182 -215h-83z" />
    <glyph glyph-name="y" unicode="y" horiz-adv-x="575" 
d="M252 0l-226 520h71l190 -435l191 435h71l-335 -770h-71z" />
    <glyph glyph-name="z" unicode="z" horiz-adv-x="538" 
d="M45 458v62h446v-48l-352 -410h355v-62h-449v48l351 410h-351z" />
    <glyph glyph-name="braceleft" unicode="{" horiz-adv-x="317" 
d="M114 426v255q0 62 26 90.5t84 28.5h63v-55h-55q-31 0 -45.5 -15.5t-14.5 -50.5v-257q0 -41 -18.5 -64t-61.5 -33q43 -10 61.5 -32.5t18.5 -64.5v-252q0 -37 13 -54t42 -17h60v-55h-68q-55 0 -80 30t-25 96v248q0 29 -21.5 47.5t-43.5 22.5l-22 4v55q4 0 9.5 1t20.5 6
t26.5 12t21 21.5t9.5 32.5z" />
    <glyph glyph-name="bar" unicode="|" horiz-adv-x="270" 
d="M106 -150v900h59v-900h-59z" />
    <glyph glyph-name="braceright" unicode="}" horiz-adv-x="317" 
d="M98 -150h-68v55h60q29 0 42 17t13 54v252q0 42 19 64.5t61 32.5q-42 11 -61 34t-19 63v257q0 35 -14.5 50.5t-45.5 15.5h-55v55h63q58 0 84 -28.5t26 -90.5v-255q0 -29 22 -47t44 -22l22 -4v-55q-4 0 -9.5 -1t-21 -6t-27 -12.5t-21 -22t-9.5 -32.5v-248q0 -66 -25 -96
t-80 -30z" />
    <glyph glyph-name="asciitilde" unicode="~" horiz-adv-x="670" 
d="M71 277q0 149 133 149q42 0 78.5 -15t59 -33t53.5 -33t63 -15q84 0 84 93h55q0 -148 -136 -148q-42 0 -78.5 15t-58.5 32.5t-53 32.5t-63 15q-81 0 -81 -93h-56z" />
    <glyph glyph-name="exclamdown" unicode="&#xa1;" horiz-adv-x="267" 
d="M168 -180h-69l5 483h59zM134 527q29 0 42 -13t13 -42q0 -55 -55 -55q-29 0 -42 13t-13 42t13 42t42 13z" />
    <glyph glyph-name="cent" unicode="&#xa2;" horiz-adv-x="617" 
d="M56 350q0 132 54.5 195.5t174.5 70.5v91h48v-91q105 -3 160 -47t71 -136h-65q-15 60 -54.5 89.5t-111.5 31.5v-408q72 3 111.5 32.5t54.5 89.5h65q-15 -92 -70.5 -136.5t-160.5 -47.5v-91h-48v91q-120 7 -174.5 70t-54.5 196zM285 554q-86 -7 -125 -55.5t-39 -148.5
q0 -99 39.5 -148t124.5 -56v408z" />
    <glyph glyph-name="sterling" unicode="&#xa3;" horiz-adv-x="733" 
d="M63 0v65h117v216h-117v55h117v124q0 129 59 188t189 59t189.5 -49.5t59.5 -156.5v-57h-69v56q0 73 -43 107t-137 34t-136.5 -44.5t-42.5 -142.5v-118h250v-55h-250v-216h433v-65h-619z" />
    <glyph glyph-name="currency" unicode="&#xa4;" horiz-adv-x="670" 
d="M66 125l86 86q-34 47 -34 139t34 139l-86 86l44 44l86 -86q46 34 139 34q92 0 140 -34l85 85l44 -43l-86 -86q34 -47 34 -139q0 -93 -35 -139l87 -87l-43 -44l-87 87q-47 -34 -139 -34t-139 34l-86 -86zM335 512q-85 0 -123.5 -38.5t-38.5 -123.5q0 -86 38.5 -124
t123.5 -38t123.5 38.5t38.5 123.5q0 86 -38.5 124t-123.5 38z" />
    <glyph glyph-name="yen" unicode="&#xa5;" horiz-adv-x="774" 
d="M353 290l-325 410h83l276 -343l275 343h84l-325 -410v-14h224v-44h-224v-96h224v-44h-224v-92h-68v92h-224v44h224v96h-224v44h224v14z" />
    <glyph glyph-name="brokenbar" unicode="&#xa6;" horiz-adv-x="270" 
d="M106 -150v350h59v-350h-59zM106 750h59v-350h-59v350z" />
    <glyph glyph-name="section" unicode="&#xa7;" horiz-adv-x="614" 
d="M468 -20q0 42 -41.5 71t-101 48t-119.5 40.5t-101.5 62.5t-41.5 100q0 94 98 135q-75 49 -75 127q0 73 48 108t151 35q119 0 178 -38.5t76 -124.5h-66q-14 55 -57 80t-128 25q-74 0 -108 -20t-34 -62q0 -37 30 -65t75 -43.5t97.5 -35t97.5 -39t75 -56.5t30 -87
q0 -94 -98 -135q75 -48 75 -124q0 -72 -48 -105.5t-152 -33.5q-118 0 -177 38.5t-76 124.5h66q14 -56 56.5 -80.5t127.5 -24.5q75 0 109 19t34 60zM488 237q0 30 -16 52.5t-47.5 39t-62 27.5t-76 26t-72.5 27q-40 -12 -64 -39t-24 -64q0 -30 15.5 -52.5t47 -39t61 -27.5
t75.5 -26t72 -26q42 13 66.5 39t24.5 63z" />
    <glyph glyph-name="dieresis" unicode="&#xa8;" horiz-adv-x="418" 
d="M63 747q0 25 10.5 36t35.5 11t36.5 -11t11.5 -36t-11 -36t-37 -11q-25 0 -35.5 11t-10.5 36zM308 794q48 0 48 -47q0 -25 -11.5 -36t-36.5 -11t-36 11t-11 36t11 36t36 11z" />
    <glyph glyph-name="copyright" unicode="&#xa9;" horiz-adv-x="853" 
d="M426 -7q-187 0 -271.5 85t-84.5 273q0 187 84.5 271.5t271.5 84.5t272 -84.5t85 -271.5q0 -188 -85 -273t-272 -85zM111 350q0 -166 75 -241t240 -75q166 0 241 75t75 241t-75 241t-241 75q-165 0 -240 -75t-75 -241zM250 350q0 94 42 136.5t136 42.5q80 0 122 -30
t53 -93h-58q-20 70 -115 70q-64 0 -94 -30.5t-30 -95.5t29.5 -95t94.5 -30q96 0 115 70h58q-11 -64 -53 -94t-122 -30q-94 0 -136 42.5t-42 136.5z" />
    <glyph glyph-name="ordfeminine" unicode="&#xaa;" horiz-adv-x="496" 
d="M205 306q-80 0 -118 27t-38 86q0 65 45 90t133 25h145v10q0 54 -28.5 82t-100.5 28q-55 0 -84 -16.5t-40 -53.5h-60q12 64 55.5 93.5t130.5 29.5q104 0 145.5 -41.5t41.5 -121.5v-233h-60v60q-45 -65 -167 -65zM241 491q-67 0 -99.5 -15.5t-32.5 -52.5q0 -64 109 -64
q73 0 109.5 26t44.5 83v23h-131z" />
    <glyph glyph-name="guillemotleft" unicode="&#xab;" horiz-adv-x="485" 
d="M375 13l-123 257l123 257l51 -24l-112 -233l112 -232zM174 13l-123 257l123 257l51 -24l-111 -233l111 -232z" />
    <glyph glyph-name="logicalnot" unicode="&#xac;" horiz-adv-x="670" 
d="M73 362v62h524v-225h-65v163h-459z" />
    <glyph glyph-name="uni00AD" unicode="&#xad;" horiz-adv-x="400" 
d="M63 238v62h274v-62h-274z" />
    <glyph glyph-name="registered" unicode="&#xae;" horiz-adv-x="853" 
d="M70 351q0 187 84.5 271.5t271.5 84.5t272 -84.5t85 -271.5q0 -188 -85 -273t-272 -85t-271.5 85t-84.5 273zM426 666q-165 0 -240 -75t-75 -241t75 -241t240 -75q166 0 241 75t75 241t-75 241t-241 75zM285 524h183q60 0 90.5 -23t30.5 -79q0 -69 -51 -90q47 -19 47 -76
v-82h-57v80q0 52 -65 52h-122v-132h-56v350zM341 355h122q70 0 70 60q0 57 -70 57h-122v-117z" />
    <glyph glyph-name="macron" unicode="&#xaf;" horiz-adv-x="427" 
d="M63 700v55h301v-55h-301z" />
    <glyph glyph-name="degree" unicode="&#xb0;" horiz-adv-x="417" 
d="M209 754q70 0 119.5 -49.5t49.5 -119.5t-49.5 -119.5t-119.5 -49.5t-119.5 49.5t-49.5 119.5t49.5 119.5t119.5 49.5zM96 585q0 -47 33 -79.5t80 -32.5t79.5 32.5t32.5 79.5t-32.5 80t-79.5 33t-80 -33t-33 -80z" />
    <glyph glyph-name="plusminus" unicode="&#xb1;" horiz-adv-x="670" 
d="M73 419v62h231v194h62v-194h231v-62h-231v-194h-62v194h-231zM73 145h524v-62h-524v62z" />
    <glyph glyph-name="twosuperior" unicode="&#xb2;" horiz-adv-x="319" 
d="M161 754q69 0 101 -25t32 -80q0 -71 -59 -90l-122 -40q-33 -13 -33 -48v-25h216v-46h-264v63q0 74 60 94l121 41q32 11 32 48q0 63 -86 63t-86 -61h-49q0 55 33 80.5t104 25.5z" />
    <glyph glyph-name="threesuperior" unicode="&#xb3;" horiz-adv-x="315" 
d="M17 501h49q0 -31 21 -45t67 -14t66.5 14t20.5 44q0 31 -22 44.5t-73 13.5h-18v43h20q47 0 68 13t21 41t-19.5 41t-62.5 13q-81 0 -81 -54h-49q0 52 31 75.5t99 23.5q69 0 100 -22t31 -71q0 -60 -50 -81q54 -22 54 -85q0 -52 -32.5 -75.5t-103.5 -23.5q-72 0 -104.5 25
t-32.5 80z" />
    <glyph glyph-name="acute" unicode="&#xb4;" horiz-adv-x="336" 
d="M63 734l172 128l38 -49l-185 -113z" />
    <glyph glyph-name="uni00B5" unicode="&#xb5;" 
d="M86 -250v770h65v-303q0 -85 42 -123.5t132 -38.5q100 0 144.5 48.5t44.5 156.5v260h66v-520h-66v90q-51 -97 -205 -97q-109 0 -163 47l5 -290h-65z" />
    <glyph glyph-name="paragraph" unicode="&#xb6;" horiz-adv-x="626" 
d="M278 700h82v-900h-59v460q-130 0 -189 52.5t-59 167.5t53.5 167.5t171.5 52.5zM520 -200h-58v900h58v-900z" />
    <glyph glyph-name="periodcentered" unicode="&#xb7;" horiz-adv-x="236" 
d="M63 350q0 29 13 42t42 13q55 0 55 -55q0 -29 -13 -41.5t-42 -12.5t-42 12.5t-13 41.5z" />
    <glyph glyph-name="cedilla" unicode="&#xb8;" horiz-adv-x="375" 
d="M63 -138h40q0 -51 85 -51q42 0 60 10.5t18 34.5q0 31 -30 43.5t-101 12.5l20 88h51l-13 -61q120 0 120 -89q0 -41 -29 -59.5t-93 -18.5q-67 0 -97.5 21.5t-30.5 68.5z" />
    <glyph glyph-name="onesuperior" unicode="&#xb9;" horiz-adv-x="244" 
d="M18 665l134 85h33v-350h-49v286l-92 -60z" />
    <glyph glyph-name="ordmasculine" unicode="&#xba;" horiz-adv-x="487" 
d="M243 707q107 0 155.5 -48t48.5 -153t-48.5 -152.5t-155.5 -47.5t-155 47.5t-48 152.5t48.5 153t154.5 48zM98 506q0 -75 34.5 -109.5t110.5 -34.5t110.5 34.5t34.5 109.5q0 76 -34 110.5t-111 34.5q-76 0 -110.5 -34.5t-34.5 -110.5z" />
    <glyph glyph-name="guillemotright" unicode="&#xbb;" horiz-adv-x="485" 
d="M60 503l50 24l124 -257l-124 -257l-50 25l111 232zM371 270l-111 233l51 24l123 -257l-123 -257l-51 25z" />
    <glyph glyph-name="onequarter" unicode="&#xbc;" horiz-adv-x="755" 
d="M425 121l183 229h74v-229h63v-46h-63v-75h-48v75h-209v46zM84 0l487 700h55l-487 -700h-55zM18 615l134 85h33v-350h-49v286l-92 -60zM483 121h151v192z" />
    <glyph glyph-name="onehalf" unicode="&#xbd;" horiz-adv-x="754" 
d="M508 248h-49q0 55 33 80.5t104 25.5q69 0 101 -25t32 -80q0 -71 -59 -90l-122 -40q-33 -13 -33 -48v-25h217v-46h-265v63q0 74 60 94l121 41q33 11 33 48q0 63 -87 63q-86 0 -86 -61zM84 0l487 700h55l-487 -700h-55zM18 615l134 85h33v-350h-49v286l-92 -60z" />
    <glyph glyph-name="threequarters" unicode="&#xbe;" horiz-adv-x="826" 
d="M496 121l183 229h75v-229h62v-46h-62v-75h-49v75h-209v46zM17 451h49q0 -31 21 -45t67 -14t66.5 14t20.5 44q0 31 -22 44.5t-73 13.5h-18v43h20q47 0 68 13t21 41t-19.5 41t-62.5 13q-81 0 -81 -54h-49q0 52 31 75.5t99 23.5q69 0 100 -22t31 -71q0 -60 -50 -81
q54 -22 54 -85q0 -52 -32.5 -75.5t-103.5 -23.5q-72 0 -104.5 25t-32.5 80zM125 0l487 700h55l-487 -700h-55zM554 121h151v192z" />
    <glyph glyph-name="questiondown" unicode="&#xbf;" horiz-adv-x="576" 
d="M40 6q0 108 88 147l86 39q53 26 53 79v35h65v-42q0 -88 -80 -124l-87 -40q-33 -16 -47 -36t-13 -57q1 -130 179 -132q86 -1 132 33.5t64 110.5h65q-20 -108 -81 -156.5t-182 -49.5q-117 -1 -180 48t-62 145zM243 472q2 30 14.5 43t40.5 12q30 -2 42 -12.5t13 -42.5
q1 -28 -12 -40.5t-43 -14.5q-27 -1 -41 14t-14 41z" />
    <glyph glyph-name="Agrave" unicode="&#xc0;" horiz-adv-x="804" 
d="M102 0h-74l333 700h82l333 -700h-74l-81 170h-439zM402 631l-188 -396l376 1zM247 883l38 48l173 -127l-26 -34z" />
    <glyph glyph-name="Aacute" unicode="&#xc1;" horiz-adv-x="804" 
d="M102 0h-74l333 700h82l333 -700h-74l-81 170h-439zM402 631l-188 -396l376 1zM372 770l-26 34l173 127l38 -48z" />
    <glyph glyph-name="Acircumflex" unicode="&#xc2;" horiz-adv-x="804" 
d="M28 0l333 700h82l333 -700h-74l-81 170h-439l-80 -170h-74zM402 631l-188 -396l376 1zM230 794l172 124l172 -124l-25 -34l-147 94l-147 -94z" />
    <glyph glyph-name="Atilde" unicode="&#xc3;" horiz-adv-x="804" 
d="M28 0l333 700h82l333 -700h-74l-81 170h-439l-80 -170h-74zM402 631l-188 -396l376 1zM291 780h-47q0 104 82 104q37 0 82 -30t65 -30q39 0 39 55h47q0 -104 -79 -104q-38 0 -83 30t-66 30q-40 0 -40 -55z" />
    <glyph glyph-name="Adieresis" unicode="&#xc4;" horiz-adv-x="804" 
d="M28 0l333 700h82l333 -700h-74l-81 170h-439l-80 -170h-74zM402 631l-188 -396l376 1zM302 864q48 0 48 -48q0 -46 -48 -46q-25 0 -36 10.5t-11 35.5q0 48 47 48zM454 816q0 25 11 36.5t36 11.5q48 0 48 -48q0 -46 -48 -46q-25 0 -36 10.5t-11 35.5z" />
    <glyph glyph-name="Aring" unicode="&#xc5;" horiz-adv-x="804" 
d="M28 0l333 700h82l333 -700h-74l-81 170h-439l-80 -170h-74zM402 631l-188 -396l376 1zM402 974q53 0 77.5 -24.5t24.5 -77.5t-24.5 -77.5t-77.5 -24.5t-77.5 24.5t-24.5 77.5t24.5 77.5t77.5 24.5zM402 814q58 0 58 58t-58 58t-58 -58t58 -58z" />
    <glyph glyph-name="AE" unicode="&#xc6;" horiz-adv-x="1191" 
d="M109 0h-81l509 700h580v-65h-472v-254h422v-62h-422v-254h472v-65h-541v170h-344zM576 643l-296 -408l296 1v407z" />
    <glyph glyph-name="Ccedilla" unicode="&#xc7;" horiz-adv-x="833" 
d="M66 350q0 188 85 272.5t272 84.5q151 0 234.5 -55t108.5 -172h-71q-25 83 -91.5 122t-180.5 39q-151 0 -219.5 -69t-68.5 -222t68.5 -222t219.5 -69q114 0 180.5 39.5t91.5 123.5h72q-25 -112 -99.5 -167t-209.5 -61l-11 -55q119 0 119 -89q0 -41 -29 -59.5t-93 -18.5
q-67 0 -97.5 21.5t-30.5 68.5h40q0 -51 86 -51q41 0 59 10.5t18 34.5q0 31 -30 43.5t-101 12.5l19 81q-179 4 -260 89t-81 268z" />
    <glyph glyph-name="Egrave" unicode="&#xc8;" horiz-adv-x="740" 
d="M666 0h-567v700h567v-65h-498v-254h448v-62h-448v-254h498v-65zM413 770l-185 113l38 48l172 -127z" />
    <glyph glyph-name="Eacute" unicode="&#xc9;" horiz-adv-x="740" 
d="M666 0h-567v700h567v-65h-498v-254h448v-62h-448v-254h498v-65zM353 770l-26 34l172 127l39 -48z" />
    <glyph glyph-name="Ecircumflex" unicode="&#xca;" horiz-adv-x="740" 
d="M666 0h-567v700h567v-65h-498v-254h448v-62h-448v-254h498v-65zM210 794l173 124l172 -124l-26 -34l-146 94l-147 -94z" />
    <glyph glyph-name="Edieresis" unicode="&#xcb;" horiz-adv-x="740" 
d="M666 0h-567v700h567v-65h-498v-254h448v-62h-448v-254h498v-65zM283 864q48 0 48 -48q0 -46 -48 -46q-25 0 -36 10.5t-11 35.5t11 36.5t36 11.5zM435 816q0 25 11 36.5t36 11.5q47 0 47 -48q0 -25 -11 -35.5t-36 -10.5t-36 10.5t-11 35.5z" />
    <glyph glyph-name="Igrave" unicode="&#xcc;" horiz-adv-x="267" 
d="M99 0v700h69v-700h-69zM189 804l-26 -34l-184 113l38 48z" />
    <glyph glyph-name="Iacute" unicode="&#xcd;" horiz-adv-x="267" 
d="M99 0v700h69v-700h-69zM78 804l172 127l38 -48l-184 -113z" />
    <glyph glyph-name="Icircumflex" unicode="&#xce;" horiz-adv-x="267" 
d="M99 0v700h69v-700h-69zM-13 760l-26 34l173 124l172 -124l-26 -34l-146 94z" />
    <glyph glyph-name="Idieresis" unicode="&#xcf;" horiz-adv-x="267" 
d="M168 0h-69v700h69v-700zM-13 816q0 25 11 36.5t36 11.5q48 0 48 -48q0 -46 -48 -46q-25 0 -36 10.5t-11 35.5zM233 864q47 0 47 -48q0 -25 -11 -35.5t-36 -10.5t-36 10.5t-11 35.5t11 36.5t36 11.5z" />
    <glyph glyph-name="Eth" unicode="&#xd0;" horiz-adv-x="818" 
d="M8 323v55h99v322h288q187 0 272 -83t85 -267t-85 -267t-272 -83h-288v323h-99zM176 378h255v-55h-255v-258h217q152 0 221 68t69 217t-69 217t-221 68h-217v-257z" />
    <glyph glyph-name="Ntilde" unicode="&#xd1;" horiz-adv-x="856" 
d="M99 700h69l520 -600v600h69v-700h-69l-520 600v-600h-69v700zM317 780h-47q0 104 82 104q37 0 82 -30t65 -30q39 0 39 55h47q0 -104 -79 -104q-37 0 -82.5 30t-65.5 30q-41 0 -41 -55z" />
    <glyph glyph-name="Ograve" unicode="&#xd2;" horiz-adv-x="846" 
d="M66 350q0 188 85 272.5t272 84.5t272 -85t85 -272t-85 -272t-272 -85t-272 85t-85 272zM135 350q0 -153 68.5 -222t219.5 -69t219.5 69t68.5 222t-68.5 222t-219.5 69t-219.5 -69t-68.5 -222zM268 883l38 48l172 -127l-25 -34z" />
    <glyph glyph-name="Oacute" unicode="&#xd3;" horiz-adv-x="846" 
d="M423 707q187 0 272 -85t85 -272t-85 -272t-272 -85t-272 85t-85 272q0 188 85 272.5t272 84.5zM135 350q0 -153 68.5 -222t219.5 -69t219.5 69t68.5 222t-68.5 222t-219.5 69t-219.5 -69t-68.5 -222zM393 770l-26 34l173 127l38 -48z" />
    <glyph glyph-name="Ocircumflex" unicode="&#xd4;" horiz-adv-x="846" 
d="M423 707q187 0 272 -85t85 -272t-85 -272t-272 -85t-272 85t-85 272q0 188 85 272.5t272 84.5zM423 59q151 0 219.5 69t68.5 222t-68.5 222t-219.5 69t-219.5 -69t-68.5 -222t68.5 -222t219.5 -69zM250 794l173 124l172 -124l-26 -34l-146 94l-147 -94z" />
    <glyph glyph-name="Otilde" unicode="&#xd5;" horiz-adv-x="846" 
d="M423 707q187 0 272 -85t85 -272t-85 -272t-272 -85t-272 85t-85 272q0 188 85 272.5t272 84.5zM135 350q0 -153 68.5 -222t219.5 -69t219.5 69t68.5 222t-68.5 222t-219.5 69t-219.5 -69t-68.5 -222zM312 780h-47q0 104 82 104q36 0 81.5 -30t65.5 -30q39 0 39 55h47
q0 -104 -79 -104q-38 0 -83.5 30t-65.5 30q-40 0 -40 -55z" />
    <glyph glyph-name="Odieresis" unicode="&#xd6;" horiz-adv-x="846" 
d="M423 707q187 0 272 -85t85 -272t-85 -272t-272 -85t-272 85t-85 272q0 188 85 272.5t272 84.5zM135 350q0 -153 68.5 -222t219.5 -69t219.5 69t68.5 222t-68.5 222t-219.5 69t-219.5 -69t-68.5 -222zM276 816q0 25 11 36.5t36 11.5q48 0 48 -48q0 -46 -48 -46
q-25 0 -36 10.5t-11 35.5zM475 816q0 25 11 36.5t36 11.5q47 0 47 -48q0 -25 -11 -35.5t-36 -10.5t-36 10.5t-11 35.5z" />
    <glyph glyph-name="multiply" unicode="&#xd7;" horiz-adv-x="670" 
d="M96 545l44 44l195 -195l195 194l44 -43l-195 -195l195 -196l-43 -44l-196 196l-195 -195l-44 44l195 195z" />
    <glyph glyph-name="Oslash" unicode="&#xd8;" horiz-adv-x="846" 
d="M423 707q96 0 168 -23l21 36h52l-31 -53q147 -76 147 -317q0 -187 -85 -272t-272 -85q-97 0 -168 23l-21 -36h-52l31 53q-147 76 -147 317q0 188 85 272.5t272 84.5zM135 350q0 -194 113 -256l308 529q-51 18 -133 18q-151 0 -219.5 -69t-68.5 -222zM423 59
q151 0 219.5 69t68.5 222q0 193 -114 256l-307 -529q51 -18 133 -18z" />
    <glyph glyph-name="Ugrave" unicode="&#xd9;" horiz-adv-x="823" 
d="M84 700h69v-394q0 -130 61.5 -188.5t196.5 -58.5q136 0 197 58.5t61 188.5v394h69v-400q0 -161 -77.5 -234t-249.5 -73q-171 0 -249 73t-78 234v400zM256 883l39 48l172 -127l-26 -34z" />
    <glyph glyph-name="Uacute" unicode="&#xda;" horiz-adv-x="823" 
d="M84 700h69v-394q0 -130 61.5 -188.5t196.5 -58.5q136 0 197 58.5t61 188.5v394h69v-400q0 -161 -77.5 -234t-249.5 -73q-171 0 -249 73t-78 234v400zM381 770l-25 34l172 127l38 -48z" />
    <glyph glyph-name="Ucircumflex" unicode="&#xdb;" horiz-adv-x="823" 
d="M84 700h69v-394q0 -130 61.5 -188.5t196.5 -58.5q136 0 197 58.5t61 188.5v394h69v-400q0 -161 -77.5 -234t-249.5 -73q-171 0 -249 73t-78 234v400zM239 794l172 124l173 -124l-26 -34l-147 94l-146 -94z" />
    <glyph glyph-name="Udieresis" unicode="&#xdc;" horiz-adv-x="823" 
d="M84 700h69v-394q0 -130 61.5 -188.5t196.5 -58.5q136 0 197 58.5t61 188.5v394h69v-400q0 -161 -77.5 -234t-249.5 -73q-171 0 -249 73t-78 234v400zM265 816q0 48 46 48q49 0 49 -48q0 -25 -11.5 -35.5t-37.5 -10.5q-25 0 -35.5 10.5t-10.5 35.5zM511 770
q-26 0 -37 10.5t-11 35.5q0 48 48 48q47 0 47 -48q0 -46 -47 -46z" />
    <glyph glyph-name="Yacute" unicode="&#xdd;" horiz-adv-x="774" 
d="M353 290l-325 410h83l276 -343l275 343h84l-325 -410v-290h-68v290zM357 770l-26 34l173 127l38 -48z" />
    <glyph glyph-name="Thorn" unicode="&#xde;" horiz-adv-x="720" 
d="M168 0h-69v700h69v-136h272q123 0 178.5 -51t55.5 -163t-55.5 -163t-178.5 -51h-272v-136zM437 499h-269v-298h269q88 0 128 35.5t40 113.5t-40 113.5t-128 35.5z" />
    <glyph glyph-name="germandbls" unicode="&#xdf;" horiz-adv-x="641" 
d="M89 0v546q0 111 54.5 161t174.5 50q115 0 166 -47.5t51 -153.5q0 -125 -73 -167q120 -30 120 -189q0 -105 -48.5 -152.5t-155.5 -47.5h-127v58h124q74 0 107.5 36t33.5 115q0 78 -33 112.5t-108 34.5h-103v51h68q69 0 99.5 33.5t30.5 105.5q0 79 -36 114t-119 35
q-84 0 -122 -35t-38 -114v-546h-66z" />
    <glyph glyph-name="agrave" unicode="&#xe0;" horiz-adv-x="649" 
d="M273 -7q-105 0 -154.5 36t-49.5 115q0 82 55 117.5t178 35.5h196v15q0 82 -42.5 119t-136.5 37q-76 0 -116.5 -24.5t-54.5 -77.5h-66q17 84 73.5 122.5t166.5 38.5q126 0 183.5 -51t57.5 -163v-313h-65v88q-57 -95 -225 -95zM135 146q0 -50 36.5 -72t114.5 -22
q103 0 152.5 38t59.5 123v33h-182q-95 0 -138 -24t-43 -76zM346 606l-184 113l38 49l172 -128z" />
    <glyph glyph-name="aacute" unicode="&#xe1;" horiz-adv-x="649" 
d="M69 144q0 82 55 117.5t178 35.5h196v15q0 82 -42.5 119t-136.5 37q-76 0 -116.5 -24.5t-54.5 -77.5h-66q17 84 73.5 122.5t166.5 38.5q126 0 183.5 -51t57.5 -163v-313h-65v88q-57 -95 -225 -95q-105 0 -154.5 36t-49.5 115zM316 246q-95 0 -138 -24t-43 -76
q0 -50 36.5 -72t114.5 -22q103 0 152.5 38t59.5 123v33h-182zM287 606l-26 34l172 128l39 -49z" />
    <glyph glyph-name="acircumflex" unicode="&#xe2;" horiz-adv-x="649" 
d="M273 -7q-105 0 -154.5 36t-49.5 115q0 82 55 117.5t178 35.5h196v15q0 82 -42.5 119t-136.5 37q-76 0 -116.5 -24.5t-54.5 -77.5h-66q17 84 73.5 122.5t166.5 38.5q126 0 183.5 -51t57.5 -163v-313h-65v88q-57 -95 -225 -95zM316 246q-95 0 -138 -24t-43 -76
q0 -50 36.5 -72t114.5 -22q103 0 152.5 38t59.5 123v33h-182zM144 630l173 124l172 -124l-26 -34l-146 95l-147 -95z" />
    <glyph glyph-name="atilde" unicode="&#xe3;" horiz-adv-x="649" 
d="M273 -7q-105 0 -154.5 36t-49.5 115q0 82 55 117.5t178 35.5h196v15q0 82 -42.5 119t-136.5 37q-76 0 -116.5 -24.5t-54.5 -77.5h-66q17 84 73.5 122.5t166.5 38.5q126 0 183.5 -51t57.5 -163v-313h-65v88q-57 -95 -225 -95zM316 246q-95 0 -138 -24t-43 -76
q0 -50 36.5 -72t114.5 -22q103 0 152.5 38t59.5 123v33h-182zM205 616h-46q0 105 81 105q37 0 82.5 -30.5t65.5 -30.5q38 0 38 56h47q0 -105 -78 -105q-38 0 -83.5 30t-65.5 30q-41 0 -41 -55z" />
    <glyph glyph-name="adieresis" unicode="&#xe4;" horiz-adv-x="649" 
d="M69 144q0 82 55 117.5t178 35.5h196v15q0 82 -42.5 119t-136.5 37q-76 0 -116.5 -24.5t-54.5 -77.5h-66q17 84 73.5 122.5t166.5 38.5q126 0 183.5 -51t57.5 -163v-313h-65v88q-57 -95 -225 -95q-105 0 -154.5 36t-49.5 115zM316 246q-95 0 -138 -24t-43 -76
q0 -50 36.5 -72t114.5 -22q103 0 152.5 38t59.5 123v33h-182zM217 606q-25 0 -36 11t-11 36t11 36t36 11q48 0 48 -47q0 -25 -11.5 -36t-36.5 -11zM416 606q-26 0 -36.5 11t-10.5 36t11 36t36 11t36 -11t11 -36t-11 -36t-36 -11z" />
    <glyph glyph-name="aring" unicode="&#xe5;" horiz-adv-x="649" 
d="M69 144q0 82 55 117.5t178 35.5h196v15q0 82 -42.5 119t-136.5 37q-76 0 -116.5 -24.5t-54.5 -77.5h-66q17 84 73.5 122.5t166.5 38.5q126 0 183.5 -51t57.5 -163v-313h-65v88q-57 -95 -225 -95q-105 0 -154.5 36t-49.5 115zM316 246q-95 0 -138 -24t-43 -76
q0 -50 36.5 -72t114.5 -22q103 0 152.5 38t59.5 123v33h-182zM317 606q-53 0 -78 24.5t-25 77.5t25 78t78 25t77.5 -25t24.5 -78q0 -52 -24.5 -77t-77.5 -25zM317 766q-59 0 -59 -58t59 -58q58 0 58 58t-58 58z" />
    <glyph glyph-name="ae" unicode="&#xe6;" horiz-adv-x="1075" 
d="M273 -7q-105 0 -154.5 36t-49.5 115q0 82 55 117.5t178 35.5h198q5 87 -37 129t-144 42q-76 0 -116.5 -24.5t-54.5 -77.5h-66q17 84 73.5 122.5t166.5 38.5q176 0 215 -109q52 109 223 109q138 0 198.5 -63.5t60.5 -201.5v-20h-455q4 -99 51.5 -144.5t146.5 -45.5
q141 0 177 99h68q-21 -88 -84 -123t-161 -35q-104 0 -163 35t-82 109q-22 -75 -80.5 -109.5t-163.5 -34.5zM316 246q-95 0 -138 -24t-43 -76q0 -50 37 -72t115 -22q110 0 159.5 44.5t53.5 149.5h-184zM565 293h389q-7 93 -53 134t-140 41q-95 0 -142.5 -41t-53.5 -134z" />
    <glyph glyph-name="ccedilla" unicode="&#xe7;" horiz-adv-x="617" 
d="M56 260q0 140 61 203.5t197 63.5q114 0 173.5 -44t76.5 -140h-65q-16 64 -59.5 93t-123.5 29q-102 0 -148.5 -48.5t-46.5 -156.5q0 -107 46.5 -156t148.5 -49q79 0 123 29.5t60 93.5h65q-15 -92 -70 -136t-159 -48l-12 -55q120 0 120 -89q0 -41 -29 -59.5t-93 -18.5
q-67 0 -97.5 21.5t-30.5 68.5h40q0 -51 85 -51q42 0 60 10.5t18 34.5q0 31 -30 43.5t-101 12.5l19 82q-119 7 -173.5 70.5t-54.5 195.5z" />
    <glyph glyph-name="egrave" unicode="&#xe8;" horiz-adv-x="634" 
d="M319 -7q-139 0 -201 63.5t-62 203.5q0 139 62 203t201 64q138 0 198.5 -64t60.5 -203q0 -12 -1 -18h-454q3 -98 50 -144t147 -46q141 0 178 99h68q-22 -88 -85.5 -123t-161.5 -35zM320 468q-95 0 -142.5 -41t-53.5 -134h388q-6 93 -52 134t-140 41zM347 606l-184 113
l38 49l172 -128z" />
    <glyph glyph-name="eacute" unicode="&#xe9;" horiz-adv-x="634" 
d="M56 260q0 139 62 203t201 64q138 0 198.5 -64t60.5 -203q0 -12 -1 -18h-454q3 -98 50 -144t147 -46q141 0 178 99h68q-22 -88 -85.5 -123t-161.5 -35q-139 0 -201 63.5t-62 203.5zM124 293h388q-6 93 -52 134t-140 41q-95 0 -142.5 -41t-53.5 -134zM288 606l-26 34
l172 128l38 -49z" />
    <glyph glyph-name="ecircumflex" unicode="&#xea;" horiz-adv-x="634" 
d="M56 260q0 139 62 203t201 64q138 0 198.5 -64t60.5 -203q0 -12 -1 -18h-454q3 -98 50 -144t147 -46q141 0 178 99h68q-22 -88 -85.5 -123t-161.5 -35q-139 0 -201 63.5t-62 203.5zM124 293h388q-6 93 -52 134t-140 41q-95 0 -142.5 -41t-53.5 -134zM145 630l173 124
l172 -124l-26 -34l-146 95l-147 -95z" />
    <glyph glyph-name="edieresis" unicode="&#xeb;" horiz-adv-x="634" 
d="M56 260q0 139 62 203t201 64q138 0 198.5 -64t60.5 -203q0 -12 -1 -18h-454q3 -98 50 -144t147 -46q141 0 178 99h68q-22 -88 -85.5 -123t-161.5 -35q-139 0 -201 63.5t-62 203.5zM320 468q-95 0 -142.5 -41t-53.5 -134h388q-6 93 -52 134t-140 41zM171 653q0 25 11 36
t36 11q48 0 48 -47q0 -25 -11.5 -36t-36.5 -11q-26 0 -36.5 11t-10.5 36zM370 653q0 25 11 36t36 11t36 -11t11 -36t-11 -36t-36 -11t-36 11t-11 36z" />
    <glyph glyph-name="igrave" unicode="&#xec;" horiz-adv-x="234" 
d="M85 0v520h65v-520h-65zM173 640l-26 -34l-185 113l38 49z" />
    <glyph glyph-name="iacute" unicode="&#xed;" horiz-adv-x="234" 
d="M85 0v520h65v-520h-65zM62 640l172 128l38 -49l-185 -113z" />
    <glyph glyph-name="icircumflex" unicode="&#xee;" horiz-adv-x="234" 
d="M85 0v520h65v-520h-65zM-19 596l-26 34l162 124l162 -124l-26 -34l-136 95z" />
    <glyph glyph-name="idieresis" unicode="&#xef;" horiz-adv-x="234" 
d="M150 0h-65v520h65v-520zM-13 653q0 25 11 36t36 11q48 0 48 -47q0 -25 -11.5 -36t-36.5 -11q-26 0 -36.5 11t-10.5 36zM200 700q25 0 36 -11t11 -36t-11 -36t-36 -11q-26 0 -36.5 11t-10.5 36t11 36t36 11z" />
    <glyph glyph-name="eth" unicode="&#xf0;" horiz-adv-x="651" 
d="M56 262q0 139 60.5 202t194.5 63q101 0 151 -40.5t59 -130.5q3 52 0 98q-4 124 -51 173t-154 58l-22 2l-76 -106l-37 21l64 89l-142 11v55l179 -14l71 98l37 -21l-59 -81q147 -13 203 -93.5t56 -266.5q0 -113 -17 -189t-53 -119t-85 -60.5t-120 -17.5q-136 0 -197.5 63.5
t-61.5 205.5zM314 55q102 0 148 49t46 157q0 107 -46 155.5t-148 48.5q-101 0 -147 -48.5t-46 -155.5q0 -108 46 -157t147 -49z" />
    <glyph glyph-name="ntilde" unicode="&#xf1;" horiz-adv-x="673" 
d="M155 0h-66v520h66v-91q51 98 208 98q117 0 170.5 -53.5t53.5 -170.5v-303h-65v303q0 85 -42 123.5t-133 38.5q-102 0 -147 -48.5t-45 -156.5v-260zM227 616h-46q0 105 81 105q37 0 82 -30.5t65 -30.5q39 0 39 56h47q0 -105 -79 -105q-37 0 -82.5 30t-65.5 30
q-41 0 -41 -55z" />
    <glyph glyph-name="ograve" unicode="&#xf2;" horiz-adv-x="639" 
d="M56 260q0 140 62.5 203.5t201.5 63.5q138 0 200.5 -63.5t62.5 -203.5t-62.5 -203.5t-200.5 -63.5q-139 0 -201.5 63.5t-62.5 203.5zM121 260q0 -107 47.5 -156t151.5 -49t151 49t47 156q0 108 -47 156.5t-151 48.5t-151.5 -48.5t-47.5 -156.5zM165 719l38 49l172 -128
l-26 -34z" />
    <glyph glyph-name="oacute" unicode="&#xf3;" horiz-adv-x="639" 
d="M320 527q138 0 200.5 -63.5t62.5 -203.5t-62.5 -203.5t-200.5 -63.5q-139 0 -201.5 63.5t-62.5 203.5t62.5 203.5t201.5 63.5zM121 260q0 -107 47.5 -156t151.5 -49t151 49t47 156q0 108 -47 156.5t-151 48.5t-151.5 -48.5t-47.5 -156.5zM290 606l-26 34l172 128l38 -49z
" />
    <glyph glyph-name="ocircumflex" unicode="&#xf4;" horiz-adv-x="639" 
d="M320 527q138 0 200.5 -63.5t62.5 -203.5t-62.5 -203.5t-200.5 -63.5q-139 0 -201.5 63.5t-62.5 203.5t62.5 203.5t201.5 63.5zM320 55q104 0 151 49t47 156q0 108 -47 156.5t-151 48.5t-151.5 -48.5t-47.5 -156.5q0 -107 47.5 -156t151.5 -49zM147 630l173 124l172 -124
l-26 -34l-146 95l-147 -95z" />
    <glyph glyph-name="otilde" unicode="&#xf5;" horiz-adv-x="639" 
d="M320 527q138 0 200.5 -63.5t62.5 -203.5t-62.5 -203.5t-200.5 -63.5q-139 0 -201.5 63.5t-62.5 203.5t62.5 203.5t201.5 63.5zM121 260q0 -107 47.5 -156t151.5 -49t151 49t47 156q0 108 -47 156.5t-151 48.5t-151.5 -48.5t-47.5 -156.5zM208 616h-46q0 105 81 105
q37 0 82.5 -30.5t65.5 -30.5q38 0 38 56h47q0 -105 -78 -105q-38 0 -83.5 30t-65.5 30q-41 0 -41 -55z" />
    <glyph glyph-name="odieresis" unicode="&#xf6;" horiz-adv-x="639" 
d="M320 527q138 0 200.5 -63.5t62.5 -203.5t-62.5 -203.5t-200.5 -63.5q-139 0 -201.5 63.5t-62.5 203.5t62.5 203.5t201.5 63.5zM121 260q0 -107 47.5 -156t151.5 -49t151 49t47 156q0 108 -47 156.5t-151 48.5t-151.5 -48.5t-47.5 -156.5zM173 653q0 25 11 36t36 11
q48 0 48 -47q0 -25 -11.5 -36t-36.5 -11q-26 0 -36.5 11t-10.5 36zM372 653q0 25 11 36t36 11t36 -11t11 -36t-11 -36t-36 -11t-36 11t-11 36z" />
    <glyph glyph-name="divide" unicode="&#xf7;" horiz-adv-x="670" 
d="M597 319h-524v62h524v-62zM283 577q0 52 51 52q52 0 52 -52q0 -51 -52 -51q-27 0 -39 12t-12 39zM334 174q52 0 52 -52q0 -51 -52 -51q-27 0 -39 12t-12 39q0 52 51 52z" />
    <glyph glyph-name="oslash" unicode="&#xf8;" horiz-adv-x="639" 
d="M56 260q0 140 62.5 203.5t201.5 63.5q69 0 123 -17l15 27h43l-24 -42q106 -55 106 -235q0 -140 -62.5 -203.5t-200.5 -63.5q-72 0 -123 18l-17 -30h-43l26 44q-107 55 -107 235zM320 465q-104 0 -151.5 -48.5t-47.5 -156.5q0 -132 76 -176l212 368q-35 13 -89 13zM230 68
q36 -13 90 -13q104 0 151 49t47 156q0 132 -75 175z" />
    <glyph glyph-name="ugrave" unicode="&#xf9;" 
d="M309 -7q-116 0 -169.5 53.5t-53.5 170.5v303h65v-303q0 -85 42 -123.5t132 -38.5q100 0 144.5 48.5t44.5 156.5v260h66v-520h-66v90q-51 -97 -205 -97zM178 719l38 49l173 -128l-26 -34z" />
    <glyph glyph-name="uacute" unicode="&#xfa;" 
d="M86 217v303h65v-303q0 -85 42 -123.5t132 -38.5q100 0 144.5 48.5t44.5 156.5v260h66v-520h-66v90q-51 -97 -205 -97q-116 0 -169.5 53.5t-53.5 170.5zM303 606l-26 34l173 128l38 -49z" />
    <glyph glyph-name="ucircumflex" unicode="&#xfb;" 
d="M86 520h65v-303q0 -85 42 -123.5t132 -38.5q100 0 144.5 48.5t44.5 156.5v260h66v-520h-66v90q-51 -97 -205 -97q-116 0 -169.5 53.5t-53.5 170.5v303zM161 630l172 124l172 -124l-25 -34l-147 95l-147 -95z" />
    <glyph glyph-name="udieresis" unicode="&#xfc;" 
d="M86 520h65v-303q0 -85 42 -123.5t132 -38.5q100 0 144.5 48.5t44.5 156.5v260h66v-520h-66v90q-51 -97 -205 -97q-116 0 -169.5 53.5t-53.5 170.5v303zM233 606q-25 0 -36 11t-11 36t11 36t36 11q48 0 48 -47q0 -25 -11.5 -36t-36.5 -11zM385 653q0 25 11 36t36 11
q48 0 48 -47q0 -25 -11.5 -36t-36.5 -11q-26 0 -36.5 11t-10.5 36z" />
    <glyph glyph-name="yacute" unicode="&#xfd;" horiz-adv-x="575" 
d="M26 520h71l190 -435l191 435h71l-335 -770h-71l109 250zM232 640l173 128l38 -49l-185 -113z" />
    <glyph glyph-name="thorn" unicode="&#xfe;" 
d="M89 -250v1000h66v-323q52 100 212 100q129 0 187.5 -63.5t58.5 -203.5t-58.5 -203.5t-187.5 -63.5q-160 0 -212 100v-343h-66zM352 55q103 0 149 48.5t46 156.5q0 107 -46 156t-149 49t-149 -49t-46 -156q0 -108 46 -156.5t149 -48.5z" />
    <glyph glyph-name="ydieresis" unicode="&#xff;" horiz-adv-x="575" 
d="M252 0l-226 520h71l190 -435l191 435h71l-335 -770h-71zM188 700q48 0 48 -47q0 -25 -11.5 -36t-36.5 -11q-26 0 -36.5 11t-10.5 36t11 36t36 11zM387 700q25 0 36 -11t11 -36t-11 -36t-36 -11t-36 11t-11 36t11 36t36 11z" />
    <glyph glyph-name="Amacron" unicode="&#x100;" horiz-adv-x="804" 
d="M102 0h-74l333 700h82l333 -700h-74l-81 170h-439zM402 631l-188 -396l376 1zM251 780v55h302v-55h-302z" />
    <glyph glyph-name="amacron" unicode="&#x101;" horiz-adv-x="649" 
d="M273 -7q-105 0 -154.5 36t-49.5 115q0 82 55 117.5t178 35.5h196v15q0 82 -42.5 119t-136.5 37q-76 0 -116.5 -24.5t-54.5 -77.5h-66q17 84 73.5 122.5t166.5 38.5q126 0 183.5 -51t57.5 -163v-313h-65v88q-57 -95 -225 -95zM316 246q-95 0 -138 -24t-43 -76
q0 -50 36.5 -72t114.5 -22q103 0 152.5 38t59.5 123v33h-182zM468 616h-302v55h302v-55z" />
    <glyph glyph-name="Abreve" unicode="&#x102;" horiz-adv-x="804" 
d="M28 0l333 700h82l333 -700h-74l-81 170h-439l-80 -170h-74zM402 631l-188 -396l376 1zM245 917h55q0 -52 24 -75.5t78 -23.5t78.5 23.5t24.5 75.5h55q0 -76 -37.5 -111.5t-120.5 -35.5q-82 0 -119.5 35.5t-37.5 111.5z" />
    <glyph glyph-name="abreve" unicode="&#x103;" horiz-adv-x="649" 
d="M273 -7q-105 0 -154.5 36t-49.5 115q0 82 55 117.5t178 35.5h196v15q0 82 -42.5 119t-136.5 37q-76 0 -116.5 -24.5t-54.5 -77.5h-66q17 84 73.5 122.5t166.5 38.5q126 0 183.5 -51t57.5 -163v-313h-65v88q-57 -95 -225 -95zM135 146q0 -50 36.5 -72t114.5 -22
q103 0 152.5 38t59.5 123v33h-182q-95 0 -138 -24t-43 -76zM317 606q-82 0 -120 36t-38 111h55q0 -52 24.5 -75.5t78.5 -23.5t78 23.5t24 75.5h55q0 -76 -37.5 -111.5t-119.5 -35.5z" />
    <glyph glyph-name="Aogonek" unicode="&#x104;" horiz-adv-x="804" 
d="M28 0l333 700h82l333 -700h-15l-13.5 -13.5t-22 -34t-13.5 -49.5q0 -44 38 -44q15 0 30 6.5t22 13.5l7 7l16 -29l-11 -11t-30.5 -18t-49.5 -11q-68 0 -68 70q0 32 13 60t26 41l13 12h-16l-81 170h-439l-80 -170h-74zM402 631l-188 -396l376 1z" />
    <glyph glyph-name="aogonek" unicode="&#x105;" horiz-adv-x="649" 
d="M273 -7q-105 0 -154.5 36t-49.5 115q0 82 55 117.5t178 35.5h196v15q0 82 -42.5 119t-136.5 37q-76 0 -116.5 -24.5t-54.5 -77.5h-66q17 84 73.5 122.5t166.5 38.5q126 0 183.5 -51t57.5 -163v-313h-11l-13.5 -13.5t-22 -34t-13.5 -49.5q0 -44 38 -44q15 0 30 6.5
t22 13.5l7 7l16 -29l-11 -11t-30.5 -18t-49.5 -11q-68 0 -68 70q0 32 13 60t26 41l13 12h-11v88q-57 -95 -225 -95zM316 246q-95 0 -138 -24t-43 -76q0 -50 36.5 -72t114.5 -22q103 0 152.5 38t59.5 123v33h-182z" />
    <glyph glyph-name="Cacute" unicode="&#x106;" horiz-adv-x="833" 
d="M66 350q0 188 85 272.5t272 84.5q151 0 234.5 -55t108.5 -172h-71q-25 83 -91.5 122t-180.5 39q-151 0 -219.5 -69t-68.5 -222t68.5 -222t219.5 -69q114 0 180.5 39.5t91.5 123.5h72q-26 -119 -109.5 -174t-234.5 -55q-187 0 -272 85t-85 272zM400 770l-26 34l173 127
l38 -48z" />
    <glyph glyph-name="cacute" unicode="&#x107;" horiz-adv-x="617" 
d="M56 260q0 140 61 203.5t197 63.5q114 0 173.5 -44t76.5 -140h-65q-16 64 -59.5 93t-123.5 29q-102 0 -148.5 -48.5t-46.5 -156.5q0 -107 46.5 -156t148.5 -49q79 0 123 29.5t60 93.5h65q-16 -97 -75.5 -141t-174.5 -44q-136 0 -197 63.5t-61 203.5zM280 606l-25 34
l172 128l38 -49z" />
    <glyph glyph-name="Ccircumflex" unicode="&#x108;" horiz-adv-x="833" 
d="M66 350q0 188 85 272.5t272 84.5q151 0 234.5 -55t108.5 -172h-71q-25 83 -91.5 122t-180.5 39q-151 0 -219.5 -69t-68.5 -222t68.5 -222t219.5 -69q114 0 180.5 39.5t91.5 123.5h72q-26 -119 -109.5 -174t-234.5 -55q-187 0 -272 85t-85 272zM258 794l172 124l172 -124
l-25 -34l-147 94l-147 -94z" />
    <glyph glyph-name="ccircumflex" unicode="&#x109;" horiz-adv-x="617" 
d="M56 260q0 140 61 203.5t197 63.5q114 0 173.5 -44t76.5 -140h-65q-16 64 -59.5 93t-123.5 29q-102 0 -148.5 -48.5t-46.5 -156.5q0 -107 46.5 -156t148.5 -49q79 0 123 29.5t60 93.5h65q-16 -97 -75.5 -141t-174.5 -44q-136 0 -197 63.5t-61 203.5zM138 630l172 124
l173 -124l-26 -34l-147 95l-146 -95z" />
    <glyph glyph-name="Cdotaccent" unicode="&#x10a;" horiz-adv-x="833" 
d="M66 350q0 188 85 272.5t272 84.5q151 0 234.5 -55t108.5 -172h-71q-25 83 -91.5 122t-180.5 39q-151 0 -219.5 -69t-68.5 -222t68.5 -222t219.5 -69q114 0 180.5 39.5t91.5 123.5h72q-26 -119 -109.5 -174t-234.5 -55q-187 0 -272 85t-85 272zM379 820q0 27 11.5 39
t38.5 12q51 0 51 -51q0 -27 -12 -38.5t-39 -11.5t-38.5 11.5t-11.5 38.5z" />
    <glyph glyph-name="cdotaccent" unicode="&#x10b;" horiz-adv-x="617" 
d="M56 260q0 140 61 203.5t197 63.5q114 0 173.5 -44t76.5 -140h-65q-16 64 -59.5 93t-123.5 29q-102 0 -148.5 -48.5t-46.5 -156.5q0 -107 46.5 -156t148.5 -49q79 0 123 29.5t60 93.5h65q-16 -97 -75.5 -141t-174.5 -44q-136 0 -197 63.5t-61 203.5zM259 656q0 27 12 39
t39 12q51 0 51 -51q0 -27 -12 -38.5t-39 -11.5t-39 11.5t-12 38.5z" />
    <glyph glyph-name="Ccaron" unicode="&#x10c;" horiz-adv-x="833" 
d="M66 350q0 188 85 272.5t272 84.5q151 0 234.5 -55t108.5 -172h-71q-25 83 -91.5 122t-180.5 39q-151 0 -219.5 -69t-68.5 -222t68.5 -222t219.5 -69q114 0 180.5 39.5t91.5 123.5h72q-26 -119 -109.5 -174t-234.5 -55q-187 0 -272 85t-85 272zM258 884l25 34l147 -95
l147 95l25 -34l-172 -124z" />
    <glyph glyph-name="ccaron" unicode="&#x10d;" horiz-adv-x="617" 
d="M56 260q0 140 61 203.5t197 63.5q114 0 173.5 -44t76.5 -140h-65q-16 64 -59.5 93t-123.5 29q-102 0 -148.5 -48.5t-46.5 -156.5q0 -107 46.5 -156t148.5 -49q79 0 123 29.5t60 93.5h65q-16 -97 -75.5 -141t-174.5 -44q-136 0 -197 63.5t-61 203.5zM138 720l26 34
l146 -94l147 94l26 -34l-173 -124z" />
    <glyph glyph-name="Dcaron" unicode="&#x10e;" horiz-adv-x="809" 
d="M387 0h-288v700h288q187 0 271.5 -83t84.5 -267t-84.5 -267t-271.5 -83zM385 635h-217v-570h217q152 0 221 68t69 217t-69 217t-221 68zM152 884l26 34l147 -95l146 95l26 -34l-172 -124z" />
    <glyph glyph-name="dcaron" unicode="&#x10f;" horiz-adv-x="755" 
d="M56 260q0 140 58.5 203.5t187.5 63.5q160 0 212 -100v323h66v-750h-66v93q-52 -100 -212 -100q-129 0 -187.5 63.5t-58.5 203.5zM317 55q103 0 149 49t46 156q0 108 -46 156.5t-149 48.5t-149.5 -48.5t-46.5 -156.5q0 -107 46.5 -156t149.5 -49zM645 508v30q37 0 54 28.5
t17 90.5v4q-31 0 -44 9t-13 38q0 26 11 37.5t37 11.5q48 0 48 -49v-45q0 -81 -26 -118t-84 -37z" />
    <glyph glyph-name="Dcroat" unicode="&#x110;" horiz-adv-x="818" 
d="M8 323v55h99v322h288q187 0 272 -83t85 -267t-85 -267t-272 -83h-288v323h-99zM176 378h255v-55h-255v-258h217q152 0 221 68t69 217t-69 217t-221 68h-217v-257z" />
    <glyph glyph-name="dcroat" unicode="&#x111;" horiz-adv-x="674" 
d="M56 260q0 140 58.5 203.5t187.5 63.5q160 0 212 -100v189h-239v51h239v83h66v-83h79v-51h-79v-616h-66v93q-52 -100 -212 -100q-129 0 -187.5 63.5t-58.5 203.5zM317 55q103 0 149 49t46 156q0 108 -46 156.5t-149 48.5t-149.5 -48.5t-46.5 -156.5q0 -107 46.5 -156
t149.5 -49z" />
    <glyph glyph-name="Emacron" unicode="&#x112;" horiz-adv-x="740" 
d="M666 0h-567v700h567v-65h-498v-254h448v-62h-448v-254h498v-65zM534 780h-302v55h302v-55z" />
    <glyph glyph-name="emacron" unicode="&#x113;" horiz-adv-x="634" 
d="M319 -7q-139 0 -201 63.5t-62 203.5q0 139 62 203t201 64q138 0 198.5 -64t60.5 -203q0 -12 -1 -18h-454q3 -98 50 -144t147 -46q141 0 178 99h68q-22 -88 -85.5 -123t-161.5 -35zM124 293h388q-6 93 -52 134t-140 41q-95 0 -142.5 -41t-53.5 -134zM167 671h302v-55h-302
v55z" />
    <glyph glyph-name="Ebreve" unicode="&#x114;" horiz-adv-x="740" 
d="M99 0v700h567v-65h-498v-254h448v-62h-448v-254h498v-65h-567zM225 917h55q0 -52 24.5 -75.5t78.5 -23.5t78 23.5t24 75.5h55q0 -76 -37.5 -111.5t-119.5 -35.5t-120 36t-38 111z" />
    <glyph glyph-name="ebreve" unicode="&#x115;" horiz-adv-x="634" 
d="M56 260q0 139 62 203t201 64q138 0 198.5 -64t60.5 -203q0 -12 -1 -18h-454q3 -98 50 -144t147 -46q141 0 178 99h68q-22 -88 -85.5 -123t-161.5 -35q-139 0 -201 63.5t-62 203.5zM320 468q-95 0 -142.5 -41t-53.5 -134h388q-6 93 -52 134t-140 41zM318 606
q-82 0 -120 36t-38 111h55q0 -52 24.5 -75.5t78.5 -23.5t78 23.5t24 75.5h55q0 -76 -37.5 -111.5t-119.5 -35.5z" />
    <glyph glyph-name="Edotaccent" unicode="&#x116;" horiz-adv-x="740" 
d="M666 0h-567v700h567v-65h-498v-254h448v-62h-448v-254h498v-65zM332 820q0 27 11.5 39t38.5 12q51 0 51 -51q0 -27 -12 -38.5t-39 -11.5t-38.5 11.5t-11.5 38.5z" />
    <glyph glyph-name="edotaccent" unicode="&#x117;" horiz-adv-x="634" 
d="M56 260q0 139 62 203t201 64q138 0 198.5 -64t60.5 -203q0 -12 -1 -18h-454q3 -98 50 -144t147 -46q141 0 178 99h68q-22 -88 -85.5 -123t-161.5 -35q-139 0 -201 63.5t-62 203.5zM320 468q-95 0 -142.5 -41t-53.5 -134h388q-6 93 -52 134t-140 41zM267 656q0 27 11.5 39
t38.5 12q51 0 51 -51q0 -27 -12 -38.5t-39 -11.5t-38.5 11.5t-11.5 38.5z" />
    <glyph glyph-name="Eogonek" unicode="&#x118;" horiz-adv-x="740" 
d="M563 0h-464v700h567v-65h-498v-254h448v-62h-448v-254h498v-65h-60l-13.5 -13.5t-22 -34t-13.5 -49.5q0 -44 38 -44q15 0 30 6.5t22 13.5l7 7l16 -29l-11 -11t-30.5 -18t-49.5 -11q-68 0 -68 70q0 32 13 60t26 41z" />
    <glyph glyph-name="eogonek" unicode="&#x119;" horiz-adv-x="634" 
d="M56 260q0 139 62 203t201 64q138 0 198.5 -64t60.5 -203q0 -12 -1 -18h-454q3 -98 50 -144t147 -46q141 0 178 99h68q-35 -141 -201 -156q-43 -43 -43 -92q0 -44 38 -44q15 0 29.5 6.5t21.5 13.5l7 7l16 -29q-4 -4 -10.5 -11t-30.5 -18t-50 -11q-67 0 -67 70q0 60 43 106
q-139 0 -201 63.5t-62 203.5zM320 468q-95 0 -142.5 -41t-53.5 -134h388q-6 93 -52 134t-140 41z" />
    <glyph glyph-name="Ecaron" unicode="&#x11a;" horiz-adv-x="740" 
d="M666 0h-567v700h567v-65h-498v-254h448v-62h-448v-254h498v-65zM210 884l26 34l147 -95l146 95l26 -34l-172 -124z" />
    <glyph glyph-name="ecaron" unicode="&#x11b;" horiz-adv-x="634" 
d="M56 260q0 139 62 203t201 64q138 0 198.5 -64t60.5 -203q0 -12 -1 -18h-454q3 -98 50 -144t147 -46q141 0 178 99h68q-22 -88 -85.5 -123t-161.5 -35q-139 0 -201 63.5t-62 203.5zM124 293h388q-6 93 -52 134t-140 41q-95 0 -142.5 -41t-53.5 -134zM145 720l26 34
l147 -94l146 94l26 -34l-172 -124z" />
    <glyph glyph-name="Gcircumflex" unicode="&#x11c;" horiz-adv-x="837" 
d="M66 351q0 187 84.5 271.5t271.5 84.5q148 0 231 -52t110 -164h-72q-27 78 -92 114t-176 36q-151 0 -219.5 -69t-68.5 -222q0 -154 71.5 -222.5t235.5 -68.5q131 0 192 43t61 137v60h-275v62h345v-122q0 -129 -78 -187.5t-246 -58.5q-200 0 -287.5 84.5t-87.5 273.5z
M247 794l173 124l172 -124l-26 -34l-146 94l-147 -94z" />
    <glyph glyph-name="gcircumflex" unicode="&#x11d;" 
d="M302 527q160 0 212 -100v93h66v-519q0 -136 -61 -197t-196 -61q-113 0 -171.5 41t-74.5 130h65q15 -56 58 -82.5t122 -26.5q101 0 146.5 46.5t45.5 150.5v91q-52 -100 -212 -100q-129 0 -187.5 63.5t-58.5 203.5t58.5 203.5t187.5 63.5zM317 55q103 0 149 48.5t46 156.5
q0 107 -46 156t-149 49t-149.5 -49t-46.5 -156q0 -108 46.5 -156.5t149.5 -48.5zM142 630l173 124l172 -124l-26 -34l-146 95l-147 -95z" />
    <glyph glyph-name="Gbreve" unicode="&#x11e;" horiz-adv-x="837" 
d="M66 351q0 187 84.5 271.5t271.5 84.5q148 0 231 -52t110 -164h-72q-27 78 -92 114t-176 36q-151 0 -219.5 -69t-68.5 -222q0 -154 71.5 -222.5t235.5 -68.5q131 0 192 43t61 137v60h-275v62h345v-122q0 -129 -78 -187.5t-246 -58.5q-200 0 -287.5 84.5t-87.5 273.5z
M420 770q-82 0 -120 36t-38 111h55q0 -52 24.5 -75.5t78.5 -23.5t78 23.5t24 75.5h55q0 -76 -37.5 -111.5t-119.5 -35.5z" />
    <glyph glyph-name="gbreve" unicode="&#x11f;" 
d="M302 527q160 0 212 -100v93h66v-519q0 -136 -61 -197t-196 -61q-113 0 -171.5 41t-74.5 130h65q15 -56 58 -82.5t122 -26.5q101 0 146.5 46.5t45.5 150.5v91q-52 -100 -212 -100q-129 0 -187.5 63.5t-58.5 203.5t58.5 203.5t187.5 63.5zM317 55q103 0 149 48.5t46 156.5
q0 107 -46 156t-149 49t-149.5 -49t-46.5 -156q0 -108 46.5 -156.5t149.5 -48.5zM157 753h55q0 -52 24.5 -75.5t78.5 -23.5t78 23.5t24 75.5h55q0 -76 -37.5 -111.5t-119.5 -35.5t-120 36t-38 111z" />
    <glyph glyph-name="Gdotaccent" unicode="&#x120;" horiz-adv-x="837" 
d="M66 351q0 187 84.5 271.5t271.5 84.5q148 0 231 -52t110 -164h-72q-27 78 -92 114t-176 36q-151 0 -219.5 -69t-68.5 -222q0 -154 71.5 -222.5t235.5 -68.5q131 0 192 43t61 137v60h-275v62h345v-122q0 -129 -78 -187.5t-246 -58.5q-200 0 -287.5 84.5t-87.5 273.5z
M369 820q0 27 11.5 39t38.5 12q51 0 51 -51q0 -27 -12 -38.5t-39 -11.5t-38.5 11.5t-11.5 38.5z" />
    <glyph glyph-name="gdotaccent" unicode="&#x121;" 
d="M302 527q160 0 212 -100v93h66v-519q0 -136 -61 -197t-196 -61q-113 0 -171.5 41t-74.5 130h65q15 -56 58 -82.5t122 -26.5q101 0 146.5 46.5t45.5 150.5v91q-52 -100 -212 -100q-129 0 -187.5 63.5t-58.5 203.5t58.5 203.5t187.5 63.5zM317 55q103 0 149 48.5t46 156.5
q0 107 -46 156t-149 49t-149.5 -49t-46.5 -156q0 -108 46.5 -156.5t149.5 -48.5zM264 656q0 27 11.5 39t38.5 12q51 0 51 -51q0 -27 -12 -38.5t-39 -11.5t-38.5 11.5t-11.5 38.5z" />
    <glyph glyph-name="uni0122" unicode="&#x122;" horiz-adv-x="837" 
d="M66 351q0 187 84.5 271.5t271.5 84.5q148 0 231 -52t110 -164h-72q-27 78 -92 114t-176 36q-151 0 -219.5 -69t-68.5 -222q0 -154 71.5 -222.5t235.5 -68.5q131 0 192 43t61 137v60h-275v62h345v-122q0 -129 -78 -187.5t-246 -58.5q-200 0 -287.5 84.5t-87.5 273.5z
M488 -151q0 -75 -24 -109.5t-76 -34.5v27q34 0 50 27t16 85v4q-28 0 -40 8t-12 35q0 42 43 42t43 -42v-42z" />
    <glyph glyph-name="uni0123" unicode="&#x123;" 
d="M302 527q160 0 212 -100v93h66v-519q0 -136 -61 -197t-196 -61q-113 0 -171.5 41t-74.5 130h65q15 -56 58 -82.5t122 -26.5q101 0 146.5 46.5t45.5 150.5v91q-52 -100 -212 -100q-129 0 -187.5 63.5t-58.5 203.5t58.5 203.5t187.5 63.5zM317 55q103 0 149 48.5t46 156.5
q0 107 -46 156t-149 49t-149.5 -49t-46.5 -156q0 -108 46.5 -156.5t149.5 -48.5zM371 835v-27q-34 0 -50 -26.5t-16 -85.5v-4q20 0 29 -2t15.5 -11t6.5 -29q0 -43 -42 -43q-44 0 -44 43v42q0 75 24 109t77 34z" />
    <glyph glyph-name="Hcircumflex" unicode="&#x124;" horiz-adv-x="861" 
d="M99 0v700h69v-317h525v317h69v-700h-69v317h-525v-317h-69zM259 794l172 124l172 -124l-25 -34l-147 94l-147 -94z" />
    <glyph glyph-name="hcircumflex" unicode="&#x125;" horiz-adv-x="673" 
d="M89 750h66v-321q51 98 208 98q117 0 170.5 -53.5t53.5 -170.5v-303h-65v303q0 85 -42 123.5t-133 38.5q-102 0 -147 -48.5t-45 -156.5v-260h-66v750zM-51 804l173 124l172 -124l-26 -34l-146 95l-147 -95z" />
    <glyph glyph-name="Hbar" unicode="&#x126;" horiz-adv-x="878" 
d="M869 530h-99v-530h-69v317h-525v-317h-69v530h-99v55h99v115h69v-115h525v115h69v-115h99v-55zM701 530h-525v-147h525v147z" />
    <glyph glyph-name="hbar" unicode="&#x127;" horiz-adv-x="678" 
d="M15 616v51h79v83h66v-83h239v-51h-239v-187q53 98 208 98q117 0 171 -53.5t54 -170.5v-303h-66v303q0 85 -42 123.5t-133 38.5q-102 0 -147 -48.5t-45 -156.5v-260h-66v616h-79z" />
    <glyph glyph-name="Itilde" unicode="&#x128;" horiz-adv-x="267" 
d="M99 0v700h69v-700h-69zM22 780h-46q0 104 81 104q37 0 82 -30t65 -30q39 0 39 55h47q0 -104 -78 -104q-38 0 -83.5 30t-65.5 30q-41 0 -41 -55z" />
    <glyph glyph-name="itilde" unicode="&#x129;" horiz-adv-x="234" 
d="M85 0v520h65v-520h-65zM16 616h-47q0 105 75 105q35 0 77 -30.5t61 -30.5q35 0 35 56h47q0 -105 -73 -105q-35 0 -77 30t-61 30q-37 0 -37 -55z" />
    <glyph glyph-name="Imacron" unicode="&#x12a;" horiz-adv-x="267" 
d="M99 0v700h69v-700h-69zM-17 780v55h302v-55h-302z" />
    <glyph glyph-name="imacron" unicode="&#x12b;" horiz-adv-x="234" 
d="M85 0v520h65v-520h-65zM-10 616v55h255v-55h-255z" />
    <glyph glyph-name="Ibreve" unicode="&#x12c;" horiz-adv-x="267" 
d="M168 0h-69v700h69v-700zM-24 917h55q0 -52 24.5 -75.5t78.5 -23.5t78 23.5t24 75.5h55q0 -76 -37.5 -111.5t-119.5 -35.5t-120 36t-38 111z" />
    <glyph glyph-name="ibreve" unicode="&#x12d;" horiz-adv-x="234" 
d="M150 0h-65v520h65v-520zM-30 753h55q0 -52 21 -75.5t71 -23.5t71 23.5t21 75.5h55q0 -76 -34.5 -111.5t-112.5 -35.5t-112.5 35.5t-34.5 111.5z" />
    <glyph glyph-name="Iogonek" unicode="&#x12e;" horiz-adv-x="267" 
d="M62 -113q0 32 13 60t26 41l13 12h-15v700h69v-700h-11l-13.5 -13.5t-22 -34t-13.5 -49.5q0 -44 38 -44q15 0 30 6.5t22 13.5l7 7l16 -29l-11 -11t-30.5 -18t-49.5 -11q-68 0 -68 70z" />
    <glyph glyph-name="iogonek" unicode="&#x12f;" horiz-adv-x="243" 
d="M51 -113q0 32 13 60t26 41l13 12h-14v520h66v-520h-9l-13.5 -13.5t-22 -34t-13.5 -49.5q0 -44 38 -44q15 0 30 6.5t22 13.5l7 7l16 -29l-11 -11t-30.5 -18t-49.5 -11q-68 0 -68 70zM72 677q0 27 11.5 39t38.5 12q51 0 51 -51q0 -27 -12 -38.5t-39 -11.5t-38.5 11.5
t-11.5 38.5z" />
    <glyph glyph-name="Idotaccent" unicode="&#x130;" horiz-adv-x="267" 
d="M99 0v700h69v-700h-69zM83 820q0 27 11.5 39t38.5 12q51 0 51 -51q0 -27 -12 -38.5t-39 -11.5t-38.5 11.5t-11.5 38.5z" />
    <glyph glyph-name="dotlessi" unicode="&#x131;" horiz-adv-x="234" 
d="M85 0v520h65v-520h-65z" />
    <glyph glyph-name="IJ" unicode="&#x132;" horiz-adv-x="951" 
d="M310 256h69v-56q0 -73 50.5 -107t159.5 -34q108 0 158 45t50 142v454h69v-460q0 -129 -66 -188t-211 -59q-146 0 -212.5 49.5t-66.5 156.5v57zM99 700h69v-700h-69v700z" />
    <glyph glyph-name="ij" unicode="&#x133;" horiz-adv-x="487" 
d="M232 -250h-34v62h32q53 0 78 26t25 84v598h65v-597q0 -91 -39.5 -132t-126.5 -41zM155 0h-66v520h66v-520zM72 677q0 27 11.5 39t38.5 12q51 0 51 -51q0 -27 -12 -38.5t-39 -11.5t-38.5 11.5t-11.5 38.5zM365 627q-27 0 -38.5 11.5t-11.5 38.5t11.5 39t38.5 12
q51 0 51 -51q0 -27 -12 -38.5t-39 -11.5z" />
    <glyph glyph-name="Jcircumflex" unicode="&#x134;" horiz-adv-x="684" 
d="M43 199v57h69v-56q0 -73 50.5 -107t159.5 -34q108 0 158 45t50 142v454h69v-460q0 -129 -66 -188t-211 -59q-146 0 -212.5 49.5t-66.5 156.5zM392 794l173 124l172 -124l-26 -34l-146 94l-147 -94z" />
    <glyph glyph-name="jcircumflex" unicode="&#x135;" horiz-adv-x="239" 
d="M-46 -250v62h32q54 0 78.5 26t24.5 84v598h66v-597q0 -91 -39.5 -132t-126.5 -41h-35zM-51 630l173 124l172 -124l-26 -34l-146 95l-147 -95z" />
    <glyph glyph-name="uni0136" unicode="&#x136;" horiz-adv-x="727" 
d="M99 0v700h69v-310h152l274 310h86l-303 -341l325 -359h-88l-294 325h-152v-325h-69zM297 -295v27q34 0 50 27t16 85l-1 4q-27 0 -39 8.5t-12 34.5q0 42 43 42t43 -42v-42q0 -75 -24 -109.5t-76 -34.5z" />
    <glyph glyph-name="uni0137" unicode="&#x137;" horiz-adv-x="558" 
d="M155 0h-66v750h66v-454h81l190 224h80l-216 -254l232 -266h-82l-204 234h-81v-234zM211 -295v27q34 0 50 27t16 85l-1 4q-27 0 -39 8.5t-12 34.5q0 42 43 42t43 -42v-42q0 -75 -24 -109.5t-76 -34.5z" />
    <glyph glyph-name="Lacute" unicode="&#x139;" horiz-adv-x="693" 
d="M99 0v700h69v-635h472v-65h-541zM78 804l172 127l38 -48l-184 -113z" />
    <glyph glyph-name="lacute" unicode="&#x13a;" horiz-adv-x="243" 
d="M89 0v750h66v-750h-66zM66 813l173 128l38 -49l-185 -113z" />
    <glyph glyph-name="uni013B" unicode="&#x13b;" horiz-adv-x="693" 
d="M640 0h-541v700h69v-635h472v-65zM328 -295v27q34 0 49.5 27t15.5 85v4q-28 0 -39.5 8t-11.5 35q0 22 10 32t33 10q43 0 43 -42v-42q0 -75 -24 -109.5t-76 -34.5z" />
    <glyph glyph-name="uni013C" unicode="&#x13c;" horiz-adv-x="243" 
d="M89 750h66v-750h-66v750zM139 -156v4q-28 0 -39.5 8t-11.5 35q0 42 42 42q43 0 43 -42v-42q0 -75 -23.5 -109.5t-76.5 -34.5v27q34 0 50 27t16 85z" />
    <glyph glyph-name="Lcaron" unicode="&#x13d;" horiz-adv-x="693" 
d="M640 0h-541v700h69v-635h472v-65zM246 476v26q34 0 50 27t16 86v3q-28 0 -39.5 8.5t-11.5 34.5q0 42 42 43q43 0 43 -43v-42q0 -75 -23.5 -109t-76.5 -34z" />
    <glyph glyph-name="lcaron" unicode="&#x13e;" horiz-adv-x="330" 
d="M89 0v750h66v-750h-66zM220 508v30q37 0 53.5 28.5t16.5 90.5v4q-31 0 -43.5 9t-12.5 38q0 26 11 37.5t36 11.5q49 0 49 -49v-45q0 -81 -26 -118t-84 -37z" />
    <glyph glyph-name="Ldot" unicode="&#x13f;" horiz-adv-x="693" 
d="M640 0h-541v700h69v-635h472v-65zM480 405q55 0 55 -55q0 -29 -13 -41.5t-42 -12.5t-42 12.5t-13 41.5t13 42t42 13z" />
    <glyph glyph-name="ldot" unicode="&#x140;" horiz-adv-x="373" 
d="M155 0h-66v750h66v-750zM311 405q55 0 55 -55q0 -29 -13 -41.5t-42 -12.5t-41.5 12.5t-12.5 41.5t12.5 42t41.5 13z" />
    <glyph glyph-name="Lslash" unicode="&#x141;" horiz-adv-x="693" 
d="M8 256l91 43v401h69v-369l311 145v-56l-311 -146v-209h472v-65h-541v242l-91 -42v56z" />
    <glyph glyph-name="lslash" unicode="&#x142;" horiz-adv-x="284" 
d="M13 310l97 52v388h65v-353l96 53v-61l-96 -53v-336h-65v301l-97 -52v61z" />
    <glyph glyph-name="Nacute" unicode="&#x143;" horiz-adv-x="856" 
d="M99 700h69l520 -600v600h69v-700h-69l-520 600v-600h-69v700zM373 804l172 127l38 -48l-185 -113z" />
    <glyph glyph-name="nacute" unicode="&#x144;" horiz-adv-x="673" 
d="M89 0v520h66v-91q51 98 208 98q117 0 170.5 -53.5t53.5 -170.5v-303h-65v303q0 85 -42 123.5t-133 38.5q-102 0 -147 -48.5t-45 -156.5v-260h-66zM308 606l-25 34l172 128l38 -49z" />
    <glyph glyph-name="uni0145" unicode="&#x145;" horiz-adv-x="856" 
d="M99 700h69l520 -600v600h69v-700h-69l-520 600v-600h-69v700zM394 -109q0 22 10 32t33 10q43 0 43 -42v-42q0 -75 -24 -109.5t-76 -34.5v27q34 0 49.5 27t15.5 85v4q-28 0 -39.5 8t-11.5 35z" />
    <glyph glyph-name="uni0146" unicode="&#x146;" horiz-adv-x="673" 
d="M89 0v520h66v-91q51 98 208 98q117 0 170.5 -53.5t53.5 -170.5v-303h-65v303q0 85 -42 123.5t-133 38.5q-102 0 -147 -48.5t-45 -156.5v-260h-66zM390 -151q0 -75 -24 -109.5t-76 -34.5v27q34 0 49.5 27t15.5 85v4q-28 0 -39.5 8t-11.5 35q0 22 10 32t33 10q43 0 43 -42
v-42z" />
    <glyph glyph-name="Ncaron" unicode="&#x147;" horiz-adv-x="856" 
d="M99 700h69l520 -600v600h69v-700h-69l-520 600v-600h-69v700zM428 760l-172 124l26 34l146 -95l147 95l26 -34z" />
    <glyph glyph-name="ncaron" unicode="&#x148;" horiz-adv-x="673" 
d="M89 520h66v-91q51 98 208 98q117 0 170.5 -53.5t53.5 -170.5v-303h-65v303q0 85 -42 123.5t-133 38.5q-102 0 -147 -48.5t-45 -156.5v-260h-66v520zM166 720l26 34l146 -94l147 94l26 -34l-173 -124z" />
    <glyph glyph-name="Eng" unicode="&#x14a;" horiz-adv-x="856" 
d="M479 -257v66q110 0 159.5 45.5t49.5 145.5l-520 600v-600h-69v700h69l520 -600v600h69v-701q0 -134 -66 -195t-212 -61z" />
    <glyph glyph-name="eng" unicode="&#x14b;" horiz-adv-x="673" 
d="M89 0v520h66v-91q51 98 208 98q117 0 170.5 -53.5t53.5 -170.5v-380q0 -91 -39 -132t-126 -41h-35v62h32q54 0 78.5 26t24.5 84v381q0 85 -42 123.5t-133 38.5q-102 0 -147 -48.5t-45 -156.5v-260h-66z" />
    <glyph glyph-name="Omacron" unicode="&#x14c;" horiz-adv-x="846" 
d="M66 350q0 188 85 272.5t272 84.5t272 -85t85 -272t-85 -272t-272 -85t-272 85t-85 272zM423 59q151 0 219.5 69t68.5 222t-68.5 222t-219.5 69t-219.5 -69t-68.5 -222t68.5 -222t219.5 -69zM272 835h302v-55h-302v55z" />
    <glyph glyph-name="omacron" unicode="&#x14d;" horiz-adv-x="639" 
d="M56 260q0 140 62.5 203.5t201.5 63.5q138 0 200.5 -63.5t62.5 -203.5t-62.5 -203.5t-200.5 -63.5q-139 0 -201.5 63.5t-62.5 203.5zM320 55q104 0 151 49t47 156q0 108 -47 156.5t-151 48.5t-151.5 -48.5t-47.5 -156.5q0 -107 47.5 -156t151.5 -49zM169 671h302v-55h-302
v55z" />
    <glyph glyph-name="Obreve" unicode="&#x14e;" horiz-adv-x="846" 
d="M423 707q187 0 272 -85t85 -272t-85 -272t-272 -85t-272 85t-85 272q0 188 85 272.5t272 84.5zM423 59q151 0 219.5 69t68.5 222t-68.5 222t-219.5 69t-219.5 -69t-68.5 -222t68.5 -222t219.5 -69zM265 917h55q0 -52 24.5 -75.5t78.5 -23.5t78 23.5t24 75.5h55
q0 -76 -37.5 -111.5t-119.5 -35.5t-120 36t-38 111z" />
    <glyph glyph-name="obreve" unicode="&#x14f;" horiz-adv-x="639" 
d="M320 527q138 0 200.5 -63.5t62.5 -203.5t-62.5 -203.5t-200.5 -63.5q-139 0 -201.5 63.5t-62.5 203.5t62.5 203.5t201.5 63.5zM320 55q104 0 151 49t47 156q0 108 -47 156.5t-151 48.5t-151.5 -48.5t-47.5 -156.5q0 -107 47.5 -156t151.5 -49zM162 753h55
q0 -52 24.5 -75.5t78.5 -23.5t78 23.5t24 75.5h55q0 -76 -37.5 -111.5t-119.5 -35.5t-120 36t-38 111z" />
    <glyph glyph-name="Ohungarumlaut" unicode="&#x150;" horiz-adv-x="846" 
d="M66 350q0 188 85 272.5t272 84.5t272 -85t85 -272t-85 -272t-272 -85t-272 85t-85 272zM135 350q0 -153 68.5 -222t219.5 -69t219.5 69t68.5 222t-68.5 222t-219.5 69t-219.5 -69t-68.5 -222zM285 780l109 173l54 -30l-126 -163zM507 760l-37 20l109 173l54 -30z" />
    <glyph glyph-name="ohungarumlaut" unicode="&#x151;" horiz-adv-x="639" 
d="M56 260q0 140 62.5 203.5t201.5 63.5q138 0 200.5 -63.5t62.5 -203.5t-62.5 -203.5t-200.5 -63.5q-139 0 -201.5 63.5t-62.5 203.5zM121 260q0 -107 47.5 -156t151.5 -49t151 49t47 156q0 108 -47 156.5t-151 48.5t-151.5 -48.5t-47.5 -156.5zM403 596l-37 21l109 173
l55 -30zM182 617l108 173l55 -30l-127 -164z" />
    <glyph glyph-name="OE" unicode="&#x152;" horiz-adv-x="1353" 
d="M420 707q225 0 302 -128v121h557v-65h-499v-254h449v-62h-449v-254h499v-65h-557v121q-77 -128 -302 -128q-186 0 -270 85t-84 272q0 188 84 272.5t270 84.5zM135 350q0 -153 68.5 -222t219.5 -69t219.5 69t68.5 222t-68.5 222t-219.5 69t-219.5 -69t-68.5 -222z" />
    <glyph glyph-name="oe" unicode="&#x153;" horiz-adv-x="1096" 
d="M56 260q0 140 61.5 203.5t196.5 63.5q188 0 236 -129q50 129 236 129q135 0 194.5 -64t59.5 -203q0 -3 -0.5 -9t-0.5 -9h-455q4 -98 51 -144t146 -46q142 0 178 99h69q-21 -88 -83 -123t-159 -35q-186 0 -236 129q-49 -129 -236 -129q-135 0 -196.5 63.5t-61.5 203.5z
M320 55q104 0 151 49t47 156q0 108 -47 156.5t-151 48.5t-151.5 -48.5t-47.5 -156.5q0 -107 47.5 -156t151.5 -49zM585 293h389q-7 93 -52.5 134t-140.5 41t-142.5 -41.5t-53.5 -133.5z" />
    <glyph glyph-name="Racute" unicode="&#x154;" horiz-adv-x="775" 
d="M168 0h-69v700h355q122 0 177.5 -46.5t55.5 -149.5q0 -144 -111 -181q108 -34 108 -160v-163h-69v161q0 67 -37.5 97.5t-120.5 30.5h-289v-289zM168 354h282q89 0 129 33.5t40 107.5q0 73 -40 106.5t-129 33.5h-282v-281zM330 770l-25 34l172 127l38 -48z" />
    <glyph glyph-name="racute" unicode="&#x155;" horiz-adv-x="426" 
d="M89 0v520h66v-89q51 96 202 96h40v-62h-57q-99 0 -142 -48.5t-43 -156.5v-260h-66zM201 606l-26 34l172 128l38 -49z" />
    <glyph glyph-name="uni0156" unicode="&#x156;" horiz-adv-x="775" 
d="M99 0v700h355q122 0 177.5 -46.5t55.5 -149.5q0 -144 -111 -181q108 -34 108 -160v-163h-69v161q0 67 -37.5 97.5t-120.5 30.5h-289v-289h-69zM168 354h282q89 0 129 33.5t40 107.5q0 73 -40 106.5t-129 33.5h-282v-281zM345 -295v27q34 0 49.5 27t15.5 85v4
q-28 0 -39.5 8t-11.5 35q0 22 10 32t33 10q43 0 43 -42v-42q0 -75 -24 -109.5t-76 -34.5z" />
    <glyph glyph-name="uni0157" unicode="&#x157;" horiz-adv-x="426" 
d="M89 0v520h66v-89q51 96 202 96h40v-62h-57q-99 0 -142 -48.5t-43 -156.5v-260h-66zM77 -295v27q34 0 49.5 27t15.5 85v4q-28 0 -39.5 8t-11.5 35q0 22 10 32t33 10q43 0 43 -42v-42q0 -75 -24 -109.5t-76 -34.5z" />
    <glyph glyph-name="Rcaron" unicode="&#x158;" horiz-adv-x="775" 
d="M99 0v700h355q122 0 177.5 -46.5t55.5 -149.5q0 -144 -111 -181q108 -34 108 -160v-163h-69v161q0 67 -37.5 97.5t-120.5 30.5h-289v-289h-69zM168 354h282q89 0 129 33.5t40 107.5q0 73 -40 106.5t-129 33.5h-282v-281zM188 884l26 34l146 -95l147 95l26 -34l-173 -124z
" />
    <glyph glyph-name="rcaron" unicode="&#x159;" horiz-adv-x="426" 
d="M89 0v520h66v-89q51 96 202 96h40v-62h-57q-99 0 -142 -48.5t-43 -156.5v-260h-66zM231 596l-173 124l26 34l147 -94l146 94l26 -34z" />
    <glyph glyph-name="Sacute" unicode="&#x15a;" horiz-adv-x="710" 
d="M51 187h72q20 -67 79 -97.5t168 -30.5q221 0 221 124q0 58 -54.5 90t-192.5 53q-158 25 -220.5 67t-62.5 124q0 189 286 189q137 0 209 -45.5t91 -147.5h-72q-18 67 -74 97.5t-159 30.5q-213 0 -213 -119q0 -53 51 -81.5t179 -48.5q169 -29 234.5 -73t65.5 -130
q0 -196 -297 -196q-141 0 -215 46t-96 148zM316 770l-26 34l172 127l38 -48z" />
    <glyph glyph-name="sacute" unicode="&#x15b;" horiz-adv-x="584" 
d="M56 151h65q16 -52 59 -75.5t122 -23.5q82 0 122 23t40 62q0 37 -40 58.5t-133 35.5q-123 19 -173 53.5t-50 99.5q0 143 215 143q108 0 164 -37.5t72 -119.5h-65q-15 51 -56 74.5t-116 23.5q-76 0 -113.5 -22t-37.5 -60q0 -36 39.5 -57t131.5 -37q127 -20 176.5 -53
t49.5 -97q0 -149 -227 -149q-111 0 -170 38t-75 120zM257 606l-26 34l173 128l38 -49z" />
    <glyph glyph-name="Scircumflex" unicode="&#x15c;" horiz-adv-x="710" 
d="M51 187h72q20 -67 79 -97.5t168 -30.5q221 0 221 124q0 58 -54.5 90t-192.5 53q-158 25 -220.5 67t-62.5 124q0 189 286 189q137 0 209 -45.5t91 -147.5h-72q-18 67 -74 97.5t-159 30.5q-213 0 -213 -119q0 -53 51 -81.5t179 -48.5q169 -29 234.5 -73t65.5 -130
q0 -196 -297 -196q-141 0 -215 46t-96 148zM173 794l172 124l173 -124l-26 -34l-147 94l-146 -94z" />
    <glyph glyph-name="scircumflex" unicode="&#x15d;" horiz-adv-x="584" 
d="M301 -7q-111 0 -170 38t-75 120h65q16 -52 59 -75.5t122 -23.5q82 0 122 23t40 62q0 37 -40 58.5t-133 35.5q-123 19 -173 53.5t-50 99.5q0 143 215 143q108 0 164 -37.5t72 -119.5h-65q-15 51 -56 74.5t-116 23.5q-76 0 -113.5 -22t-37.5 -60q0 -36 39.5 -57t131.5 -37
q127 -20 176.5 -53t49.5 -97q0 -149 -227 -149zM115 630l172 124l172 -124l-25 -34l-147 95l-147 -95z" />
    <glyph glyph-name="Scedilla" unicode="&#x15e;" horiz-adv-x="710" 
d="M51 187h72q20 -67 79 -97.5t168 -30.5q221 0 221 124q0 58 -54.5 90t-192.5 53q-158 25 -220.5 67t-62.5 124q0 189 286 189q137 0 209 -45.5t91 -147.5h-72q-18 67 -74 97.5t-159 30.5q-213 0 -213 -119q0 -53 51 -81.5t179 -48.5q169 -29 234.5 -73t65.5 -130
q0 -182 -256 -195l-11 -55q119 0 119 -89q0 -41 -29 -59.5t-93 -18.5q-67 0 -97.5 21.5t-30.5 68.5h40q0 -51 86 -51q41 0 59 10.5t18 34.5q0 31 -30 43.5t-101 12.5l19 81q-136 2 -208 48t-93 146z" />
    <glyph glyph-name="scedilla" unicode="&#x15f;" horiz-adv-x="584" 
d="M56 151h65q16 -52 59 -75.5t122 -23.5q82 0 122 23t40 62q0 37 -40 58.5t-133 35.5q-123 19 -173 53.5t-50 99.5q0 143 215 143q108 0 164 -37.5t72 -119.5h-65q-15 51 -56 74.5t-116 23.5q-76 0 -113.5 -22t-37.5 -60q0 -36 39.5 -57t131.5 -37q127 -20 176.5 -53
t49.5 -97q0 -137 -191 -148l-12 -55q119 0 119 -89q0 -41 -28.5 -59.5t-92.5 -18.5q-68 0 -98.5 21.5t-30.5 68.5h41q0 -51 85 -51q41 0 59.5 10.5t18.5 34.5q0 31 -30 43.5t-101 12.5l18 81q-104 3 -158.5 41t-70.5 117z" />
    <glyph glyph-name="Scaron" unicode="&#x160;" horiz-adv-x="710" 
d="M51 187h72q20 -67 79 -97.5t168 -30.5q221 0 221 124q0 58 -54.5 90t-192.5 53q-158 25 -220.5 67t-62.5 124q0 189 286 189q137 0 209 -45.5t91 -147.5h-72q-18 67 -74 97.5t-159 30.5q-213 0 -213 -119q0 -53 51 -81.5t179 -48.5q169 -29 234.5 -73t65.5 -130
q0 -196 -297 -196q-141 0 -215 46t-96 148zM173 884l26 34l146 -95l147 95l26 -34l-173 -124z" />
    <glyph glyph-name="scaron" unicode="&#x161;" horiz-adv-x="584" 
d="M301 -7q-111 0 -170 38t-75 120h65q16 -52 59 -75.5t122 -23.5q82 0 122 23t40 62q0 37 -40 58.5t-133 35.5q-123 19 -173 53.5t-50 99.5q0 143 215 143q108 0 164 -37.5t72 -119.5h-65q-15 51 -56 74.5t-116 23.5q-76 0 -113.5 -22t-37.5 -60q0 -36 39.5 -57t131.5 -37
q127 -20 176.5 -53t49.5 -97q0 -149 -227 -149zM115 720l25 34l147 -94l147 94l25 -34l-172 -124z" />
    <glyph glyph-name="uni0162" unicode="&#x162;" horiz-adv-x="763" 
d="M32 635v65h699v-65h-315v-635h-69v635h-315zM333 -295v27q34 0 49.5 27t15.5 85v4q-28 0 -39.5 8t-11.5 35q0 22 10 32t33 10q43 0 43 -42v-42q0 -75 -24 -109.5t-76 -34.5z" />
    <glyph glyph-name="uni0163" unicode="&#x163;" horiz-adv-x="419" 
d="M35 458v62h96v116h65v-116h171v-62h-171v-286q0 -58 28 -84t91 -26h56v-62h-57q-97 0 -140 39.5t-43 126.5v292h-96zM178 -268q34 0 50 27t16 85v4q-28 0 -39.5 8t-11.5 35q0 42 42 42q43 0 43 -42v-42q0 -75 -23.5 -109.5t-76.5 -34.5v27z" />
    <glyph glyph-name="Tcaron" unicode="&#x164;" horiz-adv-x="763" 
d="M32 635v65h699v-65h-315v-635h-69v635h-315zM381 760l-172 124l26 34l146 -95l147 95l26 -34z" />
    <glyph glyph-name="tcaron" unicode="&#x165;" horiz-adv-x="419" 
d="M131 458h-96v62h96v116h65v-116h171v-62h-171v-286q0 -58 28 -84t91 -26h56v-62h-57q-97 0 -140 39.5t-43 126.5v292zM273 556v27q34 0 50 26.5t16 85.5v4q-28 0 -39.5 7.5t-11.5 34.5q0 43 42 43q43 0 43 -43v-41q0 -76 -23.5 -110t-76.5 -34z" />
    <glyph glyph-name="Tbar" unicode="&#x166;" horiz-adv-x="763" 
d="M32 635v65h699v-65h-315v-257h184v-55h-184v-323h-69v323h-184v55h184v257h-315z" />
    <glyph glyph-name="tbar" unicode="&#x167;" horiz-adv-x="419" 
d="M35 272v52h96v134h-96v62h96v116h65v-116h171v-62h-171v-134h166v-52h-166v-100q0 -58 28 -84t91 -26h56v-62h-57q-97 0 -140 39.5t-43 126.5v106h-96z" />
    <glyph glyph-name="Utilde" unicode="&#x168;" horiz-adv-x="823" 
d="M84 700h69v-394q0 -130 61.5 -188.5t196.5 -58.5q136 0 197 58.5t61 188.5v394h69v-400q0 -161 -77.5 -234t-249.5 -73q-171 0 -249 73t-78 234v400zM300 780h-46q0 104 81 104q37 0 82 -30t65 -30q39 0 39 55h47q0 -104 -79 -104q-37 0 -82.5 30t-65.5 30q-41 0 -41 -55
z" />
    <glyph glyph-name="utilde" unicode="&#x169;" 
d="M309 -7q-116 0 -169.5 53.5t-53.5 170.5v303h65v-303q0 -85 42 -123.5t132 -38.5q100 0 144.5 48.5t44.5 156.5v260h66v-520h-66v90q-51 -97 -205 -97zM175 616q0 105 82 105q37 0 82 -30.5t65 -30.5q39 0 39 56h47q0 -105 -79 -105q-38 0 -83 30t-66 30q-40 0 -40 -55
h-47z" />
    <glyph glyph-name="Umacron" unicode="&#x16a;" horiz-adv-x="823" 
d="M84 700h69v-394q0 -130 61.5 -188.5t196.5 -58.5q136 0 197 58.5t61 188.5v394h69v-400q0 -161 -77.5 -234t-249.5 -73q-171 0 -249 73t-78 234v400zM562 780h-301v55h301v-55z" />
    <glyph glyph-name="umacron" unicode="&#x16b;" 
d="M309 -7q-116 0 -169.5 53.5t-53.5 170.5v303h65v-303q0 -85 42 -123.5t132 -38.5q100 0 144.5 48.5t44.5 156.5v260h66v-520h-66v90q-51 -97 -205 -97zM182 671h302v-55h-302v55z" />
    <glyph glyph-name="Ubreve" unicode="&#x16c;" horiz-adv-x="823" 
d="M84 700h69v-394q0 -130 61.5 -188.5t196.5 -58.5q136 0 197 58.5t61 188.5v394h69v-400q0 -161 -77.5 -234t-249.5 -73q-171 0 -249 73t-78 234v400zM254 917h55q0 -52 24.5 -75.5t77.5 -23.5q55 0 79 23.5t24 75.5h55q0 -76 -37.5 -111.5t-120.5 -35.5
q-82 0 -119.5 35.5t-37.5 111.5z" />
    <glyph glyph-name="ubreve" unicode="&#x16d;" 
d="M86 217v303h65v-303q0 -85 42 -123.5t132 -38.5q100 0 144.5 48.5t44.5 156.5v260h66v-520h-66v90q-51 -97 -205 -97q-116 0 -169.5 53.5t-53.5 170.5zM176 753h54q0 -52 24.5 -75.5t78.5 -23.5t78.5 23.5t24.5 75.5h54q0 -76 -37.5 -111.5t-119.5 -35.5t-119.5 35.5
t-37.5 111.5z" />
    <glyph glyph-name="Uring" unicode="&#x16e;" horiz-adv-x="823" 
d="M84 700h69v-394q0 -130 61.5 -188.5t196.5 -58.5q136 0 197 58.5t61 188.5v394h69v-400q0 -161 -77.5 -234t-249.5 -73q-171 0 -249 73t-78 234v400zM411 770q-53 0 -77.5 24.5t-24.5 77.5t24.5 77.5t77.5 24.5t78 -24.5t25 -77.5t-25 -77.5t-78 -24.5zM411 930
q-58 0 -58 -58t58 -58t58 58t-58 58z" />
    <glyph glyph-name="uring" unicode="&#x16f;" 
d="M86 520h65v-303q0 -85 42 -123.5t132 -38.5q100 0 144.5 48.5t44.5 156.5v260h66v-520h-66v90q-51 -97 -205 -97q-116 0 -169.5 53.5t-53.5 170.5v303zM333 606q-53 0 -77.5 24.5t-24.5 77.5t24.5 78t77.5 25t77.5 -25t24.5 -78t-24.5 -77.5t-77.5 -24.5zM333 766
q-58 0 -58 -58t58 -58t58 58t-58 58z" />
    <glyph glyph-name="Uhungarumlaut" unicode="&#x170;" horiz-adv-x="823" 
d="M84 700h69v-394q0 -130 61.5 -188.5t196.5 -58.5q136 0 197 58.5t61 188.5v394h69v-400q0 -161 -77.5 -234t-249.5 -73q-171 0 -249 73t-78 234v400zM310 760l-37 20l109 173l54 -30zM495 760l-37 20l109 173l54 -30z" />
    <glyph glyph-name="uhungarumlaut" unicode="&#x171;" 
d="M86 520h65v-303q0 -85 42 -123.5t132 -38.5q100 0 144.5 48.5t44.5 156.5v260h66v-520h-66v90q-51 -97 -205 -97q-116 0 -169.5 53.5t-53.5 170.5v303zM195 617l109 173l54 -30l-126 -164zM417 596l-37 21l109 173l54 -30z" />
    <glyph glyph-name="Uogonek" unicode="&#x172;" horiz-adv-x="823" 
d="M84 700h69v-394q0 -130 61.5 -188.5t196.5 -58.5q136 0 197 58.5t61 188.5v394h69v-400q0 -147 -64 -220t-204 -84q-44 -48 -44 -93q0 -44 38 -44q15 0 30 6.5t22 13.5l7 7l16 -29l-11 -11t-30.5 -18t-49.5 -11q-68 0 -68 70q0 61 45 106q-175 0 -258 68.5t-83 238.5v400
z" />
    <glyph glyph-name="uogonek" unicode="&#x173;" 
d="M86 520h65v-303q0 -85 42 -123.5t132 -38.5q100 0 144.5 48.5t44.5 156.5v260h66v-520h-8l-13.5 -13.5t-22 -34t-13.5 -49.5q0 -44 38 -44q15 0 30 6.5t22 13.5l7 7l16 -29l-11 -11t-30.5 -18t-49.5 -11q-68 0 -68 70q0 32 13 60t26 41l13 12h-15v90q-51 -97 -205 -97
q-116 0 -169.5 53.5t-53.5 170.5v303z" />
    <glyph glyph-name="Wcircumflex" unicode="&#x174;" horiz-adv-x="1178" 
d="M28 700h71l228 -620l225 620h74l225 -620l227 620h72l-258 -700h-82l-221 605l-221 -605h-82zM416 794l173 124l172 -124l-26 -34l-146 94l-147 -94z" />
    <glyph glyph-name="wcircumflex" unicode="&#x175;" horiz-adv-x="860" 
d="M26 520h69l148 -443l154 443h65l153 -438l150 438h68l-181 -520h-73l-149 427l-149 -427h-73zM258 630l172 124l173 -124l-26 -34l-147 95l-146 -95z" />
    <glyph glyph-name="Ycircumflex" unicode="&#x176;" horiz-adv-x="774" 
d="M353 290l-325 410h83l276 -343l275 343h84l-325 -410v-290h-68v290zM215 794l172 124l172 -124l-25 -34l-147 94l-147 -94z" />
    <glyph glyph-name="ycircumflex" unicode="&#x177;" horiz-adv-x="575" 
d="M252 0l-226 520h71l190 -435l191 435h71l-335 -770h-71zM115 630l173 124l172 -124l-26 -34l-146 95l-147 -95z" />
    <glyph glyph-name="Ydieresis" unicode="&#x178;" horiz-adv-x="774" 
d="M28 700h83l276 -343l275 343h84l-325 -410v-290h-68v290zM287 864q48 0 48 -48q0 -46 -48 -46q-25 0 -36 10.5t-11 35.5q0 48 47 48zM486 864q48 0 48 -48q0 -46 -48 -46q-25 0 -36 10.5t-11 35.5t11 36.5t36 11.5z" />
    <glyph glyph-name="Zacute" unicode="&#x179;" horiz-adv-x="679" 
d="M638 0h-597v62l500 573h-490v65h582v-62l-499 -573h504v-65zM310 770l-26 34l173 127l38 -48z" />
    <glyph glyph-name="zacute" unicode="&#x17a;" horiz-adv-x="538" 
d="M45 458v62h446v-48l-352 -410h355v-62h-449v48l351 410h-351zM214 640l172 128l38 -49l-184 -113z" />
    <glyph glyph-name="Zdotaccent" unicode="&#x17b;" horiz-adv-x="679" 
d="M638 0h-597v62l500 573h-490v65h582v-62l-499 -573h504v-65zM339 871q51 0 51 -51q0 -27 -12 -38.5t-39 -11.5t-38.5 11.5t-11.5 38.5t11.5 39t38.5 12z" />
    <glyph glyph-name="zdotaccent" unicode="&#x17c;" horiz-adv-x="538" 
d="M45 0v48l351 410h-351v62h446v-48l-352 -410h355v-62h-449zM269 707q51 0 51 -51q0 -27 -12 -38.5t-39 -11.5t-38.5 11.5t-11.5 38.5t11.5 39t38.5 12z" />
    <glyph glyph-name="Zcaron" unicode="&#x17d;" horiz-adv-x="679" 
d="M638 0h-597v62l500 573h-490v65h582v-62l-499 -573h504v-65zM340 760l-172 124l25 34l147 -95l147 95l25 -34z" />
    <glyph glyph-name="zcaron" unicode="&#x17e;" horiz-adv-x="538" 
d="M45 0v48l351 410h-351v62h446v-48l-352 -410h355v-62h-449zM97 720l26 34l147 -94l146 94l26 -34l-172 -124z" />
    <glyph glyph-name="uni018F" unicode="&#x18f;" horiz-adv-x="846" 
d="M66 350q0 19 1 28h642q-5 139 -75 201t-211 62q-65 0 -114 -11.5t-91.5 -46.5t-62.5 -93h-74q15 63 47.5 107t79 67t98.5 33t117 10q187 0 272 -85t85 -272t-85 -272t-272 -85t-272 85t-85 272zM138 316q7 -136 76.5 -196.5t208.5 -60.5t208.5 60.5t76.5 196.5h-570z" />
    <glyph glyph-name="florin" unicode="&#x192;" horiz-adv-x="405" 
d="M-107 -250h-45l11 62h43q71 0 109.5 35t51.5 113l88 498h-100l12 62h99l4 23q20 111 76 160.5t160 49.5h45l-11 -62h-42q-71 0 -110 -35t-52 -113l-4 -23h174l-11 -62h-174l-88 -498q-19 -110 -75.5 -160t-160.5 -50z" />
    <glyph glyph-name="uni01DD" unicode="&#x1dd;" horiz-adv-x="634" 
d="M315 -7q-138 0 -198.5 64t-60.5 203q0 12 1 18h454q-3 98 -50 144t-146 46q-142 0 -179 -98h-68q22 87 85.5 122t161.5 35q139 0 201 -63.5t62 -203.5q0 -139 -62 -203t-201 -64zM122 227q6 -93 52 -134t141 -41q94 0 141.5 41t54.5 134h-389z" />
    <glyph glyph-name="Aringacute" unicode="&#x1fa;" horiz-adv-x="804" 
d="M28 0l326 686q-54 19 -54 96q0 53 24.5 77.5t77.5 24.5q48 0 74 -21l145 108l38 -49l-160 -98q5 -15 5 -42q0 -77 -55 -96l327 -686h-74l-81 170h-439l-80 -170h-74zM402 631l-188 -396l376 1zM402 724q58 0 58 58t-58 58t-58 -58t58 -58z" />
    <glyph glyph-name="aringacute" unicode="&#x1fb;" horiz-adv-x="649" 
d="M69 144q0 82 55 117.5t178 35.5h196v15q0 82 -42.5 119t-136.5 37q-76 0 -116.5 -24.5t-54.5 -77.5h-66q17 84 73.5 122.5t166.5 38.5q126 0 183.5 -51t57.5 -163v-313h-65v88q-57 -95 -225 -95q-105 0 -154.5 36t-49.5 115zM316 246q-95 0 -138 -24t-43 -76
q0 -50 36.5 -72t114.5 -22q103 0 152.5 38t59.5 123v33h-182zM214 678q0 53 25 78t78 25q46 0 72 -20l147 108l38 -48l-161 -99q6 -18 6 -44q0 -52 -24.5 -77t-77.5 -25t-78 24.5t-25 77.5zM258 678q0 -58 59 -58q58 0 58 58t-58 58q-59 0 -59 -58z" />
    <glyph glyph-name="AEacute" unicode="&#x1fc;" horiz-adv-x="1191" 
d="M109 0h-81l509 700h580v-65h-472v-254h422v-62h-422v-254h472v-65h-541v170h-344zM576 643l-296 -408l296 1v407zM580 770l-26 34l173 127l38 -48z" />
    <glyph glyph-name="aeacute" unicode="&#x1fd;" horiz-adv-x="1075" 
d="M273 -7q-105 0 -154.5 36t-49.5 115q0 82 55 117.5t178 35.5h198q5 87 -37 129t-144 42q-76 0 -116.5 -24.5t-54.5 -77.5h-66q17 84 73.5 122.5t166.5 38.5q176 0 215 -109q52 109 223 109q138 0 198.5 -63.5t60.5 -201.5v-20h-455q4 -99 51.5 -144.5t146.5 -45.5
q141 0 177 99h68q-21 -88 -84 -123t-161 -35q-104 0 -163 35t-82 109q-22 -75 -80.5 -109.5t-163.5 -34.5zM135 146q0 -50 37 -72t115 -22q110 0 159.5 44.5t53.5 149.5h-184q-95 0 -138 -24t-43 -76zM565 293h389q-7 93 -53 134t-140 41q-95 0 -142.5 -41t-53.5 -134z
M515 606l-26 34l172 128l38 -49z" />
    <glyph glyph-name="Oslashacute" unicode="&#x1fe;" horiz-adv-x="846" 
d="M423 707q96 0 168 -23l21 36h52l-31 -53q147 -76 147 -317q0 -187 -85 -272t-272 -85q-97 0 -168 23l-21 -36h-52l31 53q-147 76 -147 317q0 188 85 272.5t272 84.5zM135 350q0 -194 113 -256l308 529q-51 18 -133 18q-151 0 -219.5 -69t-68.5 -222zM423 59
q151 0 219.5 69t68.5 222q0 193 -114 256l-307 -529q51 -18 133 -18zM393 770l-26 34l173 127l38 -48z" />
    <glyph glyph-name="oslashacute" unicode="&#x1ff;" horiz-adv-x="639" 
d="M56 260q0 140 62.5 203.5t201.5 63.5q69 0 123 -17l15 27h43l-24 -42q106 -55 106 -235q0 -140 -62.5 -203.5t-200.5 -63.5q-72 0 -123 18l-17 -30h-43l26 44q-107 55 -107 235zM121 260q0 -132 76 -176l212 368q-35 13 -89 13q-104 0 -151.5 -48.5t-47.5 -156.5zM230 68
q36 -13 90 -13q104 0 151 49t47 156q0 132 -75 175zM264 640l172 128l38 -49l-184 -113z" />
    <glyph glyph-name="uni0218" unicode="&#x218;" horiz-adv-x="710" 
d="M362 -7q-141 0 -215 46t-96 148h72q20 -67 79 -97.5t168 -30.5q221 0 221 124q0 58 -54.5 90t-192.5 53q-158 25 -220.5 67t-62.5 124q0 189 286 189q137 0 209 -45.5t91 -147.5h-72q-18 67 -74 97.5t-159 30.5q-213 0 -213 -119q0 -53 51 -81.5t179 -48.5
q169 -29 234.5 -73t65.5 -130q0 -196 -297 -196zM337 -295v27q34 0 49.5 27t15.5 85v4q-28 0 -39.5 8t-11.5 35q0 22 10 32t33 10q43 0 43 -42v-42q0 -75 -24 -109.5t-76 -34.5z" />
    <glyph glyph-name="uni0219" unicode="&#x219;" horiz-adv-x="584" 
d="M56 151h65q16 -52 59 -75.5t122 -23.5q82 0 122 23t40 62q0 37 -40 58.5t-133 35.5q-123 19 -173 53.5t-50 99.5q0 143 215 143q108 0 164 -37.5t72 -119.5h-65q-15 51 -56 74.5t-116 23.5q-76 0 -113.5 -22t-37.5 -60q0 -36 39.5 -57t131.5 -37q127 -20 176.5 -53
t49.5 -97q0 -149 -227 -149q-111 0 -170 38t-75 120zM263 -295v27q34 0 50 27t16 85v4q-28 0 -39.5 8t-11.5 35q0 42 42 42q44 0 44 -42v-42q0 -75 -24 -109.5t-77 -34.5z" />
    <glyph glyph-name="uni021A" unicode="&#x21a;" horiz-adv-x="763" 
d="M32 635v65h699v-65h-315v-635h-69v635h-315zM333 -295v27q34 0 49.5 27t15.5 85v4q-28 0 -39.5 8t-11.5 35q0 22 10 32t33 10q43 0 43 -42v-42q0 -75 -24 -109.5t-76 -34.5z" />
    <glyph glyph-name="uni021B" unicode="&#x21b;" horiz-adv-x="419" 
d="M35 458v62h96v116h65v-116h171v-62h-171v-286q0 -58 28 -84t91 -26h56v-62h-57q-97 0 -140 39.5t-43 126.5v292h-96zM178 -268q34 0 50 27t16 85v4q-28 0 -39.5 8t-11.5 35q0 42 42 42q43 0 43 -42v-42q0 -75 -23.5 -109.5t-76.5 -34.5v27z" />
    <glyph glyph-name="uni0237" unicode="&#x237;" horiz-adv-x="239" 
d="M-46 -250v62h32q54 0 78.5 26t24.5 84v598h66v-597q0 -91 -39.5 -132t-126.5 -41h-35z" />
    <glyph glyph-name="uni0259" unicode="&#x259;" horiz-adv-x="634" 
d="M315 -7q-138 0 -198.5 64t-60.5 203q0 12 1 18h454q-3 98 -50 144t-146 46q-142 0 -179 -98h-68q22 87 85.5 122t161.5 35q139 0 201 -63.5t62 -203.5q0 -139 -62 -203t-201 -64zM122 227q6 -93 52 -134t141 -41q94 0 141.5 41t54.5 134h-389z" />
    <glyph glyph-name="circumflex" unicode="&#x2c6;" horiz-adv-x="470" 
d="M88 700l-25 34l172 124l172 -124l-25 -34l-147 95z" />
    <glyph glyph-name="caron" unicode="&#x2c7;" horiz-adv-x="470" 
d="M235 700l-172 124l25 34l147 -95l147 95l25 -34z" />
    <glyph glyph-name="breve" unicode="&#x2d8;" horiz-adv-x="440" 
d="M63 847h55q0 -52 24 -75.5t78 -23.5t78.5 23.5t24.5 75.5h55q0 -76 -37.5 -111.5t-120.5 -35.5q-82 0 -119.5 35.5t-37.5 111.5z" />
    <glyph glyph-name="dotaccent" unicode="&#x2d9;" horiz-adv-x="226" 
d="M63 750q0 27 11.5 39t38.5 12q51 0 51 -51q0 -27 -12 -38.5t-39 -11.5t-38.5 11.5t-11.5 38.5z" />
    <glyph glyph-name="ring" unicode="&#x2da;" horiz-adv-x="330" 
d="M165 905q53 0 77.5 -25t24.5 -78t-24.5 -77.5t-77.5 -24.5t-77.5 24.5t-24.5 77.5t24.5 78t77.5 25zM106 802q0 -58 59 -58q58 0 58 58t-58 58q-59 0 -59 -58z" />
    <glyph glyph-name="ogonek" unicode="&#x2db;" horiz-adv-x="280" 
d="M58 -113q0 32 13 60t26 41l13 12h43l-13.5 -13.5t-22 -34t-13.5 -49.5q0 -44 38 -44q15 0 30 6.5t22 13.5l7 7l16 -29l-11 -11t-30.5 -18t-49.5 -11q-68 0 -68 70z" />
    <glyph glyph-name="tilde" unicode="&#x2dc;" horiz-adv-x="440" 
d="M63 700q0 105 81 105q37 0 82 -30.5t65 -30.5q39 0 39 56h47q0 -105 -79 -105q-37 0 -82.5 30t-65.5 30q-41 0 -41 -55h-46z" />
    <glyph glyph-name="hungarumlaut" unicode="&#x2dd;" horiz-adv-x="473" 
d="M63 721l108 173l55 -30l-127 -164zM247 721l109 173l55 -30l-127 -164z" />
    <glyph glyph-name="uni0326" unicode="&#x326;" horiz-adv-x="202" 
d="M112 -156v4q-28 0 -39.5 8t-11.5 35q0 42 42 42q43 0 43 -42v-42q0 -75 -23.5 -109.5t-76.5 -34.5v27q34 0 50 27t16 85z" />
    <glyph glyph-name="uni037E" unicode="&#x37e;" horiz-adv-x="236" 
d="M55 -172v34q40 0 58 30.5t18 97.5v4q-3 -1 -9 -1q-29 0 -41.5 13t-12.5 42t12.5 42t41.5 13q55 0 55 -55v-51q0 -89 -29 -129t-93 -40zM118 526q55 0 55 -55q0 -29 -13 -41.5t-42 -12.5t-42 12.5t-13 41.5t13 42t42 13z" />
    <glyph glyph-name="tonos" unicode="&#x384;" horiz-adv-x="305" 
d="M63 717l126 194l54 -29l-144 -186z" />
    <glyph glyph-name="dieresistonos" unicode="&#x385;" horiz-adv-x="458" 
d="M233 741l-37 14l78 179l54 -19zM351 706q-24 0 -34.5 10.5t-10.5 33.5q0 45 45 45t45 -45q0 -44 -45 -44zM107 706q-24 0 -34 10.5t-10 33.5q0 24 10 34.5t34 10.5q45 0 45 -45q0 -44 -45 -44z" />
    <glyph glyph-name="Alphatonos" unicode="&#x386;" horiz-adv-x="804" 
d="M28 0l333 700h82l333 -700h-74l-81 170h-439l-80 -170h-74zM402 631l-188 -396l376 1zM75 491l85 216l59 -19l-104 -210z" />
    <glyph glyph-name="anoteleia" unicode="&#x387;" horiz-adv-x="236" 
d="M63 350q0 29 13 42t42 13q55 0 55 -55q0 -29 -13 -41.5t-42 -12.5t-42 12.5t-13 41.5z" />
    <glyph glyph-name="Epsilontonos" unicode="&#x388;" horiz-adv-x="740" 
d="M99 0v700h567v-65h-498v-254h448v-62h-448v-254h498v-65h-567zM-105 491l84 216l59 -19l-104 -210z" />
    <glyph glyph-name="Etatonos" unicode="&#x389;" horiz-adv-x="861" 
d="M99 0v700h69v-317h525v317h69v-700h-69v317h-525v-317h-69zM-66 478l-39 13l84 216l59 -19z" />
    <glyph glyph-name="Iotatonos" unicode="&#x38a;" horiz-adv-x="267" 
d="M99 0v700h69v-700h-69zM-66 478l-39 13l84 216l59 -19z" />
    <glyph glyph-name="Omicrontonos" unicode="&#x38c;" horiz-adv-x="846" 
d="M423 707q187 0 272 -85t85 -272t-85 -272t-272 -85t-272 85t-85 272q0 188 85 272.5t272 84.5zM135 350q0 -153 68.5 -222t219.5 -69t219.5 69t68.5 222t-68.5 222t-219.5 69t-219.5 -69t-68.5 -222zM-88 491l84 216l59 -19l-104 -210z" />
    <glyph glyph-name="Upsilontonos" unicode="&#x38e;" horiz-adv-x="774" 
d="M353 290l-325 410h83l276 -343l275 343h84l-325 -410v-290h-68v290zM-129 478l-39 13l85 216l59 -19z" />
    <glyph glyph-name="Omegatonos" unicode="&#x38f;" horiz-adv-x="846" 
d="M53 65h155q-142 68 -142 294q0 183 84.5 265.5t272.5 82.5q187 0 272 -82.5t85 -265.5q0 -225 -142 -294h155v-65h-288v60q9 1 23 5q95 22 139 90.5t44 192.5q0 154 -68.5 223.5t-219.5 69.5t-219.5 -69.5t-68.5 -223.5q0 -124 44 -192.5t139 -90.5q11 -4 22 -5v-60h-287
v65zM-88 491l84 216l59 -19l-104 -210z" />
    <glyph glyph-name="iotadieresistonos" unicode="&#x390;" horiz-adv-x="234" 
d="M85 520h65v-520h-65v520zM119 640l-37 14l78 180l54 -20zM237 694q45 0 45 -44q0 -24 -10.5 -34t-34.5 -10t-34 10t-10 34q0 23 10 33.5t34 10.5zM-7 694q45 0 45 -44q0 -24 -10.5 -34t-34.5 -10t-34 10t-10 34q0 23 10 33.5t34 10.5z" />
    <glyph glyph-name="Alpha" unicode="&#x391;" horiz-adv-x="804" 
d="M102 0h-74l333 700h82l333 -700h-74l-81 170h-439zM402 631l-188 -396l376 1z" />
    <glyph glyph-name="Beta" unicode="&#x392;" horiz-adv-x="775" 
d="M500 0h-401v700h375q112 0 162.5 -42.5t50.5 -135.5q0 -64 -20.5 -102.5t-66.5 -57.5q114 -32 114 -175q0 -98 -51 -142.5t-163 -44.5zM500 327h-332v-262h332q78 0 113.5 31.5t35.5 100.5q0 68 -35.5 99t-113.5 31zM168 389h304q84 0 117 28.5t33 94.5q0 64 -35.5 93.5
t-112.5 29.5h-306v-246z" />
    <glyph glyph-name="Gamma" unicode="&#x393;" horiz-adv-x="629" 
d="M99 0v700h499v-65h-430v-635h-69z" />
    <glyph glyph-name="uni0394" unicode="&#x394;" horiz-adv-x="804" 
d="M28 0l333 700h82l333 -700h-748zM133 65h538l-269 566z" />
    <glyph glyph-name="Epsilon" unicode="&#x395;" horiz-adv-x="740" 
d="M666 0h-567v700h567v-65h-498v-254h448v-62h-448v-254h498v-65z" />
    <glyph glyph-name="Zeta" unicode="&#x396;" horiz-adv-x="679" 
d="M638 0h-597v62l500 573h-490v65h582v-62l-499 -573h504v-65z" />
    <glyph glyph-name="Eta" unicode="&#x397;" horiz-adv-x="861" 
d="M99 0v700h69v-317h525v317h69v-700h-69v317h-525v-317h-69z" />
    <glyph glyph-name="Theta" unicode="&#x398;" horiz-adv-x="846" 
d="M66 350q0 188 85 272.5t272 84.5t272 -85t85 -272t-85 -272t-272 -85t-272 85t-85 272zM423 59q151 0 219.5 69t68.5 222t-68.5 222t-219.5 69t-219.5 -69t-68.5 -222t68.5 -222t219.5 -69zM631 319h-416v62h416v-62z" />
    <glyph glyph-name="Iota" unicode="&#x399;" horiz-adv-x="267" 
d="M99 0v700h69v-700h-69z" />
    <glyph glyph-name="Kappa" unicode="&#x39a;" horiz-adv-x="727" 
d="M99 0v700h69v-310h152l274 310h86l-303 -341l325 -359h-88l-294 325h-152v-325h-69z" />
    <glyph glyph-name="Lambda" unicode="&#x39b;" horiz-adv-x="804" 
d="M28 0l333 700h82l333 -700h-74l-300 631l-300 -631h-74z" />
    <glyph glyph-name="Mu" unicode="&#x39c;" horiz-adv-x="1017" 
d="M99 0v700h111l299 -627l298 627h111v-700h-69v635l-299 -635h-82l-300 635v-635h-69z" />
    <glyph glyph-name="Nu" unicode="&#x39d;" horiz-adv-x="856" 
d="M99 700h69l520 -600v600h69v-700h-69l-520 600v-600h-69v700z" />
    <glyph glyph-name="Xi" unicode="&#x39e;" horiz-adv-x="734" 
d="M659 635h-585v65h585v-65zM659 0h-585v65h585v-65zM124 381h485v-62h-485v62z" />
    <glyph glyph-name="Omicron" unicode="&#x39f;" horiz-adv-x="846" 
d="M423 707q187 0 272 -85t85 -272t-85 -272t-272 -85t-272 85t-85 272q0 188 85 272.5t272 84.5zM135 350q0 -153 68.5 -222t219.5 -69t219.5 69t68.5 222t-68.5 222t-219.5 69t-219.5 -69t-68.5 -222z" />
    <glyph glyph-name="Pi" unicode="&#x3a0;" horiz-adv-x="846" 
d="M99 0v700h648v-700h-69v635h-510v-635h-69z" />
    <glyph glyph-name="Rho" unicode="&#x3a1;" horiz-adv-x="720" 
d="M99 0v700h341q123 0 178.5 -51t55.5 -163t-55.5 -163t-178.5 -51h-272v-272h-69zM437 635h-269v-297h269q88 0 128 35t40 113t-40 113.5t-128 35.5z" />
    <glyph glyph-name="Sigma" unicode="&#x3a3;" horiz-adv-x="684" 
d="M645 0h-594v62l286 288l-286 288v62h579v-63h-490l288 -287l-288 -287h505v-63z" />
    <glyph glyph-name="Tau" unicode="&#x3a4;" horiz-adv-x="763" 
d="M731 635h-315v-635h-69v635h-315v65h699v-65z" />
    <glyph glyph-name="Upsilon" unicode="&#x3a5;" horiz-adv-x="774" 
d="M353 290l-325 410h83l276 -343l275 343h84l-325 -410v-290h-68v290z" />
    <glyph glyph-name="Phi" unicode="&#x3a6;" horiz-adv-x="927" 
d="M66 349q0 139 86 202t277 63v93h69v-93q191 0 277 -62.5t86 -202.5t-86 -203t-277 -63v-90h-69v90q-190 0 -276.5 63t-86.5 203zM498 550v-404q155 2 225 50t70 154q0 105 -70 152.5t-225 47.5zM429 550q-154 -2 -224 -49.5t-70 -152.5t70 -153.5t224 -48.5v404z" />
    <glyph glyph-name="Chi" unicode="&#x3a7;" horiz-adv-x="738" 
d="M111 0h-86l301 357l-289 343h85l247 -292l247 292h86l-290 -343l302 -357h-86l-259 306z" />
    <glyph glyph-name="Psi" unicode="&#x3a8;" horiz-adv-x="903" 
d="M77 700h69v-266q0 -93 65 -138.5t206 -49.5v454h69v-454q142 4 206.5 49.5t64.5 138.5v266h69v-270q0 -126 -80.5 -185.5t-259.5 -64.5v-180h-69v180q-177 5 -258.5 65t-81.5 185v270z" />
    <glyph glyph-name="uni03A9" unicode="&#x3a9;" horiz-adv-x="846" 
d="M340 0h-287v65h155q-142 68 -142 294q0 183 84.5 265.5t272.5 82.5q187 0 272 -82.5t85 -265.5q0 -225 -142 -294h155v-65h-288v60q9 1 23 5q95 22 139 90.5t44 192.5q0 154 -68.5 223.5t-219.5 69.5t-219.5 -69.5t-68.5 -223.5q0 -124 44 -192.5t139 -90.5q11 -4 22 -5
v-60z" />
    <glyph glyph-name="Iotadieresis" unicode="&#x3aa;" horiz-adv-x="267" 
d="M168 0h-69v700h69v-700zM-13 816q0 25 11 36.5t36 11.5q48 0 48 -48q0 -46 -48 -46q-25 0 -36 10.5t-11 35.5zM233 864q47 0 47 -48q0 -25 -11 -35.5t-36 -10.5t-36 10.5t-11 35.5t11 36.5t36 11.5z" />
    <glyph glyph-name="Upsilondieresis" unicode="&#x3ab;" horiz-adv-x="774" 
d="M28 700h83l276 -343l275 343h84l-325 -410v-290h-68v290zM287 864q48 0 48 -48q0 -46 -48 -46q-25 0 -36 10.5t-11 35.5q0 48 47 48zM486 864q48 0 48 -48q0 -46 -48 -46q-25 0 -36 10.5t-11 35.5t11 36.5t36 11.5z" />
    <glyph glyph-name="alphatonos" unicode="&#x3ac;" 
d="M302 527q160 0 212 -100v93h66v-520h-66v93q-52 -100 -212 -100q-129 0 -187.5 63.5t-58.5 203.5t58.5 203.5t187.5 63.5zM121 260q0 -107 46.5 -156t149.5 -49t149 49t46 156q0 108 -46 156.5t-149 48.5t-149.5 -48.5t-46.5 -156.5zM316 596l-36 20l126 195l54 -30z" />
    <glyph glyph-name="epsilontonos" unicode="&#x3ad;" horiz-adv-x="580" 
d="M59 144q0 95 84 123q-84 26 -84 116q0 75 53.5 109.5t169.5 34.5t171.5 -35.5t70.5 -115.5h-67q-13 49 -52 70.5t-120 21.5q-83 0 -121.5 -22t-38.5 -70q0 -43 30.5 -63.5t100.5 -20.5h122v-51h-126q-68 0 -97.5 -21t-29.5 -67q0 -53 38.5 -77t122.5 -24q79 0 117.5 21.5
t51.5 70.5h67q-15 -80 -69.5 -115.5t-169.5 -35.5q-116 0 -170 36t-54 115zM281 596l-37 20l127 195l54 -30z" />
    <glyph glyph-name="etatonos" unicode="&#x3ae;" horiz-adv-x="673" 
d="M89 0v520h66v-91q51 98 208 98q117 0 170.5 -53.5t53.5 -170.5v-303h-65v303q0 85 -42 123.5t-133 38.5q-102 0 -147 -48.5t-45 -156.5v-260h-66zM343 596l-36 20l126 195l54 -30z" />
    <glyph glyph-name="iotatonos" unicode="&#x3af;" horiz-adv-x="234" 
d="M85 0v520h65v-520h-65zM86 616l126 195l54 -30l-144 -185z" />
    <glyph glyph-name="upsilondieresistonos" unicode="&#x3b0;" horiz-adv-x="665" 
d="M333 -7q-130 0 -188.5 57t-58.5 184v286h65v-283q0 -95 43.5 -138.5t138.5 -43.5t138 43.5t43 138.5v283h66v-286q0 -127 -58.5 -184t-188.5 -57zM335 651l-37 14l78 179l54 -19zM453 616q-24 0 -34.5 10.5t-10.5 33.5q0 45 45 45t45 -45q0 -44 -45 -44zM165 660
q0 24 10 34.5t34 10.5q45 0 45 -45q0 -44 -45 -44q-24 0 -34 10.5t-10 33.5z" />
    <glyph glyph-name="alpha" unicode="&#x3b1;" 
d="M56 260q0 140 58.5 203.5t187.5 63.5q160 0 212 -100v93h66v-520h-66v93q-52 -100 -212 -100q-129 0 -187.5 63.5t-58.5 203.5zM317 55q103 0 149 49t46 156q0 108 -46 156.5t-149 48.5t-149.5 -48.5t-46.5 -156.5q0 -107 46.5 -156t149.5 -49z" />
    <glyph glyph-name="beta" unicode="&#x3b2;" horiz-adv-x="646" 
d="M89 -157v683q0 122 55 176.5t179 54.5q111 0 161.5 -44t50.5 -142q0 -115 -70 -152q63 -16 92 -64t29 -134q0 -117 -54.5 -172.5t-172.5 -55.5q-153 0 -204 97v-247h-66zM343 55q93 0 135.5 42t42.5 133q0 83 -34 119.5t-110 36.5h-112v51h75q69 0 99.5 30t30.5 95
q0 71 -35.5 102t-113.5 31q-88 0 -127 -40t-39 -129v-266q0 -108 44 -156.5t144 -48.5z" />
    <glyph glyph-name="gamma" unicode="&#x3b3;" horiz-adv-x="582" 
d="M26 520h71l194 -456l195 456h70l-232 -530v-240h-66v240z" />
    <glyph glyph-name="delta" unicode="&#x3b4;" horiz-adv-x="639" 
d="M56 258q0 139 61 202t195 63q81 0 122 -30q-34 43 -81.5 79t-91 56.5t-82.5 35t-63 20.5l-23 5v61h443v-55h-329q8 -2 21.5 -6.5t52.5 -21t74.5 -37.5t79 -57.5t74.5 -79t52.5 -103.5t21.5 -130q0 -140 -62.5 -203.5t-200.5 -63.5q-139 0 -201.5 63t-62.5 202zM121 262
q0 -108 47.5 -157.5t151.5 -49.5q103 0 150.5 49.5t47.5 157.5t-47 157t-151 49t-151.5 -48.5t-47.5 -157.5z" />
    <glyph glyph-name="epsilon" unicode="&#x3b5;" horiz-adv-x="580" 
d="M59 144q0 95 84 123q-84 26 -84 116q0 75 53.5 109.5t169.5 34.5t171.5 -35.5t70.5 -115.5h-67q-13 49 -52 70.5t-120 21.5q-83 0 -121.5 -22t-38.5 -70q0 -43 30.5 -63.5t100.5 -20.5h122v-51h-126q-68 0 -97.5 -21t-29.5 -67q0 -53 38.5 -77t122.5 -24q79 0 117.5 21.5
t51.5 70.5h67q-15 -80 -69.5 -115.5t-169.5 -35.5q-116 0 -170 36t-54 115z" />
    <glyph glyph-name="zeta" unicode="&#x3b6;" horiz-adv-x="519" 
d="M51 750h440v-48l-67 -77q-27 -32 -89.5 -99.5t-99.5 -110t-69.5 -93t-32.5 -81.5q0 -50 35 -86t85 -55.5t100 -35.5t85 -38t35 -51q0 -43 -62 -152l-51 27q45 83 45 104q0 18 -25 33t-63 25.5t-81.5 28.5t-81.5 40.5t-63 64t-25 95.5q0 28 17.5 64.5t55 85.5t66 82
t83 93.5t72.5 80.5l37 41h-346v62z" />
    <glyph glyph-name="eta" unicode="&#x3b7;" horiz-adv-x="673" 
d="M89 0v520h66v-91q51 98 208 98q117 0 170.5 -53.5t53.5 -170.5v-303h-65v303q0 85 -42 123.5t-133 38.5q-102 0 -147 -48.5t-45 -156.5v-260h-66z" />
    <glyph glyph-name="theta" unicode="&#x3b8;" horiz-adv-x="616" 
d="M56 375q0 200 60 291t192 91q133 0 192.5 -90.5t59.5 -291.5t-59.5 -291.5t-192.5 -90.5q-132 0 -192 90.5t-60 291.5zM494 351h-372q3 -154 47.5 -225t138.5 -71t138.5 70.5t47.5 225.5zM122 413h372q-4 148 -48.5 215t-137.5 67t-137.5 -67t-48.5 -215z" />
    <glyph glyph-name="iota" unicode="&#x3b9;" horiz-adv-x="234" 
d="M85 0v520h65v-520h-65z" />
    <glyph glyph-name="kappa" unicode="&#x3ba;" horiz-adv-x="592" 
d="M155 0h-66v520h66v-224h118l190 224h82l-218 -254l229 -266h-82l-202 234h-117v-234z" />
    <glyph glyph-name="lambda" unicode="&#x3bb;" horiz-adv-x="575" 
d="M97 0h-71l226 500l-109 250h71l335 -750h-71l-189 421z" />
    <glyph glyph-name="uni03BC" unicode="&#x3bc;" 
d="M86 -250v770h65v-303q0 -85 42 -123.5t132 -38.5q100 0 144.5 48.5t44.5 156.5v260h66v-520h-66v90q-51 -97 -205 -97q-109 0 -163 47l5 -290h-65z" />
    <glyph glyph-name="nu" unicode="&#x3bd;" horiz-adv-x="582" 
d="M26 520h71l194 -451l195 451h70l-228 -520h-74z" />
    <glyph glyph-name="xi" unicode="&#x3be;" horiz-adv-x="571" 
d="M160 411q-82 37 -82 158q0 99 51.5 143.5t167.5 44.5q123 0 179.5 -50.5t56.5 -161.5l-65 1q0 78 -40.5 113.5t-129.5 35.5q-83 0 -119 -31.5t-36 -103.5q0 -66 32.5 -96t106.5 -30h126v-52h-145q-69 0 -100 -32.5t-31 -105.5q0 -51 39 -86.5t95 -54t112.5 -34
t95.5 -39.5t39 -59q0 -33 -62 -148l-50 27l11.5 23t15.5 31.5t11.5 28t5.5 24.5q0 22 -39 38t-94.5 31t-111.5 36.5t-95 66.5t-39 110q0 139 94 172z" />
    <glyph glyph-name="omicron" unicode="&#x3bf;" horiz-adv-x="639" 
d="M320 527q138 0 200.5 -63.5t62.5 -203.5t-62.5 -203.5t-200.5 -63.5q-139 0 -201.5 63.5t-62.5 203.5t62.5 203.5t201.5 63.5zM121 260q0 -107 47.5 -156t151.5 -49t151 49t47 156q0 108 -47 156.5t-151 48.5t-151.5 -48.5t-47.5 -156.5z" />
    <glyph glyph-name="pi" unicode="&#x3c0;" horiz-adv-x="670" 
d="M89 0v520h492v-520h-66v458h-360v-458h-66z" />
    <glyph glyph-name="rho" unicode="&#x3c1;" 
d="M89 -250v510q0 140 63 203.5t200 63.5t199 -63.5t62 -203.5t-58.5 -203.5t-187.5 -63.5q-160 0 -212 100v-343h-66zM352 55q103 0 149 48.5t46 156.5q0 107 -46 156t-149 49t-149 -49t-46 -156q0 -108 46 -156.5t149 -48.5z" />
    <glyph glyph-name="uni03C2" unicode="&#x3c2;" horiz-adv-x="605" 
d="M56 260q0 140 61 203.5t197 63.5q114 0 173.5 -44t76.5 -140h-65q-16 64 -59.5 93t-123.5 29q-102 0 -148.5 -48.5t-46.5 -156.5q0 -44 28.5 -77t70.5 -51t92 -34.5t92 -28.5t70.5 -33t28.5 -48q0 -47 -62 -165l-51 27q45 101 45 118q0 18 -21 32t-54.5 24.5t-73.5 21.5
t-80.5 28t-74 39.5t-54.5 60.5t-21 86z" />
    <glyph glyph-name="sigma" unicode="&#x3c3;" horiz-adv-x="653" 
d="M56 259q0 138 62.5 199.5t201.5 61.5h293v-62h-118q88 -56 88 -211q0 -133 -62.5 -193.5t-200.5 -60.5q-139 0 -201.5 63t-62.5 203zM121 257q0 -106 47.5 -154t151.5 -48t151 48t47 154t-47 153.5t-151 47.5t-151.5 -47.5t-47.5 -153.5z" />
    <glyph glyph-name="tau" unicode="&#x3c4;" horiz-adv-x="526" 
d="M30 458v62h456v-62h-205v-286q0 -58 28 -84t91 -26h25v-62h-27q-96 0 -139.5 39.5t-43.5 126.5v292h-185z" />
    <glyph glyph-name="upsilon" unicode="&#x3c5;" horiz-adv-x="665" 
d="M86 234v286h65v-283q0 -95 43.5 -138.5t138.5 -43.5t138 43.5t43 138.5v283h66v-286q0 -127 -58.5 -184t-188.5 -57t-188.5 57t-58.5 184z" />
    <glyph glyph-name="phi" unicode="&#x3c6;" horiz-adv-x="767" 
d="M56 260q0 124 50 186t159 72v-63q-75 -10 -109.5 -56.5t-34.5 -138.5q0 -104 45 -151t145 -47h40v458h106q133 0 193.5 -61.5t60.5 -198.5t-60.5 -198.5t-193.5 -61.5h-41v-251h-65v251h-41q-133 0 -193.5 61.5t-60.5 198.5zM416 62h40q100 0 145 47t45 151t-45 151
t-145 47h-40v-396z" />
    <glyph glyph-name="chi" unicode="&#x3c7;" horiz-adv-x="601" 
d="M36 0l223 264l-216 256h83l175 -206l174 206h83l-215 -256l222 -264h-83l-181 215l-182 -215h-83z" />
    <glyph glyph-name="psi" unicode="&#x3c8;" horiz-adv-x="830" 
d="M86 520h65v-276q0 -92 55.5 -137.5t175.5 -50.5v464h66v-464q120 4 175.5 49.5t55.5 138.5v276h65v-279q0 -124 -70.5 -183t-225.5 -64v-244h-66v244q-155 5 -225.5 64t-70.5 183v279z" />
    <glyph glyph-name="omega" unicode="&#x3c9;" horiz-adv-x="899" 
d="M56 256q0 129 56 195.5t178 75.5v-62q-87 -7 -128 -58t-41 -148q0 -101 42.5 -152.5t116.5 -51.5q59 0 98 32t39 96v158h65v-158q0 -64 39 -96t98 -32q74 0 116 51t42 153q0 97 -40.5 148t-128.5 58v62q122 -9 178.5 -75.5t56.5 -194.5q0 -133 -56 -198.5t-158 -65.5
q-139 0 -180 105q-39 -105 -180 -105q-102 0 -157.5 65.5t-55.5 197.5z" />
    <glyph glyph-name="iotadieresis" unicode="&#x3ca;" horiz-adv-x="234" 
d="M150 0h-65v520h65v-520zM-29 646q0 48 46 48q49 0 49 -48q0 -25 -11.5 -35.5t-37.5 -10.5q-25 0 -35.5 10.5t-10.5 35.5zM216 694q48 0 48 -48q0 -46 -48 -46q-25 0 -36 10.5t-11 35.5q0 48 47 48z" />
    <glyph glyph-name="upsilondieresis" unicode="&#x3cb;" horiz-adv-x="665" 
d="M86 234v286h65v-283q0 -95 43.5 -138.5t138.5 -43.5t138 43.5t43 138.5v283h66v-286q0 -127 -58.5 -184t-188.5 -57t-188.5 57t-58.5 184zM186 657q0 25 11 36t36 11q48 0 48 -47q0 -25 -11.5 -36t-36.5 -11t-36 11t-11 36zM432 610q-26 0 -36.5 11t-10.5 36t11 36t36 11
q48 0 48 -47q0 -25 -11.5 -36t-36.5 -11z" />
    <glyph glyph-name="omicrontonos" unicode="&#x3cc;" horiz-adv-x="639" 
d="M320 527q138 0 200.5 -63.5t62.5 -203.5t-62.5 -203.5t-200.5 -63.5q-139 0 -201.5 63.5t-62.5 203.5t62.5 203.5t201.5 63.5zM121 260q0 -107 47.5 -156t151.5 -49t151 49t47 156q0 108 -47 156.5t-151 48.5t-151.5 -48.5t-47.5 -156.5zM324 596l-36 20l126 195l54 -30z
" />
    <glyph glyph-name="upsilontonos" unicode="&#x3cd;" horiz-adv-x="665" 
d="M333 -7q-130 0 -188.5 57t-58.5 184v286h65v-283q0 -95 43.5 -138.5t138.5 -43.5t138 43.5t43 138.5v283h66v-286q0 -127 -58.5 -184t-188.5 -57zM338 606l-37 21l127 194l54 -29z" />
    <glyph glyph-name="omegatonos" unicode="&#x3ce;" horiz-adv-x="899" 
d="M56 256q0 129 56 195.5t178 75.5v-62q-87 -7 -128 -58t-41 -148q0 -101 42.5 -152.5t116.5 -51.5q59 0 98 32t39 96v158h65v-158q0 -64 39 -96t98 -32q74 0 116 51t42 153q0 97 -40.5 148t-128.5 58v62q122 -9 178.5 -75.5t56.5 -194.5q0 -133 -56 -198.5t-158 -65.5
q-139 0 -180 105q-39 -105 -180 -105q-102 0 -157.5 65.5t-55.5 197.5zM454 596l-36 20l126 195l54 -30z" />
    <glyph glyph-name="uni0400" unicode="&#x400;" horiz-adv-x="740" 
d="M666 0h-567v700h567v-65h-498v-254h448v-62h-448v-254h498v-65zM413 770l-185 113l38 48l172 -127z" />
    <glyph glyph-name="uni0401" unicode="&#x401;" horiz-adv-x="740" 
d="M666 0h-567v700h567v-65h-498v-254h448v-62h-448v-254h498v-65zM283 864q48 0 48 -48q0 -46 -48 -46q-25 0 -36 10.5t-11 35.5t11 36.5t36 11.5zM435 816q0 25 11 36.5t36 11.5q47 0 47 -48q0 -25 -11 -35.5t-36 -10.5t-36 10.5t-11 35.5z" />
    <glyph glyph-name="uni0402" unicode="&#x402;" horiz-adv-x="997" 
d="M32 635v65h659v-65h-315v-215q109 16 220 16q177 0 249.5 -58t72.5 -191q0 -101 -40.5 -147.5t-128.5 -46.5h-35v66h32q54 0 78.5 31t24.5 98q0 98 -56.5 140.5t-197.5 42.5q-100 0 -219 -17v-354h-69v635h-275z" />
    <glyph glyph-name="uni0403" unicode="&#x403;" horiz-adv-x="629" 
d="M99 0v700h499v-65h-430v-635h-69zM319 770l-26 34l172 127l39 -48z" />
    <glyph glyph-name="uni0404" unicode="&#x404;" horiz-adv-x="833" 
d="M66 350q0 188 85 272.5t272 84.5q151 0 234.5 -55t108.5 -172h-71q-25 83 -91.5 122t-180.5 39q-144 0 -212.5 -62t-74.5 -198h396v-62h-396q6 -136 74.5 -198t212.5 -62q114 0 180.5 39.5t91.5 123.5h72q-26 -119 -109.5 -174t-234.5 -55q-187 0 -272 85t-85 272z" />
    <glyph glyph-name="uni0405" unicode="&#x405;" horiz-adv-x="710" 
d="M51 187h72q20 -67 79 -97.5t168 -30.5q221 0 221 124q0 58 -54.5 90t-192.5 53q-158 25 -220.5 67t-62.5 124q0 189 286 189q137 0 209 -45.5t91 -147.5h-72q-18 67 -74 97.5t-159 30.5q-213 0 -213 -119q0 -53 51 -81.5t179 -48.5q169 -29 234.5 -73t65.5 -130
q0 -196 -297 -196q-141 0 -215 46t-96 148z" />
    <glyph glyph-name="uni0406" unicode="&#x406;" horiz-adv-x="267" 
d="M99 0v700h69v-700h-69z" />
    <glyph glyph-name="uni0407" unicode="&#x407;" horiz-adv-x="267" 
d="M168 0h-69v700h69v-700zM-13 816q0 25 11 36.5t36 11.5q48 0 48 -48q0 -46 -48 -46q-25 0 -36 10.5t-11 35.5zM233 864q47 0 47 -48q0 -25 -11 -35.5t-36 -10.5t-36 10.5t-11 35.5t11 36.5t36 11.5z" />
    <glyph glyph-name="uni0408" unicode="&#x408;" horiz-adv-x="684" 
d="M43 256h69v-56q0 -73 50.5 -107t159.5 -34q108 0 158 45t50 142v454h69v-460q0 -129 -66 -188t-211 -59q-146 0 -212.5 49.5t-66.5 156.5v57z" />
    <glyph glyph-name="uni0409" unicode="&#x409;" horiz-adv-x="1247" 
d="M51 69h36q32 0 50 24.5t32.5 111t22.5 253.5l10 242h493v-299h262q123 0 178.5 -47.5t55.5 -152.5t-55.5 -153t-178.5 -48h-331v635h-359l-8 -183q-7 -184 -26.5 -282t-51.5 -134t-89 -36h-41v69zM954 336h-259v-271h259q88 0 128 32.5t40 103.5t-40 103t-128 32z" />
    <glyph glyph-name="uni040A" unicode="&#x40a;" horiz-adv-x="1284" 
d="M168 0h-69v700h69v-299h495v299h69v-299h262q123 0 178.5 -47.5t55.5 -152.5t-55.5 -153t-178.5 -48h-331v336h-495v-336zM991 336h-259v-271h259q88 0 128 32.5t40 103.5t-40 103t-128 32z" />
    <glyph glyph-name="uni040B" unicode="&#x40b;" horiz-adv-x="997" 
d="M32 700h659v-65h-315v-215q109 16 221 16q177 0 249 -57.5t72 -190.5v-188h-69v181q0 102 -56 146t-199 44q-99 0 -218 -17v-354h-69v635h-275v65z" />
    <glyph glyph-name="uni040C" unicode="&#x40c;" horiz-adv-x="727" 
d="M99 0v700h69v-310h152l274 310h86l-303 -341l325 -359h-88l-294 325h-152v-325h-69zM314 770l-25 34l172 127l38 -48z" />
    <glyph glyph-name="uni040D" unicode="&#x40d;" horiz-adv-x="856" 
d="M688 0v600l-520 -600h-69v700h69v-600l520 600h69v-700h-69zM484 804l-26 -34l-185 113l38 48z" />
    <glyph glyph-name="uni040E" unicode="&#x40e;" horiz-adv-x="777" 
d="M28 700h78l289 -483l278 483h76l-337 -585q-35 -61 -77 -88t-103 -27h-72v57h68q41 0 69.5 20t54.5 65l6 11zM165 942h62q0 -56 40.5 -91.5t120.5 -35.5t121 35.5t41 91.5h62q0 -84 -54.5 -133t-169.5 -49q-111 0 -167 49.5t-56 132.5z" />
    <glyph glyph-name="uni040F" unicode="&#x40f;" horiz-adv-x="843" 
d="M99 700h69v-635h500v635h69v-700h-284v-173h-69v173h-285v700z" />
    <glyph glyph-name="uni0410" unicode="&#x410;" horiz-adv-x="804" 
d="M102 0h-74l333 700h82l333 -700h-74l-81 170h-439zM402 631l-188 -396l376 1z" />
    <glyph glyph-name="uni0411" unicode="&#x411;" horiz-adv-x="773" 
d="M99 0v700h564v-65h-495v-226h316q122 0 177.5 -48.5t55.5 -155.5t-55.5 -156t-177.5 -49h-385zM168 65h312q88 0 128.5 33.5t40.5 106.5t-40 106t-129 33h-312v-279z" />
    <glyph glyph-name="uni0412" unicode="&#x412;" horiz-adv-x="775" 
d="M500 0h-401v700h375q112 0 162.5 -42.5t50.5 -135.5q0 -64 -20.5 -102.5t-66.5 -57.5q114 -32 114 -175q0 -98 -51 -142.5t-163 -44.5zM500 327h-332v-262h332q78 0 113.5 31.5t35.5 100.5q0 68 -35.5 99t-113.5 31zM168 389h304q84 0 117 28.5t33 94.5q0 64 -35.5 93.5
t-112.5 29.5h-306v-246z" />
    <glyph glyph-name="uni0413" unicode="&#x413;" horiz-adv-x="629" 
d="M99 0v700h499v-65h-430v-635h-69z" />
    <glyph glyph-name="uni0414" unicode="&#x414;" horiz-adv-x="904" 
d="M115 -173h-69v238h86q25 12 40.5 40.5t29 113.5t19.5 236l10 245h504v-635h123v-238h-69v173h-674v-173zM221 65h445v570h-369l-8 -182q-12 -302 -68 -388z" />
    <glyph glyph-name="uni0415" unicode="&#x415;" horiz-adv-x="740" 
d="M666 0h-567v700h567v-65h-498v-254h448v-62h-448v-254h498v-65z" />
    <glyph glyph-name="uni0416" unicode="&#x416;" horiz-adv-x="1057" 
d="M109 0h-84l290 357l-270 343h83l244 -310h122v310h69v-310h122l244 310h83l-270 -343l290 -357h-84l-262 325h-123v-325h-69v325h-123z" />
    <glyph glyph-name="uni0417" unicode="&#x417;" horiz-adv-x="721" 
d="M43 194h65q0 -73 57.5 -106t184.5 -33q125 0 182.5 33t57.5 106t-51 105t-165 32h-134v59h139q106 0 154 30t48 98q0 67 -54.5 97t-174.5 30t-174.5 -30.5t-54.5 -97.5h-65q0 100 69 145t225 45t225 -43t69 -140q0 -126 -113 -164q63 -20 92.5 -62t29.5 -111
q0 -102 -72.5 -148t-232.5 -46q-161 0 -234 47.5t-73 153.5z" />
    <glyph glyph-name="uni0418" unicode="&#x418;" horiz-adv-x="856" 
d="M688 0v600l-520 -600h-69v700h69v-600l520 600h69v-700h-69z" />
    <glyph glyph-name="uni0419" unicode="&#x419;" horiz-adv-x="856" 
d="M688 0v600l-520 -600h-69v700h69v-600l520 600h69v-700h-69zM205 942h61q0 -56 41 -91.5t121 -35.5t121 35.5t41 91.5h62q0 -84 -54.5 -133t-169.5 -49q-111 0 -167 49.5t-56 132.5z" />
    <glyph glyph-name="uni041A" unicode="&#x41a;" horiz-adv-x="727" 
d="M99 0v700h69v-310h152l274 310h86l-303 -341l325 -359h-88l-294 325h-152v-325h-69z" />
    <glyph glyph-name="uni041B" unicode="&#x41b;" horiz-adv-x="804" 
d="M51 0v69h36q32 0 50 24.5t32.5 111t22.5 253.5l10 242h503v-700h-69v635h-369l-8 -183q-7 -184 -26.5 -282t-51.5 -134t-89 -36h-41z" />
    <glyph glyph-name="uni041C" unicode="&#x41c;" horiz-adv-x="1017" 
d="M99 0v700h111l299 -627l298 627h111v-700h-69v635l-299 -635h-82l-300 635v-635h-69z" />
    <glyph glyph-name="uni041D" unicode="&#x41d;" horiz-adv-x="861" 
d="M99 0v700h69v-317h525v317h69v-700h-69v317h-525v-317h-69z" />
    <glyph glyph-name="uni041E" unicode="&#x41e;" horiz-adv-x="846" 
d="M423 707q187 0 272 -85t85 -272t-85 -272t-272 -85t-272 85t-85 272q0 188 85 272.5t272 84.5zM135 350q0 -153 68.5 -222t219.5 -69t219.5 69t68.5 222t-68.5 222t-219.5 69t-219.5 -69t-68.5 -222z" />
    <glyph glyph-name="uni041F" unicode="&#x41f;" horiz-adv-x="846" 
d="M99 0v700h648v-700h-69v635h-510v-635h-69z" />
    <glyph glyph-name="uni0420" unicode="&#x420;" horiz-adv-x="720" 
d="M99 0v700h341q123 0 178.5 -51t55.5 -163t-55.5 -163t-178.5 -51h-272v-272h-69zM437 635h-269v-297h269q88 0 128 35t40 113t-40 113.5t-128 35.5z" />
    <glyph glyph-name="uni0421" unicode="&#x421;" horiz-adv-x="833" 
d="M66 350q0 188 85 272.5t272 84.5q151 0 234.5 -55t108.5 -172h-71q-25 83 -91.5 122t-180.5 39q-151 0 -219.5 -69t-68.5 -222t68.5 -222t219.5 -69q114 0 180.5 39.5t91.5 123.5h72q-26 -119 -109.5 -174t-234.5 -55q-187 0 -272 85t-85 272z" />
    <glyph glyph-name="uni0422" unicode="&#x422;" horiz-adv-x="763" 
d="M731 635h-315v-635h-69v635h-315v65h699v-65z" />
    <glyph glyph-name="uni0423" unicode="&#x423;" horiz-adv-x="777" 
d="M358 153l-330 547h78l289 -483l278 483h76l-337 -585q-35 -61 -77 -88t-103 -27h-72v57h68q41 0 69.5 20t54.5 65z" />
    <glyph glyph-name="uni0424" unicode="&#x424;" horiz-adv-x="927" 
d="M66 349q0 139 86 202t277 63v93h69v-93q191 0 277 -62.5t86 -202.5t-86 -203t-277 -63v-90h-69v90q-190 0 -276.5 63t-86.5 203zM498 550v-404q155 2 225 50t70 154q0 105 -70 152.5t-225 47.5zM429 550q-154 -2 -224 -49.5t-70 -152.5t70 -153.5t224 -48.5v404z" />
    <glyph glyph-name="uni0425" unicode="&#x425;" horiz-adv-x="738" 
d="M111 0h-86l301 357l-289 343h85l247 -292l247 292h86l-290 -343l302 -357h-86l-259 306z" />
    <glyph glyph-name="uni0426" unicode="&#x426;" horiz-adv-x="906" 
d="M99 700h69v-635h500v635h69v-635h123v-238h-69v173h-692v700z" />
    <glyph glyph-name="uni0427" unicode="&#x427;" horiz-adv-x="771" 
d="M382 264q-177 0 -249 57.5t-72 190.5v188h69v-181q0 -102 56 -146t199 -44q99 0 218 17v354h69v-700h-69v280q-109 -16 -221 -16z" />
    <glyph glyph-name="uni0428" unicode="&#x428;" horiz-adv-x="1146" 
d="M99 0v700h69v-635h370v635h69v-635h371v635h69v-700h-948z" />
    <glyph glyph-name="uni0429" unicode="&#x429;" horiz-adv-x="1216" 
d="M99 700h69v-635h370v635h69v-635h371v635h69v-635h123v-238h-69v173h-1002v700z" />
    <glyph glyph-name="uni042A" unicode="&#x42a;" horiz-adv-x="978" 
d="M347 635h-315v65h384v-282h272q123 0 178.5 -49.5t55.5 -159.5q0 -109 -56 -159t-178 -50h-341v635zM416 65h268q88 0 128.5 34.5t40.5 109.5q0 76 -40 110t-129 34h-268v-288z" />
    <glyph glyph-name="uni042B" unicode="&#x42b;" horiz-adv-x="981" 
d="M440 0h-341v700h69v-282h272q123 0 178.5 -49.5t55.5 -159.5t-55.5 -159.5t-178.5 -49.5zM168 65h269q88 0 128 34.5t40 109.5q0 76 -40 110t-128 34h-269v-288zM813 0v700h69v-700h-69z" />
    <glyph glyph-name="uni042C" unicode="&#x42c;" horiz-adv-x="730" 
d="M440 0h-341v700h69v-282h272q123 0 178.5 -49.5t55.5 -159.5t-55.5 -159.5t-178.5 -49.5zM168 65h269q88 0 128 34.5t40 109.5q0 76 -40 110t-128 34h-269v-288z" />
    <glyph glyph-name="uni042D" unicode="&#x42d;" horiz-adv-x="833" 
d="M66 222h72q25 -84 91 -123.5t181 -39.5q143 0 211.5 62t75.5 198h-350v62h350q-7 136 -75.5 198t-211.5 62q-114 0 -180.5 -39t-91.5 -122h-71q25 117 108.5 172t234.5 55q188 0 272.5 -84.5t84.5 -272.5q0 -187 -85 -272t-272 -85q-151 0 -234.5 55t-109.5 174z" />
    <glyph glyph-name="uni042E" unicode="&#x42e;" horiz-adv-x="1123" 
d="M168 0h-69v700h69v-317h186q7 169 91 246.5t260 77.5q185 0 268.5 -85t83.5 -272t-84 -272t-268 -85q-176 0 -260 77.5t-91 246.5h-186v-317zM705 59q149 0 216 69t67 222t-67 222t-216 69t-216 -69t-67 -222t67 -222t216 -69z" />
    <glyph glyph-name="uni042F" unicode="&#x42f;" horiz-adv-x="766" 
d="M137 0h-87l247 282q-114 3 -166 53t-52 156q0 110 55.5 159.5t177.5 49.5h355v-700h-69v282h-215zM148 491q0 -75 40 -109t128 -34h282v287h-282q-88 0 -128 -34t-40 -110z" />
    <glyph glyph-name="uni0430" unicode="&#x430;" horiz-adv-x="649" 
d="M273 -7q-105 0 -154.5 36t-49.5 115q0 82 55 117.5t178 35.5h196v15q0 82 -42.5 119t-136.5 37q-76 0 -116.5 -24.5t-54.5 -77.5h-66q17 84 73.5 122.5t166.5 38.5q126 0 183.5 -51t57.5 -163v-313h-65v88q-57 -95 -225 -95zM135 146q0 -50 36.5 -72t114.5 -22
q103 0 152.5 38t59.5 123v33h-182q-95 0 -138 -24t-43 -76z" />
    <glyph glyph-name="uni0431" unicode="&#x431;" horiz-adv-x="654" 
d="M64 379q0 189 57.5 269t209.5 92l220 17v-62l-213 -17q-106 -9 -153.5 -57t-51.5 -170q-3 -45 0 -95q9 90 59 130.5t151 40.5q134 0 194.5 -63t60.5 -202q0 -141 -62 -205t-197 -64q-71 0 -120 17.5t-85 60.5t-53 119t-17 189zM146 261q0 -108 46 -157t148 -49
q101 0 146.5 49t45.5 157q0 107 -45.5 155.5t-146.5 48.5q-102 0 -148 -48.5t-46 -155.5z" />
    <glyph glyph-name="uni0432" unicode="&#x432;" horiz-adv-x="614" 
d="M368 0h-279v520h256q96 0 139.5 -32t43.5 -103q0 -83 -61 -114q88 -27 88 -129q0 -75 -44 -108.5t-143 -33.5zM362 241h-207v-183h207q69 0 98 21.5t29 70.5q0 48 -29.5 69.5t-97.5 21.5zM155 292h182q67 0 96.5 20t29.5 65q0 44 -29.5 64.5t-95.5 20.5h-183v-170z" />
    <glyph glyph-name="uni0433" unicode="&#x433;" horiz-adv-x="502" 
d="M89 0v520h384v-62h-318v-458h-66z" />
    <glyph glyph-name="uni0434" unicode="&#x434;" horiz-adv-x="740" 
d="M97 -163h-65v225h68q25 15 38 40t24 94.5t17 196.5l6 127h410v-458h98v-225h-65v163h-531v-163zM184 62h346v396h-283l-3 -69q-12 -259 -60 -327z" />
    <glyph glyph-name="uni0435" unicode="&#x435;" horiz-adv-x="634" 
d="M56 260q0 139 62 203t201 64q138 0 198.5 -64t60.5 -203q0 -12 -1 -18h-454q3 -98 50 -144t147 -46q141 0 178 99h68q-22 -88 -85.5 -123t-161.5 -35q-139 0 -201 63.5t-62 203.5zM320 468q-95 0 -142.5 -41t-53.5 -134h388q-6 93 -52 134t-140 41z" />
    <glyph glyph-name="uni0436" unicode="&#x436;" horiz-adv-x="868" 
d="M36 0l210 266l-198 254h79l174 -224h101v224h65v-224h101l174 224h79l-198 -254l209 -266h-80l-184 234h-101v-234h-65v234h-101l-184 -234h-81z" />
    <glyph glyph-name="uni0437" unicode="&#x437;" horiz-adv-x="590" 
d="M56 360q13 88 70 127.5t177 39.5q114 0 166 -34t52 -110q0 -89 -77 -115q87 -26 87 -124q0 -79 -53.5 -115t-170.5 -36q-121 0 -179 40t-71 128h67q11 -58 53 -83.5t128 -25.5q83 0 122 24t39 77q0 46 -30 67t-98 21h-106v51h98q67 0 96.5 20.5t29.5 63.5q0 48 -37.5 70
t-118.5 22q-85 0 -126 -25.5t-52 -82.5h-66z" />
    <glyph glyph-name="uni0438" unicode="&#x438;" horiz-adv-x="670" 
d="M148 0h-59v520h66v-416l367 416h59v-520h-66v417z" />
    <glyph glyph-name="uni0439" unicode="&#x439;" horiz-adv-x="670" 
d="M89 0v520h66v-416l367 416h59v-520h-66v417l-367 -417h-59zM162 740h55q0 -52 28.5 -75.5t90.5 -23.5q63 0 91 23.5t28 75.5h55q0 -76 -41.5 -111.5t-132.5 -35.5q-90 0 -132 36t-42 111z" />
    <glyph glyph-name="uni043A" unicode="&#x43a;" horiz-adv-x="592" 
d="M155 0h-66v520h66v-224h118l190 224h82l-218 -254l229 -266h-82l-202 234h-117v-234z" />
    <glyph glyph-name="uni043B" unicode="&#x43b;" 
d="M46 0v65h31q27 0 42 22t26.5 94.5t18.5 211.5l6 127h410v-520h-66v458h-283l-3 -69q-7 -158 -25.5 -243.5t-47 -115.5t-76.5 -30h-33z" />
    <glyph glyph-name="uni043C" unicode="&#x43c;" horiz-adv-x="827" 
d="M89 0v520h105l219 -458l219 458h106v-520h-66v461l-224 -461h-70l-223 461v-461h-66z" />
    <glyph glyph-name="uni043D" unicode="&#x43d;" horiz-adv-x="670" 
d="M89 0v520h66v-229h360v229h66v-520h-66v229h-360v-229h-66z" />
    <glyph glyph-name="uni043E" unicode="&#x43e;" horiz-adv-x="639" 
d="M320 527q138 0 200.5 -63.5t62.5 -203.5t-62.5 -203.5t-200.5 -63.5q-139 0 -201.5 63.5t-62.5 203.5t62.5 203.5t201.5 63.5zM121 260q0 -107 47.5 -156t151.5 -49t151 49t47 156q0 108 -47 156.5t-151 48.5t-151.5 -48.5t-47.5 -156.5z" />
    <glyph glyph-name="uni043F" unicode="&#x43f;" horiz-adv-x="670" 
d="M89 0v520h492v-520h-66v458h-360v-458h-66z" />
    <glyph glyph-name="uni0440" unicode="&#x440;" 
d="M89 -250v770h66v-93q52 100 212 100q129 0 187.5 -63.5t58.5 -203.5t-58.5 -203.5t-187.5 -63.5q-160 0 -212 100v-343h-66zM352 55q103 0 149 48.5t46 156.5q0 107 -46 156t-149 49t-149 -49t-46 -156q0 -108 46 -156.5t149 -48.5z" />
    <glyph glyph-name="uni0441" unicode="&#x441;" horiz-adv-x="617" 
d="M314 -7q-136 0 -197 63.5t-61 203.5t61 203.5t197 63.5q114 0 173.5 -44t76.5 -140h-65q-16 64 -59.5 93t-123.5 29q-102 0 -148.5 -48.5t-46.5 -156.5q0 -107 46.5 -156t148.5 -49q79 0 123 29.5t60 93.5h65q-16 -97 -75.5 -141t-174.5 -44z" />
    <glyph glyph-name="uni0442" unicode="&#x442;" horiz-adv-x="576" 
d="M546 458h-225v-458h-66v458h-225v62h516v-62z" />
    <glyph glyph-name="uni0443" unicode="&#x443;" horiz-adv-x="575" 
d="M252 0l-226 520h71l190 -435l191 435h71l-335 -770h-71z" />
    <glyph glyph-name="uni0444" unicode="&#x444;" horiz-adv-x="814" 
d="M310 0q-133 0 -193.5 61.5t-60.5 198.5t60.5 198.5t193.5 61.5h64v230h66v-230h64q133 0 193.5 -61.5t60.5 -198.5t-60.5 -198.5t-193.5 -61.5h-64v-251h-66v251h-64zM121 260q0 -104 45 -151t145 -47h63v396h-63q-100 0 -145 -47t-45 -151zM503 458h-63v-396h63
q100 0 145 47t45 151t-45 151t-145 47z" />
    <glyph glyph-name="uni0445" unicode="&#x445;" horiz-adv-x="601" 
d="M36 0l223 264l-216 256h83l175 -206l174 206h83l-215 -256l222 -264h-83l-181 215l-182 -215h-83z" />
    <glyph glyph-name="uni0446" unicode="&#x446;" horiz-adv-x="710" 
d="M89 520h66v-458h350v458h66v-458h98v-225h-65v163h-515v520z" />
    <glyph glyph-name="uni0447" unicode="&#x447;" horiz-adv-x="613" 
d="M299 189q-128 0 -181.5 47t-53.5 152v132h66v-132q0 -73 40 -105t137 -32q52 0 151 12v257h66v-520h-66v201q-99 -12 -159 -12z" />
    <glyph glyph-name="uni0448" unicode="&#x448;" horiz-adv-x="942" 
d="M853 0h-764v520h66v-458h283v458h66v-458h284v458h65v-520z" />
    <glyph glyph-name="uni0449" unicode="&#x449;" horiz-adv-x="1005" 
d="M899 0h-810v520h66v-458h283v458h66v-458h284v458h65v-458h111v-225h-65v163z" />
    <glyph glyph-name="uni044A" unicode="&#x44a;" horiz-adv-x="734" 
d="M241 458h-211v62h277v-177h178q102 0 148 -40.5t46 -130.5q0 -91 -46 -131.5t-148 -40.5h-244v458zM480 281h-173v-219h173q71 0 102.5 26t31.5 84t-31.5 83.5t-102.5 25.5z" />
    <glyph glyph-name="uni044B" unicode="&#x44b;" horiz-adv-x="798" 
d="M89 0v520h66v-177h178q102 0 148 -40.5t46 -130.5q0 -91 -46 -131.5t-148 -40.5h-244zM327 281h-172v-219h173q71 0 102.5 26t31.5 84t-32 83.5t-103 25.5zM643 0v520h66v-520h-66z" />
    <glyph glyph-name="uni044C" unicode="&#x44c;" horiz-adv-x="581" 
d="M89 520h66v-177h178q102 0 148 -40.5t46 -130.5q0 -91 -46 -131.5t-148 -40.5h-244v520zM327 281h-172v-219h173q71 0 102.5 26t31.5 84t-32 83.5t-103 25.5z" />
    <glyph glyph-name="uni044D" unicode="&#x44d;" horiz-adv-x="617" 
d="M118 343h-65q17 96 76 140t173 44q136 0 197.5 -63.5t61.5 -203.5t-61.5 -203.5t-197.5 -63.5q-114 0 -173.5 44t-75.5 141h65q16 -64 59.5 -93.5t123.5 -29.5q96 0 142.5 43t51.5 136h-236v52h236q-5 94 -51.5 136.5t-142.5 42.5q-80 0 -123.5 -29t-59.5 -93z" />
    <glyph glyph-name="uni044E" unicode="&#x44e;" horiz-adv-x="874" 
d="M155 0h-66v520h66v-229h147q7 123 68.5 179.5t189.5 56.5q136 0 197 -63.5t61 -203.5t-61 -203.5t-197 -63.5q-128 0 -189.5 56.5t-68.5 179.5h-147v-229zM367 260q0 -107 46 -156t147 -49t147 49t46 156q0 108 -46 156.5t-147 48.5t-147 -48.5t-46 -156.5z" />
    <glyph glyph-name="uni044F" unicode="&#x44f;" horiz-adv-x="610" 
d="M63 0l148 191q-75 9 -109 46.5t-34 113.5q0 89 46.5 129t150.5 40h256v-520h-66v189h-167l-146 -189h-79zM134 351q0 -55 31 -77.5t104 -22.5h186v207h-186q-71 0 -103 -25t-32 -82z" />
    <glyph glyph-name="uni0450" unicode="&#x450;" horiz-adv-x="634" 
d="M319 -7q-139 0 -201 63.5t-62 203.5q0 139 62 203t201 64q138 0 198.5 -64t60.5 -203q0 -12 -1 -18h-454q3 -98 50 -144t147 -46q141 0 178 99h68q-22 -88 -85.5 -123t-161.5 -35zM320 468q-95 0 -142.5 -41t-53.5 -134h388q-6 93 -52 134t-140 41zM347 606l-184 113
l38 49l172 -128z" />
    <glyph glyph-name="uni0451" unicode="&#x451;" horiz-adv-x="634" 
d="M56 260q0 139 62 203t201 64q138 0 198.5 -64t60.5 -203q0 -12 -1 -18h-454q3 -98 50 -144t147 -46q141 0 178 99h68q-22 -88 -85.5 -123t-161.5 -35q-139 0 -201 63.5t-62 203.5zM320 468q-95 0 -142.5 -41t-53.5 -134h388q-6 93 -52 134t-140 41zM171 653q0 25 11 36
t36 11q48 0 48 -47q0 -25 -11.5 -36t-36.5 -11q-26 0 -36.5 11t-10.5 36zM370 653q0 25 11 36t36 11t36 -11t11 -36t-11 -36t-36 -11t-36 11t-11 36z" />
    <glyph glyph-name="uni0452" unicode="&#x452;" horiz-adv-x="678" 
d="M15 616v51h79v83h66v-83h239v-51h-239v-187q53 98 208 98q117 0 171 -53.5t54 -170.5v-380q0 -91 -39.5 -132t-126.5 -41h-34v62h31q54 0 78.5 26t24.5 84v381q0 85 -42 123.5t-133 38.5q-102 0 -147 -48.5t-45 -156.5v-260h-66v616h-79z" />
    <glyph glyph-name="uni0453" unicode="&#x453;" horiz-adv-x="502" 
d="M89 0v520h384v-62h-318v-458h-66zM251 606l-25 34l172 128l38 -49z" />
    <glyph glyph-name="uni0454" unicode="&#x454;" horiz-adv-x="617" 
d="M56 260q0 140 61 203.5t197 63.5q114 0 173.5 -44t76.5 -140h-65q-16 64 -59.5 93t-123.5 29q-96 0 -142.5 -42.5t-51.5 -136.5h281v-52h-281q5 -93 51.5 -136t142.5 -43q79 0 123 29.5t60 93.5h65q-16 -97 -75.5 -141t-174.5 -44q-136 0 -197 63.5t-61 203.5z" />
    <glyph glyph-name="uni0455" unicode="&#x455;" horiz-adv-x="584" 
d="M56 151h65q16 -52 59 -75.5t122 -23.5q82 0 122 23t40 62q0 37 -40 58.5t-133 35.5q-123 19 -173 53.5t-50 99.5q0 143 215 143q108 0 164 -37.5t72 -119.5h-65q-15 51 -56 74.5t-116 23.5q-76 0 -113.5 -22t-37.5 -60q0 -36 39.5 -57t131.5 -37q127 -20 176.5 -53
t49.5 -97q0 -149 -227 -149q-111 0 -170 38t-75 120z" />
    <glyph glyph-name="uni0456" unicode="&#x456;" horiz-adv-x="243" 
d="M89 0v520h66v-520h-66zM72 677q0 27 11.5 39t38.5 12q51 0 51 -51q0 -27 -12 -38.5t-39 -11.5t-38.5 11.5t-11.5 38.5z" />
    <glyph glyph-name="uni0457" unicode="&#x457;" horiz-adv-x="234" 
d="M150 0h-65v520h65v-520zM-13 653q0 25 11 36t36 11q48 0 48 -47q0 -25 -11.5 -36t-36.5 -11q-26 0 -36.5 11t-10.5 36zM200 700q25 0 36 -11t11 -36t-11 -36t-36 -11q-26 0 -36.5 11t-10.5 36t11 36t36 11z" />
    <glyph glyph-name="uni0458" unicode="&#x458;" horiz-adv-x="243" 
d="M-46 -250v62h32q54 0 78.5 26t24.5 84v598h66v-597q0 -91 -39.5 -132t-126.5 -41h-35zM72 677q0 27 11.5 39t38.5 12q51 0 51 -51q0 -27 -12 -38.5t-39 -11.5t-38.5 11.5t-11.5 38.5z" />
    <glyph glyph-name="uni0459" unicode="&#x459;" horiz-adv-x="1007" 
d="M79 0h-33v65h31q27 0 42 22t26.5 94.5t18.5 211.5l6 127h410v-177h178q102 0 148 -40.5t46 -130.5q0 -91 -46 -131.5t-148 -40.5h-244v458h-283l-3 -69q-7 -158 -25.5 -243.5t-47 -115.5t-76.5 -30zM753 281h-173v-219h173q71 0 102.5 26t31.5 84t-31.5 83.5t-102.5 25.5
z" />
    <glyph glyph-name="uni045A" unicode="&#x45a;" horiz-adv-x="1008" 
d="M89 0v520h66v-203h360v203h66v-203h178q102 0 148.5 -37.5t46.5 -120.5t-46.5 -121t-147.5 -38h-245v255h-360v-255h-66zM754 255h-173v-193h173q70 0 102 23t32 74q0 50 -32 73t-102 23z" />
    <glyph glyph-name="uni045B" unicode="&#x45b;" horiz-adv-x="678" 
d="M15 616v51h79v83h66v-83h239v-51h-239v-187q53 98 208 98q117 0 171 -53.5t54 -170.5v-303h-66v303q0 85 -42 123.5t-133 38.5q-102 0 -147 -48.5t-45 -156.5v-260h-66v616h-79z" />
    <glyph glyph-name="uni045C" unicode="&#x45c;" horiz-adv-x="592" 
d="M89 520h66v-224h118l190 224h82l-218 -254l229 -266h-82l-202 234h-117v-234h-66v520zM256 606l-25 34l172 128l38 -49z" />
    <glyph glyph-name="uni045D" unicode="&#x45d;" horiz-adv-x="670" 
d="M89 0v520h66v-416l367 416h59v-520h-66v417l-367 -417h-59zM365 606l-185 113l38 49l173 -128z" />
    <glyph glyph-name="uni045E" unicode="&#x45e;" horiz-adv-x="575" 
d="M252 0l-226 520h71l190 -435l191 435h71l-335 -770h-71zM114 740h55q0 -52 28.5 -75.5t90.5 -23.5t90.5 23.5t28.5 75.5h55q0 -76 -41.5 -111.5t-132.5 -35.5q-90 0 -132 36t-42 111z" />
    <glyph glyph-name="uni045F" unicode="&#x45f;" horiz-adv-x="660" 
d="M299 0h-210v520h66v-458h350v458h66v-520h-207v-163h-65v163z" />
    <glyph glyph-name="uni0490" unicode="&#x490;" horiz-adv-x="606" 
d="M99 0v700h407v170h69v-235h-407v-635h-69z" />
    <glyph glyph-name="uni0491" unicode="&#x491;" horiz-adv-x="502" 
d="M89 0v520h318v160h66v-222h-318v-458h-66z" />
    <glyph glyph-name="uni04D8" unicode="&#x4d8;" horiz-adv-x="846" 
d="M66 350q0 19 1 28h642q-5 139 -75 201t-211 62q-65 0 -114 -11.5t-91.5 -46.5t-62.5 -93h-74q15 63 47.5 107t79 67t98.5 33t117 10q187 0 272 -85t85 -272t-85 -272t-272 -85t-272 85t-85 272zM138 316q7 -136 76.5 -196.5t208.5 -60.5t208.5 60.5t76.5 196.5h-570z" />
    <glyph glyph-name="uni04D9" unicode="&#x4d9;" horiz-adv-x="634" 
d="M315 -7q-138 0 -198.5 64t-60.5 203q0 12 1 18h454q-3 98 -50 144t-146 46q-142 0 -179 -98h-68q22 87 85.5 122t161.5 35q139 0 201 -63.5t62 -203.5q0 -139 -62 -203t-201 -64zM122 227q6 -93 52 -134t141 -41q94 0 141.5 41t54.5 134h-389z" />
    <glyph glyph-name="Wgrave" unicode="&#x1e80;" horiz-adv-x="1178" 
d="M286 0l-258 700h71l228 -620l225 620h74l225 -620l227 620h72l-258 -700h-82l-221 605l-221 -605h-82zM434 883l38 48l172 -127l-25 -34z" />
    <glyph glyph-name="wgrave" unicode="&#x1e81;" horiz-adv-x="860" 
d="M26 520h69l148 -443l154 443h65l153 -438l150 438h68l-181 -520h-73l-149 427l-149 -427h-73zM460 606l-185 113l38 49l173 -128z" />
    <glyph glyph-name="Wacute" unicode="&#x1e82;" horiz-adv-x="1178" 
d="M28 700h71l228 -620l225 620h74l225 -620l227 620h72l-258 -700h-82l-221 605l-221 -605h-82zM559 770l-26 34l173 127l38 -48z" />
    <glyph glyph-name="wacute" unicode="&#x1e83;" horiz-adv-x="860" 
d="M26 520h69l148 -443l154 443h65l153 -438l150 438h68l-181 -520h-73l-149 427l-149 -427h-73zM400 606l-25 34l172 128l38 -49z" />
    <glyph glyph-name="Wdieresis" unicode="&#x1e84;" horiz-adv-x="1178" 
d="M28 700h71l228 -620l225 620h74l225 -620l227 620h72l-258 -700h-82l-221 605l-221 -605h-82zM489 864q48 0 48 -48q0 -46 -48 -46q-25 0 -36 10.5t-11 35.5t11 36.5t36 11.5zM641 816q0 25 11 36.5t36 11.5q47 0 47 -48q0 -25 -11 -35.5t-36 -10.5t-36 10.5t-11 35.5z
" />
    <glyph glyph-name="wdieresis" unicode="&#x1e85;" horiz-adv-x="860" 
d="M26 520h69l148 -443l154 443h65l153 -438l150 438h68l-181 -520h-73l-149 427l-149 -427h-73zM330 700q49 0 49 -47q0 -25 -11.5 -36t-37.5 -11q-25 0 -35.5 11t-10.5 36t10.5 36t35.5 11zM529 700q48 0 48 -47q0 -25 -11.5 -36t-36.5 -11t-36 11t-11 36t11 36t36 11z
" />
    <glyph glyph-name="Germandbls" unicode="&#x1e9e;" horiz-adv-x="790" 
d="M376 700h321v-52l-232 -264h43q224 0 224 -199q0 -96 -54.5 -140.5t-169.5 -44.5h-181v65h181q80 0 119.5 32t39.5 100q0 130 -159 130h-129v57l221 251h-226q-111 0 -162 -45t-51 -143v-447h-68v453q0 129 67 188t216 59z" />
    <glyph glyph-name="Ygrave" unicode="&#x1ef2;" horiz-adv-x="774" 
d="M353 290l-325 410h83l276 -343l275 343h84l-325 -410v-290h-68v290zM232 883l38 48l173 -127l-26 -34z" />
    <glyph glyph-name="ygrave" unicode="&#x1ef3;" horiz-adv-x="575" 
d="M26 520h71l190 -435l191 435h71l-335 -770h-71l109 250zM318 606l-185 113l38 49l172 -128z" />
    <glyph glyph-name="figuredash" unicode="&#x2012;" horiz-adv-x="670" 
d="M73 319v62h524v-62h-524z" />
    <glyph glyph-name="endash" unicode="&#x2013;" horiz-adv-x="600" 
d="M63 239v62h474v-62h-474z" />
    <glyph glyph-name="emdash" unicode="&#x2014;" horiz-adv-x="1000" 
d="M63 239v62h874v-62h-874z" />
    <glyph glyph-name="quoteleft" unicode="&#x2018;" horiz-adv-x="240" 
d="M169 503q0 -51 -51 -51t-51 51v48q0 82 27 119t88 37v-33q-73 0 -73 -116v-4q33 0 46.5 -10t13.5 -41z" />
    <glyph glyph-name="quoteright" unicode="&#x2019;" horiz-adv-x="240" 
d="M131 601v4q-3 -1 -9 -1q-27 0 -39 12t-12 39q0 52 51 52q52 0 52 -52v-48q0 -81 -27.5 -118t-88.5 -37v32q38 0 55.5 28.5t17.5 88.5z" />
    <glyph glyph-name="quotesinglbase" unicode="&#x201a;" horiz-adv-x="240" 
d="M131 -10v3q-32 0 -46 10t-14 41q0 52 51 52q52 0 52 -52v-48q0 -82 -27.5 -119t-88.5 -37v33q38 0 55.5 28.5t17.5 88.5z" />
    <glyph glyph-name="quotereversed" unicode="&#x201b;" horiz-adv-x="240" 
d="M109 605v-4q0 -117 73 -117v-32q-61 0 -88 37t-27 118v48q0 52 51 52t51 -52q0 -27 -12 -39t-39 -12q-6 0 -9 1z" />
    <glyph glyph-name="quotedblleft" unicode="&#x201c;" horiz-adv-x="405" 
d="M67 503v48q0 82 27 119t88 37v-33q-73 0 -73 -116v-4q33 0 46.5 -10t13.5 -41q0 -51 -51 -51t-51 51zM232 503v48q0 82 27 119t88 37v-33q-73 0 -73 -116v-4q33 0 46.5 -9.5t13.5 -41.5q0 -27 -12 -39t-39 -12q-51 0 -51 51z" />
    <glyph glyph-name="quotedblright" unicode="&#x201d;" horiz-adv-x="405" 
d="M223 452v32q38 0 55.5 28.5t17.5 88.5v4q-3 -1 -9 -1q-27 0 -39 12t-12 39q0 52 51 52q52 0 52 -52v-48q0 -81 -27.5 -118t-88.5 -37zM58 452v32q38 0 55.5 28.5t17.5 88.5v4q-3 -1 -9 -1q-27 0 -39 12t-12 39q0 52 51 52q52 0 52 -52v-48q0 -81 -27.5 -118t-88.5 -37z
" />
    <glyph glyph-name="quotedblbase" unicode="&#x201e;" horiz-adv-x="405" 
d="M223 -160v33q38 0 55.5 28.5t17.5 88.5v3q-32 0 -46 10t-14 41q0 52 51 52q52 0 52 -52v-48q0 -82 -27.5 -119t-88.5 -37zM58 -160v33q38 0 55.5 28.5t17.5 88.5v3q-32 0 -46 10t-14 41q0 52 51 52q52 0 52 -52v-48q0 -82 -27.5 -119t-88.5 -37z" />
    <glyph glyph-name="uni201F" unicode="&#x201f;" horiz-adv-x="405" 
d="M67 607v48q0 52 51 52t51 -52q0 -27 -12 -39t-39 -12q-6 0 -9 1v-4q0 -117 73 -117v-32q-61 0 -88 37t-27 118zM232 607v48q0 52 51 52q27 0 39 -12.5t12 -39.5t-11.5 -39t-39.5 -12q-6 0 -9 1v-4q0 -117 73 -117v-32q-61 0 -88 37t-27 118z" />
    <glyph glyph-name="dagger" unicode="&#x2020;" horiz-adv-x="690" 
d="M630 439h-256v-589h-58v589h-256v55h256v256h58v-256h256v-55z" />
    <glyph glyph-name="daggerdbl" unicode="&#x2021;" horiz-adv-x="690" 
d="M630 439h-256v-278h256v-55h-256v-256h-58v256h-256v55h256v278h-256v55h256v256h58v-256h256v-55z" />
    <glyph glyph-name="bullet" unicode="&#x2022;" horiz-adv-x="303" 
d="M63 270q0 46 20.5 67.5t67.5 21.5q89 0 89 -89q0 -47 -21.5 -67.5t-67.5 -20.5q-48 0 -68 20t-20 68z" />
    <glyph glyph-name="ellipsis" unicode="&#x2026;" horiz-adv-x="707" 
d="M63 48q0 29 13 42t42 13q55 0 55 -55q0 -29 -13 -42t-42 -13t-42 13t-13 42zM353 103q55 0 55 -55q0 -29 -13 -42t-42 -13t-41.5 13t-12.5 42t12.5 42t41.5 13zM534 48q0 29 13 42t42 13q55 0 55 -55q0 -29 -13 -42t-42 -13t-42 13t-13 42z" />
    <glyph glyph-name="perthousand" unicode="&#x2030;" horiz-adv-x="1316" 
d="M530 192q0 104 39.5 151t126.5 47t126 -47t39 -151t-39 -151.5t-126 -47.5t-126.5 47.5t-39.5 151.5zM1101 390q87 0 126.5 -47t39.5 -151t-39.5 -151.5t-126.5 -47.5q-86 0 -125.5 47.5t-39.5 151.5t39.5 151t125.5 47zM215 707q87 0 126.5 -47.5t39.5 -151.5
t-39.5 -151t-126.5 -47q-86 0 -125.5 47t-39.5 151t39.5 151.5t125.5 47.5zM215 365q57 0 82 34t25 109q0 77 -25 110.5t-82 33.5q-56 0 -81.5 -34t-25.5 -110q0 -74 25.5 -108.5t81.5 -34.5zM588 192q0 -75 26 -109.5t82 -34.5t81.5 34.5t25.5 109.5q0 76 -25.5 109.5
t-81.5 33.5t-82 -34t-26 -109zM994 192q0 -75 25.5 -109.5t81.5 -34.5q57 0 82 34.5t25 109.5q0 76 -25 109.5t-82 33.5q-56 0 -81.5 -34t-25.5 -109zM240 -7l-46 32l476 682l46 -32z" />
    <glyph glyph-name="guilsinglleft" unicode="&#x2039;" horiz-adv-x="281" 
d="M50 270l123 257l51 -24l-112 -233l112 -232l-51 -25z" />
    <glyph glyph-name="guilsinglright" unicode="&#x203a;" horiz-adv-x="281" 
d="M58 503l51 24l123 -257l-123 -257l-51 25l111 232z" />
    <glyph glyph-name="fraction" unicode="&#x2044;" horiz-adv-x="161" 
d="M-191 0l488 700h55l-488 -700h-55z" />
    <glyph glyph-name="uni2070" unicode="&#x2070;" horiz-adv-x="365" 
d="M183 754q81 0 117.5 -42.5t36.5 -136.5t-36.5 -136.5t-117.5 -42.5t-118 42.5t-37 136.5t37 136.5t118 42.5zM77 575q0 -69 25.5 -101t80.5 -32q56 0 81 32t25 101q0 71 -25 102.5t-81 31.5q-55 0 -80.5 -32t-25.5 -102z" />
    <glyph glyph-name="uni2074" unicode="&#x2074;" horiz-adv-x="350" 
d="M340 475h-63v-75h-48v75h-209v46l183 229h74v-229h63v-46zM77 521h152v192z" />
    <glyph glyph-name="uni2075" unicode="&#x2075;" horiz-adv-x="339" 
d="M30 501h49q0 -59 89 -59q50 0 73 17t23 54q0 38 -25 55.5t-81 17.5q-71 0 -71 -32h-46v196h248v-47h-202v-93q24 20 86 20q72 0 105.5 -28t33.5 -89q0 -62 -34 -89.5t-110 -27.5q-72 0 -105 25t-33 80z" />
    <glyph glyph-name="uni2076" unicode="&#x2076;" horiz-adv-x="338" 
d="M28 504v126q0 65 33 94.5t106 29.5q72 0 105 -23.5t33 -75.5h-49q0 54 -89 54q-47 0 -68.5 -18.5t-21.5 -58.5v-51q19 38 95 38t110 -26.5t34 -85.5q0 -58 -34 -84.5t-109 -26.5q-76 0 -110.5 26t-34.5 82zM77 508q0 -35 22.5 -50.5t73.5 -15.5q49 0 71.5 15.5t22.5 50.5
t-22 50.5t-72 15.5q-51 0 -73.5 -15.5t-22.5 -50.5z" />
    <glyph glyph-name="uni2077" unicode="&#x2077;" horiz-adv-x="300" 
d="M10 705v45h277v-45l-190 -305h-55l190 305h-222z" />
    <glyph glyph-name="uni2078" unicode="&#x2078;" horiz-adv-x="342" 
d="M81 580q-50 21 -50 81q0 49 33.5 71t107.5 22q73 0 106 -22t33 -71q0 -61 -49 -81q54 -20 54 -85q0 -52 -34.5 -75.5t-110.5 -23.5t-110.5 23.5t-34.5 75.5q0 65 55 85zM171 442q51 0 73.5 14t22.5 44q0 31 -22.5 44.5t-73.5 13.5q-50 0 -73 -13.5t-23 -44.5
q0 -58 96 -58zM80 655q0 -28 22 -40.5t70 -12.5t69 12.5t21 40.5q0 29 -21 41.5t-69 12.5t-70 -13t-22 -41z" />
    <glyph glyph-name="uni2079" unicode="&#x2079;" horiz-adv-x="334" 
d="M164 754q74 0 108 -26t34 -82v-125q0 -66 -33 -95.5t-107 -29.5q-73 0 -106.5 23.5t-33.5 75.5h49q0 -28 21.5 -40.5t69.5 -12.5t69.5 18t21.5 59v50q-17 -41 -93 -41q-74 0 -108 27t-34 86t34 86t108 27zM71 641q0 -36 22 -53t71 -17t71 17t22 53q0 35 -22 51.5
t-71 16.5t-71 -16.5t-22 -51.5z" />
    <glyph glyph-name="uni207A" unicode="&#x207a;" horiz-adv-x="335" 
d="M35 552v46h110v111h46v-111h110v-46h-110v-110h-46v110h-110z" />
    <glyph glyph-name="uni207B" unicode="&#x207b;" horiz-adv-x="335" 
d="M35 552v46h266v-46h-266z" />
    <glyph glyph-name="uni207C" unicode="&#x207c;" horiz-adv-x="336" 
d="M35 616v46h266v-46h-266zM35 534h266v-45h-266v45z" />
    <glyph glyph-name="uni207D" unicode="&#x207d;" horiz-adv-x="187" 
d="M48 563q0 125 29.5 181t94.5 56v-40q-42 0 -61.5 -46.5t-19.5 -150.5q0 -103 19.5 -150.5t61.5 -47.5v-40q-65 0 -94.5 56.5t-29.5 181.5z" />
    <glyph glyph-name="uni207E" unicode="&#x207e;" horiz-adv-x="187" 
d="M15 760v40q65 0 94.5 -56t29.5 -181t-29.5 -181.5t-94.5 -56.5v40q42 0 61.5 47.5t19.5 150.5q0 104 -19.5 150.5t-61.5 46.5z" />
    <glyph glyph-name="uni207F" unicode="&#x207f;" horiz-adv-x="326" 
d="M37 660h49v-35q26 39 95 39q56 0 82 -27t26 -87v-150h-48v150q0 69 -73 69q-44 0 -63 -21t-19 -68v-130h-49v260z" />
    <glyph glyph-name="uni2080" unicode="&#x2080;" horiz-adv-x="365" 
d="M183 254q81 0 117.5 -42.5t36.5 -136.5t-36.5 -136.5t-117.5 -42.5t-118 42.5t-37 136.5t37 136.5t118 42.5zM77 75q0 -69 25.5 -101t80.5 -32q56 0 81 31.5t25 101.5q0 71 -25 102.5t-81 31.5q-55 0 -80.5 -32t-25.5 -102z" />
    <glyph glyph-name="uni2081" unicode="&#x2081;" horiz-adv-x="244" 
d="M18 165l134 85h33v-350h-49v286l-92 -60z" />
    <glyph glyph-name="uni2082" unicode="&#x2082;" horiz-adv-x="319" 
d="M161 254q69 0 101 -25t32 -80q0 -71 -59 -90l-122 -40q-33 -13 -33 -48v-25h216v-46h-264v63q0 74 60 94l121 41q32 11 32 48q0 63 -86 63t-86 -61h-49q0 55 33 80.5t104 25.5z" />
    <glyph glyph-name="uni2083" unicode="&#x2083;" horiz-adv-x="315" 
d="M17 1h49q0 -31 21 -45t67 -14t66.5 14t20.5 44q0 31 -22 44.5t-73 13.5h-18v43h20q47 0 68 13t21 41t-19.5 41t-62.5 13q-81 0 -81 -54h-49q0 52 31 75.5t99 23.5q69 0 100 -22t31 -71q0 -60 -50 -81q54 -22 54 -85q0 -52 -32.5 -75.5t-103.5 -23.5q-72 0 -104.5 25
t-32.5 80z" />
    <glyph glyph-name="uni2084" unicode="&#x2084;" horiz-adv-x="350" 
d="M340 -25h-63v-75h-48v75h-209v46l183 229h74v-229h63v-46zM77 21h152v192z" />
    <glyph glyph-name="uni2085" unicode="&#x2085;" horiz-adv-x="339" 
d="M30 1h49q0 -59 89 -59q50 0 73 17t23 54q0 38 -25 55.5t-81 17.5q-71 0 -71 -32h-46v196h248v-47h-202v-93q24 20 86 20q72 0 105.5 -28t33.5 -89q0 -62 -34 -89.5t-110 -27.5q-72 0 -105 25t-33 80z" />
    <glyph glyph-name="uni2086" unicode="&#x2086;" horiz-adv-x="338" 
d="M28 4v126q0 65 33 94.5t106 29.5q72 0 105 -23.5t33 -75.5h-49q0 54 -89 54q-47 0 -68.5 -18.5t-21.5 -58.5v-51q19 38 95 38t110 -26.5t34 -85.5q0 -58 -34 -84.5t-109 -26.5q-76 0 -110.5 26t-34.5 82zM77 8q0 -35 22.5 -50.5t73.5 -15.5q49 0 71.5 15.5t22.5 50.5
t-22 50.5t-72 15.5q-51 0 -73.5 -15.5t-22.5 -50.5z" />
    <glyph glyph-name="uni2087" unicode="&#x2087;" horiz-adv-x="300" 
d="M10 205v45h277v-45l-190 -305h-55l190 305h-222z" />
    <glyph glyph-name="uni2088" unicode="&#x2088;" horiz-adv-x="342" 
d="M81 80q-50 21 -50 81q0 49 33.5 71t107.5 22q73 0 106 -22t33 -71q0 -61 -49 -81q54 -20 54 -85q0 -52 -34.5 -75.5t-110.5 -23.5t-110.5 23.5t-34.5 75.5q0 65 55 85zM171 -58q51 0 73.5 14t22.5 44q0 31 -22.5 44.5t-73.5 13.5q-50 0 -73 -13.5t-23 -44.5q0 -58 96 -58
zM80 155q0 -28 22 -40.5t70 -12.5t69 12.5t21 40.5q0 29 -21 41.5t-69 12.5t-70 -13t-22 -41z" />
    <glyph glyph-name="uni2089" unicode="&#x2089;" horiz-adv-x="334" 
d="M164 254q74 0 108 -26t34 -82v-125q0 -66 -33 -95.5t-107 -29.5q-73 0 -106.5 23.5t-33.5 75.5h49q0 -28 21.5 -40.5t69.5 -12.5t69.5 18t21.5 59v50q-17 -41 -93 -41q-74 0 -108 27t-34 86t34 86t108 27zM71 141q0 -36 22 -53t71 -17t71 17t22 53q0 35 -22 51.5
t-71 16.5t-71 -16.5t-22 -51.5z" />
    <glyph glyph-name="uni208A" unicode="&#x208a;" horiz-adv-x="335" 
d="M35 52v46h110v111h46v-111h110v-46h-110v-110h-46v110h-110z" />
    <glyph glyph-name="uni208B" unicode="&#x208b;" horiz-adv-x="335" 
d="M35 52v46h266v-46h-266z" />
    <glyph glyph-name="uni208C" unicode="&#x208c;" horiz-adv-x="336" 
d="M35 116v46h266v-46h-266zM35 34h266v-45h-266v45z" />
    <glyph glyph-name="uni208D" unicode="&#x208d;" horiz-adv-x="187" 
d="M48 63q0 125 29.5 181t94.5 56v-40q-42 0 -61.5 -46.5t-19.5 -150.5q0 -103 19.5 -150.5t61.5 -47.5v-40q-65 0 -94.5 56.5t-29.5 181.5z" />
    <glyph glyph-name="uni208E" unicode="&#x208e;" horiz-adv-x="187" 
d="M15 260v40q65 0 94.5 -56t29.5 -181t-29.5 -181.5t-94.5 -56.5v40q42 0 61.5 47.5t19.5 150.5q0 104 -19.5 150.5t-61.5 46.5z" />
    <glyph glyph-name="Euro" unicode="&#x20ac;" horiz-adv-x="881" 
d="M186 296h343v-45h-337q20 -100 87.5 -146t192.5 -46q114 0 180.5 39.5t91.5 123.5h71q-25 -119 -108.5 -174t-234.5 -55q-162 0 -246.5 62t-103.5 196h-107v45h102q-2 17 -2 54t2 54h-102v45h106q20 134 104.5 196t246.5 62q151 0 234.5 -55t108.5 -172h-71
q-26 83 -92 122t-180 39q-125 0 -192.5 -46t-87.5 -146h337v-45h-343q-2 -17 -2 -54t2 -54z" />
    <glyph glyph-name="uni20B4" unicode="&#x20b4;" horiz-adv-x="773" 
d="M52 397v45h523q39 29 39 76q0 123 -213 123q-103 0 -159.5 -30.5t-74.5 -97.5h-71q19 102 91 148t209 46q286 0 286 -186q0 -45 -24 -79h64v-45h-112q-42 -28 -156.5 -50.5t-152.5 -42.5h421v-45h-543q-28 -28 -28 -72q0 -129 222 -129q109 0 168 31t79 98h72
q-22 -102 -96 -148t-215 -46q-297 0 -297 193q0 42 17 73h-49v45h90q29 26 80.5 41t114.5 27.5t95 24.5h-380z" />
    <glyph glyph-name="uni20BF" unicode="&#x20bf;" horiz-adv-x="775" 
d="M99 0v700h128v123h48v-123h171v123h48v-123q101 -4 147 -46.5t46 -131.5q0 -64 -20.5 -102.5t-66.5 -57.5q114 -32 114 -175q0 -98 -51 -142.5t-163 -44.5h-6v-123h-48v123h-171v-123h-48v123h-128zM500 327h-332v-262h332q78 0 113.5 31.5t35.5 100.5q0 68 -35.5 99
t-113.5 31zM168 389h304q84 0 117 28.5t33 94.5q0 64 -35.5 93.5t-112.5 29.5h-306v-246z" />
    <glyph glyph-name="uni2113" unicode="&#x2113;" horiz-adv-x="446" 
d="M46 182v55q36 14 83 41v272q0 70 35.5 114t91.5 44q57 0 94 -46t37 -116q0 -162 -207 -294l1 -123q0 -37 21.5 -61.5t53.5 -24.5q26 0 51 18.5t37 37.5l12 19l33 -34q-2 -4 -6 -10t-18 -22t-29 -28t-38 -22t-46 -10q-51 0 -87 41t-36 100v89zM180 310q155 108 155 235
q0 49 -21.5 80t-56.5 31q-34 0 -55 -29.5t-21 -74.5z" />
    <glyph glyph-name="uni2116" unicode="&#x2116;" horiz-adv-x="1243" 
d="M906 540q0 -62 28.5 -90.5t90.5 -28.5t90.5 28.5t28.5 90.5t-28.5 90t-90.5 28t-90.5 -28t-28.5 -90zM99 700h69l520 -600v600h69v-700h-69l-520 600v-600h-69v700zM869 219v51h325v-51h-325zM856 538q0 89 40 129t129 40q88 0 128.5 -40.5t40.5 -128.5t-40.5 -128.5
t-128.5 -40.5q-89 0 -129 40.5t-40 128.5z" />
    <glyph glyph-name="uni2117" unicode="&#x2117;" horiz-adv-x="853" 
d="M70 351q0 187 84.5 271.5t271.5 84.5t272 -84.5t85 -271.5q0 -188 -85 -273t-272 -85t-271.5 85t-84.5 273zM426 666q-165 0 -240 -75t-75 -241t75 -241t240 -75q166 0 241 75t75 241t-75 241t-241 75zM303 524h175q64 0 92.5 -27t28.5 -86t-28.5 -86.5t-92.5 -27.5h-118
v-123h-57v350zM360 350h113q36 0 52.5 14.5t16.5 46.5q0 61 -69 61h-113v-122z" />
    <glyph glyph-name="trademark" unicode="&#x2122;" horiz-adv-x="892" 
d="M420 700h90l125 -289l123 289h90v-350h-55v301l-129 -301h-59l-129 302v-302h-56v350zM16 700h345v-53h-144v-297h-56v297h-145v53z" />
    <glyph glyph-name="estimated" unicode="&#x212e;" horiz-adv-x="835" 
d="M418 -7q-148 0 -252.5 104.5t-104.5 252.5t104.5 252.5t252.5 104.5t252.5 -104.5t104.5 -252.5h-537v-259q84 -58 180 -58q88 0 163.5 46t117.5 124h44q-43 -96 -131.5 -153t-193.5 -57zM418 667q-99 0 -180 -57v-220h359v220q-81 57 -179 57z" />
    <glyph glyph-name="uni2150" unicode="&#x2150;" horiz-adv-x="735" 
d="M139 0h-55l487 700h55zM445 305v45h277v-45l-190 -305h-55l190 305h-222zM18 615l134 85h33v-350h-49v286l-92 -60z" />
    <glyph glyph-name="uni2151" unicode="&#x2151;" horiz-adv-x="769" 
d="M599 354q74 0 108 -26t34 -82v-125q0 -66 -33 -95.5t-107 -29.5q-73 0 -106 23.5t-33 75.5h48q0 -28 21.5 -40.5t69.5 -12.5t69.5 18t21.5 59v50q-17 -41 -93 -41q-74 0 -107.5 27t-33.5 86t33.5 86t107.5 27zM139 0h-55l487 700h55zM506 241q0 -36 22 -53t71 -17t71 17
t22 53q0 35 -22 51.5t-71 16.5t-71 -16.5t-22 -51.5zM44 576l-26 39l134 85h33v-350h-49v286z" />
    <glyph glyph-name="uni2152" unicode="&#x2152;" horiz-adv-x="1048" 
d="M711 175q0 94 37 136.5t118 42.5t117.5 -42.5t36.5 -136.5t-36.5 -136.5t-117.5 -42.5t-118 42.5t-37 136.5zM760 175q0 -69 25.5 -101t80.5 -32q56 0 81 32t25 101q0 71 -25 102.5t-81 31.5q-55 0 -80.5 -32t-25.5 -102zM142 0h-55l488 700h54zM18 615l134 85h33v-350
h-49v286l-92 -60zM457 265l134 85h33v-350h-49v286l-92 -60z" />
    <glyph glyph-name="onethird" unicode="&#x2153;" horiz-adv-x="751" 
d="M453 101h48q0 -59 88 -59q46 0 66.5 14t20.5 44q0 31 -22 44.5t-73 13.5h-18v43h20q47 0 68 13t21 41q0 54 -81 54q-82 0 -82 -54h-49q0 52 31 75.5t100 23.5q68 0 99 -22t31 -71q0 -60 -50 -81q54 -22 54 -85q0 -52 -32.5 -75.5t-103.5 -23.5q-72 0 -104 24.5t-32 80.5z
M84 0l487 700h55l-487 -700h-55zM44 576l-26 39l134 85h33v-350h-49v286z" />
    <glyph glyph-name="twothirds" unicode="&#x2154;" horiz-adv-x="795" 
d="M161 704q69 0 101 -25t32 -80q0 -71 -59 -90l-122 -40q-33 -13 -33 -48v-25h216v-46h-264v63q0 74 60 94l121 41q32 11 32 48q0 63 -86 63t-86 -61h-49q0 55 33 80.5t104 25.5zM497 101h48q0 -59 88 -59t88 58q0 31 -22.5 44.5t-73.5 13.5h-17v43h19q47 0 68 12.5
t21 41.5t-19 41.5t-62 12.5q-82 0 -82 -54h-49q0 52 31.5 75.5t99.5 23.5t99 -22t31 -71q0 -60 -50 -81q54 -22 54 -85q0 -52 -32.5 -75.5t-103.5 -23.5t-103.5 25t-32.5 80zM183 0h-55l487 700h55z" />
    <glyph glyph-name="uni2155" unicode="&#x2155;" horiz-adv-x="775" 
d="M465 101h49q0 -59 89 -59q50 0 73 17t23 54q0 38 -25 55.5t-81 17.5q-71 0 -71 -32h-45v196h247v-47h-202v-93q26 20 86 20q72 0 105.5 -28t33.5 -89q0 -62 -34 -89.5t-110 -27.5q-71 0 -104.5 25t-33.5 80zM139 0h-55l487 700h55zM44 576l-26 39l134 85h33v-350h-49v286
z" />
    <glyph glyph-name="uni2156" unicode="&#x2156;" horiz-adv-x="819" 
d="M510 101h49q0 -59 88 -59q50 0 73 17t23 54q0 38 -25 55.5t-81 17.5q-70 0 -70 -32h-46v196h247v-47h-201v-93q24 20 86 20q71 0 105 -28t34 -89t-34.5 -89t-110.5 -28q-71 0 -104 25t-33 80zM161 704q69 0 101 -25t32 -80q0 -71 -59 -90l-122 -40q-33 -13 -33 -48v-25
h216v-46h-264v63q0 74 60 94l121 41q32 11 32 48q0 63 -86 63t-86 -61h-49q0 55 33 80.5t104 25.5zM183 0h-55l487 700h55z" />
    <glyph glyph-name="uni2157" unicode="&#x2157;" horiz-adv-x="816" 
d="M507 101h49q0 -59 88 -59q50 0 73 17t23 54q0 38 -25 55.5t-81 17.5q-70 0 -70 -32h-46v196h247v-47h-201v-93q24 20 86 20q71 0 105 -28t34 -89t-34.5 -89t-110.5 -28q-71 0 -104 25t-33 80zM17 451h49q0 -31 21 -45t67 -14t66.5 14t20.5 44q0 31 -22 44.5t-73 13.5h-18
v43h20q47 0 68 13t21 41t-19.5 41t-62.5 13q-81 0 -81 -54h-49q0 52 31 75.5t99 23.5q69 0 100 -22t31 -71q0 -60 -50 -81q54 -22 54 -85q0 -52 -32.5 -75.5t-103.5 -23.5q-72 0 -104.5 25t-32.5 80zM125 0l487 700h55l-487 -700h-55z" />
    <glyph glyph-name="uni2158" unicode="&#x2158;" horiz-adv-x="851" 
d="M340 425h-63v-75h-48v75h-209v46l183 229h74v-229h63v-46zM541 101h49q0 -59 89 -59q50 0 73 17t23 54q0 38 -25 55.5t-81 17.5q-71 0 -71 -32h-46v196h248v-47h-202v-93q26 20 86 20q72 0 105.5 -28t33.5 -89q0 -62 -34 -89.5t-110 -27.5q-72 0 -105 25t-33 80zM214 0
h-54l487 700h55zM77 471h152v192z" />
    <glyph glyph-name="uni2159" unicode="&#x2159;" horiz-adv-x="773" 
d="M464 104v126q0 65 32.5 94.5t105.5 29.5t105.5 -23.5t32.5 -75.5h-49q0 54 -89 54q-47 0 -68.5 -18.5t-21.5 -58.5v-51q19 38 95 38t110 -26.5t34 -85.5q0 -58 -34 -84.5t-109 -26.5q-76 0 -110 26t-34 82zM139 0h-55l487 700h55zM512 108q0 -35 23 -50.5t73 -15.5
q49 0 71.5 15.5t22.5 50.5t-22 50.5t-72 15.5q-51 0 -73.5 -15.5t-22.5 -50.5zM18 615l134 85h33v-350h-49v286l-92 -60z" />
    <glyph glyph-name="uni215A" unicode="&#x215a;" horiz-adv-x="838" 
d="M529 104v126q0 65 33 94.5t105 29.5q73 0 105.5 -23.5t32.5 -75.5h-48q0 54 -90 54q-47 0 -68.5 -18.5t-21.5 -58.5v-51q20 38 95 38q76 0 110.5 -26.5t34.5 -85.5q0 -58 -34.5 -84.5t-109.5 -26.5q-76 0 -110 26t-34 82zM30 451h49q0 -59 89 -59q50 0 73 17t23 54
q0 38 -25 55.5t-81 17.5q-71 0 -71 -32h-46v196h248v-47h-202v-93q24 20 86 20q72 0 105.5 -28t33.5 -89q0 -62 -34 -89.5t-110 -27.5q-72 0 -105 25t-33 80zM204 0h-55l487 700h55zM673 42q50 0 72.5 15.5t22.5 50.5t-22.5 50.5t-72.5 15.5q-51 0 -73.5 -15.5t-22.5 -50.5
t23 -50.5t73 -15.5z" />
    <glyph glyph-name="oneeighth" unicode="&#x215b;" horiz-adv-x="777" 
d="M516 180q-49 20 -49 81q0 49 33 71t107 22t106.5 -22t32.5 -71q0 -61 -49 -81q54 -20 54 -85q0 -52 -34.5 -75.5t-110.5 -23.5t-110 23.5t-34 75.5q0 65 54 85zM84 0l487 700h55l-487 -700h-55zM44 576l-26 39l134 85h33v-350h-49v286zM606 42q51 0 74 14t23 44
q0 31 -23 44.5t-74 13.5q-50 0 -73 -13.5t-23 -44.5q0 -58 96 -58zM607 202q48 0 69.5 12.5t21.5 40.5t-21.5 41t-69.5 13t-70 -13t-22 -41t22 -40.5t70 -12.5z" />
    <glyph glyph-name="threeeighths" unicode="&#x215c;" horiz-adv-x="818" 
d="M557 180q-49 20 -49 81q0 49 33 71t107 22t107 -22t33 -71q0 -60 -50 -81q55 -20 55 -85q0 -52 -34.5 -75.5t-111.5 -23.5q-76 0 -110 23.5t-34 75.5q0 65 54 85zM17 451h49q0 -31 21 -45t67 -14t66.5 14t20.5 44q0 31 -22 44.5t-73 13.5h-18v43h20q47 0 68 13t21 41
t-19.5 41t-62.5 13q-81 0 -81 -54h-49q0 52 31 75.5t99 23.5q69 0 100 -22t31 -71q0 -60 -50 -81q54 -22 54 -85q0 -52 -32.5 -75.5t-103.5 -23.5q-72 0 -104.5 25t-32.5 80zM180 0h-55l487 700h55zM647 42q51 0 74 14t23 44q0 31 -23 44.5t-74 13.5q-50 0 -73 -13.5
t-23 -44.5q0 -58 96 -58zM648 202q48 0 69.5 12.5t21.5 40.5t-21.5 41t-69.5 13t-70 -13t-22 -41t22 -40.5t70 -12.5z" />
    <glyph glyph-name="fiveeighths" unicode="&#x215d;" horiz-adv-x="842" 
d="M581 180q-49 20 -49 81q0 49 33 71t107 22t107 -22t33 -71q0 -60 -50 -81q55 -20 55 -85q0 -52 -34.5 -75.5t-111.5 -23.5q-76 0 -110 23.5t-34 75.5q0 65 54 85zM30 451h49q0 -59 89 -59q50 0 73 17t23 54q0 38 -25 55.5t-81 17.5q-71 0 -71 -32h-46v196h248v-47h-202
v-93q24 20 86 20q72 0 105.5 -28t33.5 -89q0 -62 -34 -89.5t-110 -27.5q-72 0 -105 25t-33 80zM204 0h-55l487 700h55zM575 100q0 -58 96 -58q51 0 74 14t23 44q0 31 -23 44.5t-74 13.5q-50 0 -73 -13.5t-23 -44.5zM580 255q0 -28 22 -40.5t70 -12.5t69.5 12.5t21.5 40.5
t-21.5 41t-69.5 13t-70 -13t-22 -41z" />
    <glyph glyph-name="seveneighths" unicode="&#x215e;" horiz-adv-x="802" 
d="M542 180q-50 20 -50 81q0 49 33.5 71t107.5 22q73 0 106 -22t33 -71q0 -60 -50 -81q55 -20 55 -85q0 -52 -34.5 -75.5t-110.5 -23.5t-110.5 23.5t-34.5 75.5q0 65 55 85zM109 0l487 700h55l-487 -700h-55zM10 700h277v-45l-190 -305h-55l190 305h-222v45zM632 42
q51 0 73.5 14t22.5 44q0 31 -22.5 44.5t-73.5 13.5t-74 -13.5t-23 -44.5q0 -58 97 -58zM540 255q0 -28 22 -40.5t71 -12.5q48 0 69 12.5t21 40.5q0 29 -21 41.5t-69 12.5q-49 0 -71 -13t-22 -41z" />
    <glyph glyph-name="uni215F" unicode="&#x215f;" horiz-adv-x="435" 
d="M84 0l487 700h55l-487 -700h-55zM44 576l-26 39l134 85h33v-350h-49v286z" />
    <glyph glyph-name="uni2189" unicode="&#x2189;" horiz-adv-x="842" 
d="M183 704q81 0 117.5 -42.5t36.5 -136.5t-36.5 -136.5t-117.5 -42.5t-118 42.5t-37 136.5t37 136.5t118 42.5zM77 525q0 -69 25.5 -101t80.5 -32q56 0 81 32t25 101q0 71 -25 102.5t-81 31.5q-55 0 -80.5 -32t-25.5 -102zM544 101h48q0 -59 88 -59q46 0 66.5 14t20.5 44
q0 31 -22 44.5t-73 13.5h-18v43h20q47 0 68 13t21 41t-19.5 41t-62.5 13q-81 0 -81 -54h-49q0 52 31 75.5t99 23.5q69 0 100 -22t31 -71q0 -60 -50 -81q54 -22 54 -85q0 -52 -32.5 -75.5t-103.5 -23.5q-72 0 -104 24.5t-32 80.5zM229 0h-54l487 700h55z" />
    <glyph glyph-name="arrowleft" unicode="&#x2190;" horiz-adv-x="820" 
d="M294 89l-234 261l234 261h76l-209 -232h599v-58h-599l209 -232h-76z" />
    <glyph glyph-name="arrowup" unicode="&#x2191;" horiz-adv-x="820" 
d="M381 599l-232 -209v76l261 234l261 -234v-76l-232 209v-599h-58v599z" />
    <glyph glyph-name="arrowright" unicode="&#x2192;" horiz-adv-x="820" 
d="M60 321v58h599l-209 232h76l234 -261l-234 -261h-76l209 232h-599z" />
    <glyph glyph-name="arrowdown" unicode="&#x2193;" horiz-adv-x="820" 
d="M410 0l-261 234v76l232 -209v599h58v-599l232 209v-76z" />
    <glyph glyph-name="arrowboth" unicode="&#x2194;" horiz-adv-x="820" 
d="M39 350l224 261h75l-199 -232h542l-199 232h75l224 -261l-224 -261h-75l199 232h-542l199 -232h-75z" />
    <glyph glyph-name="arrowupdn" unicode="&#x2195;" horiz-adv-x="820" 
d="M410 -21l-261 224v75l232 -199v542l-232 -199v75l261 224l261 -224v-75l-232 199v-542l232 199v-75z" />
    <glyph glyph-name="uni2196" unicode="&#x2196;" horiz-adv-x="820" 
d="M144 248l19 349l349 19l54 -53l-312 -16l424 -424l-41 -41l-424 424l-16 -312z" />
    <glyph glyph-name="uni2197" unicode="&#x2197;" horiz-adv-x="820" 
d="M144 123l424 424l-312 16l54 53l349 -19l19 -349l-53 -54l-16 311l-424 -423z" />
    <glyph glyph-name="uni2198" unicode="&#x2198;" horiz-adv-x="820" 
d="M567 151l-423 424l41 41l424 -423l16 311l53 -54l-19 -349l-349 -19l-54 53z" />
    <glyph glyph-name="uni2199" unicode="&#x2199;" horiz-adv-x="820" 
d="M163 101l-19 349l53 54l16 -312l424 424l41 -41l-423 -424l311 -16l-54 -53z" />
    <glyph glyph-name="uni21E4" unicode="&#x21e4;" horiz-adv-x="895" 
d="M353 137l-192 213l192 213h75l-167 -184h574v-58h-574l167 -184h-75zM60 563h51v-426h-51v426z" />
    <glyph glyph-name="uni21E5" unicode="&#x21e5;" horiz-adv-x="895" 
d="M60 321v58h574l-167 184h76l191 -213l-191 -213h-76l167 184h-574zM835 137h-51v426h51v-426z" />
    <glyph glyph-name="uni21E6" unicode="&#x21e6;" horiz-adv-x="811" 
d="M421 -31l-380 381l380 381v-214h330v-333h-330v-215zM115 350l269 -269v154h313v230h-313v154z" />
    <glyph glyph-name="uni21E7" unicode="&#x21e7;" horiz-adv-x="861" 
d="M264 330h-214l381 380l380 -380h-214v-330h-333v330zM431 636l-269 -269h153v-313h231v313h154z" />
    <glyph glyph-name="uni21E8" unicode="&#x21e8;" horiz-adv-x="811" 
d="M61 184v333h329v214l381 -381l-381 -381v215h-329zM115 465v-230h313v-154l269 269l-269 269v-154h-313z" />
    <glyph glyph-name="uni21E9" unicode="&#x21e9;" horiz-adv-x="861" 
d="M431 -10l-381 381h214v329h333v-329h214zM315 333h-153l269 -269l269 269h-154v313h-231v-313z" />
    <glyph glyph-name="uni21EA" unicode="&#x21ea;" horiz-adv-x="861" 
d="M264 330h-214l381 380l380 -380h-214v-186h-333v186zM431 639l-269 -269h153v-175h231v175h154zM264 83h333v-213h-333v213zM313 -85h235v124h-235v-124z" />
    <glyph glyph-name="emptyset" unicode="&#x2205;" horiz-adv-x="831" 
d="M56 350q0 148 106 254t254 106q99 0 183 -51l57 80l44 -29l-57 -82q62 -51 97.5 -123t35.5 -155q0 -149 -105.5 -254.5t-254.5 -105.5q-98 0 -184 51l-55 -81l-45 30l56 82q-61 50 -96.5 123t-35.5 155zM265 89q69 -41 151 -41q125 0 213.5 88.5t88.5 213.5
q0 139 -108 231zM416 653q-125 0 -214 -89t-89 -214q0 -139 109 -231l344 493q-72 41 -150 41z" />
    <glyph glyph-name="product" unicode="&#x220f;" horiz-adv-x="745" 
d="M165 -150h-59v885h533v-885h-58v830h-416v-830z" />
    <glyph glyph-name="uni2210" unicode="&#x2210;" horiz-adv-x="745" 
d="M106 735h58l1 -830h416v830h58v-885h-533v885z" />
    <glyph glyph-name="summation" unicode="&#x2211;" horiz-adv-x="621" 
d="M602 -150h-551v62l296 413l-296 413v62h536v-65h-457l295 -410l-295 -410h472v-65z" />
    <glyph glyph-name="minus" unicode="&#x2212;" horiz-adv-x="670" 
d="M73 319v62h524v-62h-524z" />
    <glyph glyph-name="radical" unicode="&#x221a;" horiz-adv-x="617" 
d="M7 145l128 84h19l173 -269l226 847l58 -12l-253 -945h-27l-202 313l-94 -61z" />
    <glyph glyph-name="integral" unicode="&#x222b;" horiz-adv-x="277" 
d="M-42 -154v62h29q62 0 90.5 35.5t28.5 113.5v536q0 111 43 160.5t138 49.5h33v-62h-30q-62 0 -90.5 -35t-28.5 -113v-536q0 -111 -43 -161t-138 -50h-32z" />
    <glyph glyph-name="approxequal" unicode="&#x2248;" horiz-adv-x="670" 
d="M71 379q0 148 133 148q42 0 78.5 -15t59 -33t53.5 -33t63 -15q84 0 84 93h55q0 -148 -136 -148q-42 0 -78.5 15t-58.5 33t-53 33t-63 15q-81 0 -81 -93h-56zM127 176h-56q0 148 133 148q42 0 78.5 -15t59 -33t53.5 -33t63 -15q84 0 84 93h55q0 -148 -136 -148
q-42 0 -78.5 15t-58.5 32.5t-53 32.5t-63 15q-81 0 -81 -92z" />
    <glyph glyph-name="notequal" unicode="&#x2260;" horiz-adv-x="670" 
d="M597 192h-326l-72 -125h-55l72 125h-143v62h179l111 192h-290v62h326l72 125h55l-72 -125h143v-62h-179l-111 -192h290v-62z" />
    <glyph glyph-name="lessequal" unicode="&#x2264;" horiz-adv-x="670" 
d="M582 200l-518 193v70l518 193v-67l-439 -161l439 -161v-67zM588 52h-524v62h524v-62z" />
    <glyph glyph-name="greaterequal" unicode="&#x2265;" horiz-adv-x="670" 
d="M606 393l-518 -193v67l439 161l-439 161v67l518 -193v-70zM606 52h-524v62h524v-62z" />
    <glyph glyph-name="circleplus" unicode="&#x2295;" horiz-adv-x="846" 
d="M66 350q0 148 104.5 252.5t252.5 104.5t252.5 -104.5t104.5 -252.5t-104.5 -252.5t-252.5 -104.5t-252.5 104.5t-104.5 252.5zM126 378h272v269q-108 -9 -185 -85.5t-87 -183.5zM398 323h-272q10 -108 87 -184.5t185 -85.5v270zM720 323h-271v-270q107 9 184 85.5
t87 184.5zM449 378h271q-10 107 -87 183.5t-184 85.5v-269z" />
    <glyph glyph-name="uni2296" unicode="&#x2296;" horiz-adv-x="846" 
d="M66 350q0 148 104.5 252.5t252.5 104.5t252.5 -104.5t104.5 -252.5t-104.5 -252.5t-252.5 -104.5t-252.5 104.5t-104.5 252.5zM720 323h-594q11 -115 96 -193t201 -78t201 78.5t96 192.5zM126 378h594q-11 114 -96 192t-201 78t-201 -78t-96 -192z" />
    <glyph glyph-name="circlemultiply" unicode="&#x2297;" horiz-adv-x="846" 
d="M170 602q105 105 253 105q149 0 252 -105q105 -104 105 -252t-105 -252q-103 -105 -252 -105q-148 0 -253 105q-104 104 -104 252t104 252zM193 159l193 193l-191 191q-71 -83 -71.5 -192t69.5 -192zM615 122l-190 191l-193 -193q82 -69 191 -69t192 71zM461 349
l191 -191q69 83 69.5 191.5t-69.5 191.5zM422 388l192 192q-82 69 -191 69t-192 -70z" />
    <glyph glyph-name="uni2298" unicode="&#x2298;" horiz-adv-x="846" 
d="M170 602q105 105 253 105q149 0 252 -105q105 -104 105 -252t-105 -252q-103 -105 -252 -105q-148 0 -253 105q-104 104 -104 252t104 252zM193 159l421 421q-81 68 -191 68q-124 0 -211 -87q-83 -82 -88 -198.5t69 -203.5zM652 541l-420 -421q81 -68 191 -68
q124 0 211 87q82 82 87 198.5t-69 203.5z" />
    <glyph glyph-name="uni2303" unicode="&#x2303;" horiz-adv-x="707" 
d="M108 388l-37 37l282 283l283 -283l-36 -37l-247 245z" />
    <glyph glyph-name="uni2318" unicode="&#x2318;" horiz-adv-x="833" 
d="M62 117q0 51 36 87.5t88 36.5h76v219h-76q-52 0 -88 36t-36 88q0 51 36 87t88 36q51 0 87 -36t36 -87v-77h215v77q0 51 36 87t88 36q51 0 87.5 -36t36.5 -87q0 -52 -36.5 -88t-87.5 -36h-76v-219h76q51 0 87.5 -36.5t36.5 -87.5q0 -52 -36.5 -88t-87.5 -36q-52 0 -88 36
t-36 88v76h-215v-76q0 -52 -36 -88t-87 -36q-52 0 -88 36t-36 88zM309 462v-224h215v224h-215zM186 660q-32 0 -54.5 -22.5t-22.5 -53.5q0 -32 22.5 -54.5t54.5 -22.5h76v77q0 31 -22.5 53.5t-53.5 22.5zM186 193q-32 0 -54.5 -22t-22.5 -54t22.5 -54t54.5 -22
q31 0 53.5 22.5t22.5 53.5v76h-76zM648 660q-32 0 -54 -22.5t-22 -53.5v-77h76q32 0 54 22.5t22 54.5q0 31 -22.5 53.5t-53.5 22.5zM648 193h-76v-76q0 -32 22 -54t54 -22t54 22.5t22 53.5t-22 53.5t-54 22.5z" />
    <glyph glyph-name="uni2325" unicode="&#x2325;" horiz-adv-x="851" 
d="M48 700h279l232 -652h245v-48h-280l-231 652h-245v48zM479 652v48h309v-48h-309z" />
    <glyph glyph-name="uni2326" unicode="&#x2326;" horiz-adv-x="1065" 
d="M76 0v700h668l295 -350l-295 -350h-668zM129 650v-600h592l251 300l-251 300h-592zM427 350l-193 193l35 35l193 -193l192 193l35 -35l-192 -193l192 -192l-35 -36l-192 193l-193 -193l-35 36z" />
    <glyph glyph-name="uni2327" unicode="&#x2327;" horiz-adv-x="857" 
d="M76 0v700h705v-700h-705zM129 650v-600h599v600h-599zM236 122l-35 36l192 192l-192 193l35 35l193 -193l192 193l35 -35l-192 -193l192 -192l-35 -36l-192 193z" />
    <glyph glyph-name="uni232B" unicode="&#x232b;" horiz-adv-x="1065" 
d="M989 0h-668l-295 350l295 350h668v-700zM936 650h-592l-252 -300l252 -300h592v600zM638 350l193 -192l-36 -36l-192 193l-192 -193l-36 36l193 192l-193 193l36 35l192 -193l192 193l36 -35z" />
    <glyph glyph-name="uni23CE" unicode="&#x23ce;" horiz-adv-x="772" 
d="M51 270l180 200h75l-155 -171h499v296h-259v58h316v-412h-556l155 -170h-75z" />
    <glyph glyph-name="uni23CF" unicode="&#x23cf;" horiz-adv-x="640" 
d="M320 640l300 -300h-600zM20 90v180h600v-180h-600z" />
    <glyph glyph-name="uni23E9" unicode="&#x23e9;" horiz-adv-x="720" 
d="M60 650l300 -265v265l340 -300l-340 -300v265l-300 -265v600z" />
    <glyph glyph-name="uni23EA" unicode="&#x23ea;" horiz-adv-x="720" 
d="M360 50l-340 300l340 300v-265l300 265v-600l-300 265v-265z" />
    <glyph glyph-name="uni23ED" unicode="&#x23ed;" horiz-adv-x="840" 
d="M60 650l300 -265v265l300 -265v265h120v-600h-120v265l-300 -265v265l-300 -265v600z" />
    <glyph glyph-name="uni23EE" unicode="&#x23ee;" horiz-adv-x="840" 
d="M60 50v600h120v-265l300 265v-265l300 265v-600l-300 265v-265l-300 265v-265h-120z" />
    <glyph glyph-name="uni23F4" unicode="&#x23f4;" horiz-adv-x="380" 
d="M320 650v-600l-300 300z" />
    <glyph glyph-name="uni23F5" unicode="&#x23f5;" horiz-adv-x="380" 
d="M360 350l-300 -300v600z" />
    <glyph glyph-name="uni23F6" unicode="&#x23f6;" horiz-adv-x="640" 
d="M320 480l300 -300h-600z" />
    <glyph glyph-name="uni23F7" unicode="&#x23f7;" horiz-adv-x="640" 
d="M320 180l-300 300h600z" />
    <glyph glyph-name="uni23F8" unicode="&#x23f8;" horiz-adv-x="630" 
d="M370 50v600h200v-600h-200zM60 50v600h200v-600h-200z" />
    <glyph glyph-name="uni2423" unicode="&#x2423;" horiz-adv-x="702" 
d="M46 0h48v-104h514v104h48v-149h-610v149z" />
    <glyph glyph-name="uni2460" unicode="&#x2460;" horiz-adv-x="953" 
d="M476 -57q-213 0 -309.5 97t-96.5 311q0 213 96 309.5t310 96.5t310.5 -96.5t96.5 -309.5q0 -214 -96.5 -311t-310.5 -97zM119 350q0 -187 85 -272t272 -85t272 85t85 272q0 188 -84.5 272.5t-272.5 84.5q-187 0 -272 -85t-85 -272zM379 401l-26 39l134 85h34v-350h-49
v286z" />
    <glyph glyph-name="uni2461" unicode="&#x2461;" horiz-adv-x="953" 
d="M476 -57q-213 0 -309.5 97t-96.5 311q0 213 96 309.5t310 96.5t310.5 -96.5t96.5 -309.5q0 -214 -96.5 -311t-310.5 -97zM476 707q-187 0 -272 -85t-85 -272t85 -272t272 -85t272 85t85 272q0 188 -84.5 272.5t-272.5 84.5zM343 423q0 56 32.5 81t103.5 25
q70 0 101.5 -25t31.5 -80q0 -71 -59 -90l-121 -40q-34 -12 -34 -48v-25h217v-46h-265v63q0 74 61 94l120 41q33 11 33 48q0 63 -86 63t-86 -61h-49z" />
    <glyph glyph-name="uni2462" unicode="&#x2462;" horiz-adv-x="953" 
d="M476 -57q-213 0 -309.5 97t-96.5 311q0 213 96 309.5t310 96.5t310.5 -96.5t96.5 -309.5q0 -214 -96.5 -311t-310.5 -97zM476 707q-187 0 -272 -85t-85 -272t85 -272t272 -85t272 85t85 272q0 188 -84.5 272.5t-272.5 84.5zM334 276h48q0 -59 88 -59t88 58
q0 31 -22.5 44.5t-73.5 13.5h-17v43h19q47 0 68 12.5t21 41.5q0 28 -19 41t-62 13q-82 0 -82 -54h-49q0 52 31.5 75.5t99.5 23.5t99 -22t31 -71q0 -62 -53 -81q57 -20 57 -85q0 -52 -32.5 -75.5t-103.5 -23.5t-103.5 25t-32.5 80z" />
    <glyph glyph-name="uni2463" unicode="&#x2463;" horiz-adv-x="953" 
d="M476 -57q-213 0 -309.5 97t-96.5 311q0 213 96 309.5t310 96.5t310.5 -96.5t96.5 -309.5q0 -214 -96.5 -311t-310.5 -97zM119 350q0 -187 85 -272t272 -85t272 85t85 272q0 188 -84.5 272.5t-272.5 84.5q-187 0 -272 -85t-85 -272zM302 296l183 229h75v-229h62v-46h-62
v-75h-49v75h-209v46zM511 479l-154 -186h154v186z" />
    <glyph glyph-name="uni2464" unicode="&#x2464;" horiz-adv-x="953" 
d="M476 -57q-213 0 -309.5 97t-96.5 311q0 213 96 309.5t310 96.5t310.5 -96.5t96.5 -309.5q0 -214 -96.5 -311t-310.5 -97zM119 350q0 -187 85 -272t272 -85t272 85t85 272q0 188 -84.5 272.5t-272.5 84.5q-187 0 -272 -85t-85 -272zM339 278h49q0 -62 88 -62q50 0 73 18
t23 56q0 39 -25 56.5t-81 17.5q-70 0 -70 -33h-46v195h247v-45h-201v-95q24 21 86 21q72 0 105.5 -28.5t33.5 -89.5t-34.5 -89t-110.5 -28q-71 0 -104 25.5t-33 80.5z" />
    <glyph glyph-name="uni2465" unicode="&#x2465;" horiz-adv-x="953" 
d="M70 351q0 213 96 309.5t310 96.5t310.5 -96.5t96.5 -309.5q0 -214 -96.5 -311t-310.5 -97q-213 0 -309.5 97t-96.5 311zM477 707q-188 0 -273 -85t-85 -272t85.5 -272t272.5 -85t271.5 85t84.5 272t-84.5 272t-271.5 85zM333 405q0 65 33 94.5t108 29.5q71 0 103 -23
t32 -75h-48q0 53 -88 53q-49 0 -70.5 -18.5t-21.5 -59.5v-50q21 37 100 37q72 0 106 -26.5t34 -84.5t-34.5 -84.5t-110.5 -26.5q-75 0 -109 26t-34 82v126zM477 349q-51 0 -73.5 -15.5t-22.5 -50.5t23 -50.5t73 -15.5t72.5 15.5t22.5 50.5t-22.5 50.5t-72.5 15.5z" />
    <glyph glyph-name="uni2466" unicode="&#x2466;" horiz-adv-x="953" 
d="M476 -57q-213 0 -309.5 97t-96.5 311q0 213 96 309.5t310 96.5t310.5 -96.5t96.5 -309.5q0 -214 -96.5 -311t-310.5 -97zM476 707q-187 0 -272 -85t-85 -272t85 -272t272 -85t272 85t85 272q0 188 -84.5 272.5t-272.5 84.5zM345 480v45h277v-45l-190 -305h-55l190 305
h-222z" />
    <glyph glyph-name="uni2467" unicode="&#x2467;" horiz-adv-x="953" 
d="M476 -57q-213 0 -309.5 97t-96.5 311q0 213 96 309.5t310 96.5t310.5 -96.5t96.5 -309.5q0 -214 -96.5 -311t-310.5 -97zM119 350q0 -187 85 -272t272 -85t272 85t85 272q0 188 -84.5 272.5t-272.5 84.5q-187 0 -272 -85t-85 -272zM476 171q-76 0 -110 23.5t-34 75.5
q0 66 58 85q-53 21 -53 81q0 49 33 71t107 22t107 -22t33 -71q0 -61 -54 -81q59 -19 59 -85q0 -52 -34.5 -75.5t-111.5 -23.5zM380 275q0 -58 96 -58q51 0 74 14t23 44q0 31 -23 44.5t-74 13.5q-50 0 -73 -13.5t-23 -44.5zM385 430q0 -28 22 -40.5t70 -12.5t69.5 12.5
t21.5 40.5t-21.5 41t-69.5 13t-70 -13t-22 -41z" />
    <glyph glyph-name="uni2468" unicode="&#x2468;" horiz-adv-x="953" 
d="M476 -57q-213 0 -309.5 97t-96.5 311q0 213 96 309.5t310 96.5t310.5 -96.5t96.5 -309.5q0 -214 -96.5 -311t-310.5 -97zM119 350q0 -187 85.5 -272t272.5 -85t271.5 85t84.5 272t-84.5 272t-271.5 85q-188 0 -273 -85t-85 -272zM338 417q0 59 33.5 85.5t108.5 26.5
q73 0 107 -26t34 -82v-125q0 -66 -33.5 -95.5t-108.5 -29.5q-72 0 -104.5 23t-32.5 75h48q0 -52 88 -52q50 0 72.5 18.5t22.5 59.5v50q-18 -41 -98 -41q-71 0 -104 27t-33 86zM479 483q-49 0 -71.5 -16.5t-22.5 -51.5q0 -36 22.5 -52.5t71.5 -16.5q48 0 70.5 16.5t22.5 52.5
q0 68 -93 68z" />
    <glyph glyph-name="uni24EA" unicode="&#x24ea;" horiz-adv-x="953" 
d="M476 -57q-213 0 -309.5 97t-96.5 311q0 213 96 309.5t310 96.5t310.5 -96.5t96.5 -309.5q0 -214 -96.5 -311t-310.5 -97zM476 707q-187 0 -272 -85t-85 -272t85 -272t272 -85t272 85t85 272q0 188 -84.5 272.5t-272.5 84.5zM477 171q-81 0 -118 42.5t-37 136.5t37 136.5
t118 42.5t117.5 -42.5t36.5 -136.5t-36.5 -136.5t-117.5 -42.5zM370 350q0 -69 25.5 -101t81.5 -32t81 32t25 101q0 71 -25 102.5t-81 31.5t-81.5 -32t-25.5 -102z" />
    <glyph glyph-name="uni24FF" unicode="&#x24ff;" horiz-adv-x="953" 
d="M476 -57q-213 0 -309.5 97t-96.5 311q0 213 96 309.5t310 96.5t310.5 -96.5t96.5 -309.5q0 -214 -96.5 -311t-310.5 -97zM477 529q-81 0 -118 -42.5t-37 -136.5t37 -136.5t118 -42.5t117.5 42.5t36.5 136.5t-36.5 136.5t-117.5 42.5zM370 350q0 70 25.5 102t81.5 32
t81 -31.5t25 -102.5q0 -69 -25 -101t-81 -32t-81.5 32t-25.5 101z" />
    <glyph glyph-name="filledbox" unicode="&#x25a0;" horiz-adv-x="912" 
d="M106 0v700h700v-700h-700z" />
    <glyph glyph-name="uni25A1" unicode="&#x25a1;" horiz-adv-x="912" 
d="M106 0v700h700v-700h-700zM748 642h-583v-584h583v584z" />
    <glyph glyph-name="triagup" unicode="&#x25b2;" horiz-adv-x="892" 
d="M446 720l416 -720h-832z" />
    <glyph glyph-name="uni25B3" unicode="&#x25b3;" horiz-adv-x="892" 
d="M862 0h-832l416 720zM763 58l-317 549l-317 -549h634z" />
    <glyph glyph-name="triagrt" unicode="&#x25ba;" horiz-adv-x="986" 
d="M956 375l-850 -375v750z" />
    <glyph glyph-name="triagdn" unicode="&#x25bc;" horiz-adv-x="892" 
d="M446 -20l-416 720h832z" />
    <glyph glyph-name="uni25BD" unicode="&#x25bd;" horiz-adv-x="892" 
d="M446 -20l-416 720h832zM446 94l317 548h-634z" />
    <glyph glyph-name="triaglf" unicode="&#x25c4;" horiz-adv-x="986" 
d="M30 375l850 375v-750z" />
    <glyph glyph-name="lozenge" unicode="&#x25ca;" horiz-adv-x="487" 
d="M218 700h51l188 -350l-188 -350h-51l-188 350zM243 632l-151 -282l151 -282l152 282z" />
    <glyph glyph-name="circle" unicode="&#x25cb;" horiz-adv-x="846" 
d="M423 707q148 0 252.5 -104.5t104.5 -252.5t-104.5 -252.5t-252.5 -104.5t-252.5 104.5t-104.5 252.5t104.5 252.5t252.5 104.5zM125 350q0 -124 87 -211t211 -87t211 87t87 211t-87 211t-211 87t-211 -87t-87 -211z" />
    <glyph glyph-name="uni25CF" unicode="&#x25cf;" horiz-adv-x="846" 
d="M66 350q0 148 104.5 252.5t252.5 104.5t252.5 -104.5t104.5 -252.5t-104.5 -252.5t-252.5 -104.5t-252.5 104.5t-104.5 252.5z" />
    <glyph glyph-name="uni25D0" unicode="&#x25d0;" horiz-adv-x="846" 
d="M66 350q0 148 104.5 252.5t252.5 104.5t252.5 -104.5t104.5 -252.5t-104.5 -252.5t-252.5 -104.5t-252.5 104.5t-104.5 252.5zM423 648v-596q124 0 211 87t87 211t-87 211t-211 87z" />
    <glyph glyph-name="uni25D1" unicode="&#x25d1;" horiz-adv-x="846" 
d="M423 707q148 0 252.5 -104.5t104.5 -252.5t-104.5 -252.5t-252.5 -104.5t-252.5 104.5t-104.5 252.5t104.5 252.5t252.5 104.5zM423 52v596q-124 0 -211 -87t-87 -211t87 -211t211 -87z" />
    <glyph glyph-name="uni25D2" unicode="&#x25d2;" horiz-adv-x="846" 
d="M66 350q0 148 104.5 252.5t252.5 104.5t252.5 -104.5t104.5 -252.5t-104.5 -252.5t-252.5 -104.5t-252.5 104.5t-104.5 252.5zM125 350h596q0 124 -87 211t-211 87t-211 -87t-87 -211z" />
    <glyph glyph-name="uni25D3" unicode="&#x25d3;" horiz-adv-x="846" 
d="M423 707q148 0 252.5 -104.5t104.5 -252.5t-104.5 -252.5t-252.5 -104.5t-252.5 104.5t-104.5 252.5t104.5 252.5t252.5 104.5zM423 52q124 0 211 87t87 211h-596q0 -124 87 -211t211 -87z" />
    <glyph glyph-name="uni25D4" unicode="&#x25d4;" horiz-adv-x="846" 
d="M423 707q148 0 252.5 -104.5t104.5 -252.5t-104.5 -252.5t-252.5 -104.5t-252.5 104.5t-104.5 252.5t104.5 252.5t252.5 104.5zM125 350q0 -124 87 -211t211 -87t211 87t87 211h-298v298q-124 0 -211 -87t-87 -211z" />
    <glyph glyph-name="uni25D5" unicode="&#x25d5;" horiz-adv-x="846" 
d="M66 350q0 148 104.5 252.5t252.5 104.5t252.5 -104.5t104.5 -252.5t-104.5 -252.5t-252.5 -104.5t-252.5 104.5t-104.5 252.5zM125 350h298v298q-124 0 -211 -87t-87 -211z" />
    <glyph glyph-name="uni25D6" unicode="&#x25d6;" horiz-adv-x="529" 
d="M423 707v-714q-148 0 -252.5 104.5t-104.5 252.5t104.5 252.5t252.5 104.5z" />
    <glyph glyph-name="uni25D7" unicode="&#x25d7;" horiz-adv-x="529" 
d="M106 -7v714q148 0 252.5 -104.5t104.5 -252.5t-104.5 -252.5t-252.5 -104.5z" />
    <glyph glyph-name="invcircle" unicode="&#x25d9;" horiz-adv-x="912" 
d="M106 0v700h700v-700h-700zM456 53q122 0 209.5 87.5t87.5 209.5t-87.5 209.5t-209.5 87.5t-209.5 -87.5t-87.5 -209.5t87.5 -209.5t209.5 -87.5zM218 350q0 98 70 168t168 70t168 -70t70 -168t-70 -168t-168 -70t-168 70t-70 168z" />
    <glyph glyph-name="uni25DA" unicode="&#x25da;" horiz-adv-x="912" 
d="M218 350q0 98 70 168t168 70t168 -70t70 -168h-476zM106 350v350h700v-350h-53q0 122 -87.5 209.5t-209.5 87.5t-209.5 -87.5t-87.5 -209.5h-53z" />
    <glyph glyph-name="uni25DB" unicode="&#x25db;" horiz-adv-x="912" 
d="M456 112q-98 0 -168 70t-70 168h476q0 -98 -70 -168t-168 -70zM106 0v350h53q0 -122 87.5 -209.5t209.5 -87.5t209.5 87.5t87.5 209.5h53v-350h-700z" />
    <glyph glyph-name="uni25E7" unicode="&#x25e7;" horiz-adv-x="912" 
d="M106 0v700h700v-700h-700zM456 642v-584h292v584h-292z" />
    <glyph glyph-name="uni25E8" unicode="&#x25e8;" horiz-adv-x="912" 
d="M106 700h700v-700h-700v700zM165 58h291v584h-291v-584z" />
    <glyph glyph-name="uni25E9" unicode="&#x25e9;" horiz-adv-x="912" 
d="M106 0v700h700v-700h-700zM748 642l-583 -584h583v584z" />
    <glyph glyph-name="uni25EA" unicode="&#x25ea;" horiz-adv-x="912" 
d="M106 0v700h700v-700h-700zM748 642h-583v-584z" />
    <glyph glyph-name="uni2605" unicode="&#x2605;" horiz-adv-x="797" 
d="M632 -10l-234 163l-233 -163l82 273l-227 172l285 6l93 269l94 -269l285 -6l-227 -172z" />
    <glyph glyph-name="uni262F" unicode="&#x262f;" horiz-adv-x="870" 
d="M80 350q0 147 104 251t251 104t251 -104t104 -251t-104 -251t-251 -104t-251 104t-104 251zM435 685q-139 0 -237 -98t-98 -237q0 -70 49 -119t119 -49q69 0 118 49t49 119q0 69 49 118t119 49q69 0 118 -49t49 -118q0 139 -98 237t-237 98zM603 400q-20 0 -35 -15
t-15 -35q0 -21 15 -35.5t35 -14.5q21 0 35.5 14.5t14.5 35.5q0 20 -14.5 35t-35.5 15zM217 350q0 20 15 35t35 15q21 0 35.5 -15t14.5 -35q0 -21 -14.5 -35.5t-35.5 -14.5q-20 0 -35 14.5t-15 35.5z" />
    <glyph glyph-name="uni2668" unicode="&#x2668;" horiz-adv-x="781" 
d="M30 165q0 42 39.5 79t107.5 61l7 -22q-53 -18 -83 -43t-30 -54q0 -53 93.5 -90.5t226.5 -37.5q132 0 225.5 37.5t93.5 90.5q0 29 -30 54.5t-83 42.5l7 22q68 -25 107.5 -61t39.5 -79q0 -73 -105.5 -124t-254.5 -51t-255 51t-106 124zM382 275q0 46 -29 116.5t-29 122.5
q0 34 8.5 66t20 54.5t23.5 39.5t20 26l9 8l9 -5q-5 -5 -12.5 -15t-20.5 -48t-13 -85q0 -62 28.5 -129.5t28.5 -103.5q0 -43 -20.5 -93t-40.5 -78l-20 -28l-9 5q5 7 13 20t21 51.5t13 75.5zM175 487q0 50 20.5 95.5t40.5 65.5l20 21l9 -5q-5 -5 -12.5 -14t-20.5 -44.5
t-13 -79.5q0 -58 28.5 -121t28.5 -97q0 -40 -20 -86t-40 -72l-20 -27l-10 5q5 7 13 19t21 47.5t13 70.5q0 43 -29 108.5t-29 113.5zM467 488q0 50 20.5 95t40.5 65l20 21l9 -5q-5 -5 -12.5 -14t-20.5 -44.5t-13 -79.5q0 -58 28.5 -121t28.5 -97q0 -40 -20 -86.5t-40 -72.5
l-20 -26l-9 5q5 7 13 19t21 47.5t13 70.5q0 43 -29.5 109t-29.5 114z" />
    <glyph glyph-name="uni26D4" unicode="&#x26d4;" horiz-adv-x="846" 
d="M66 350q0 148 104.5 252.5t252.5 104.5t252.5 -104.5t104.5 -252.5t-104.5 -252.5t-252.5 -104.5t-252.5 104.5t-104.5 252.5zM656 394h-466v-88h466v88z" />
    <glyph glyph-name="uni2709" unicode="&#x2709;" horiz-adv-x="1152" 
d="M76 0v700h1000v-700h-1000zM155 650l422 -404l420 404h-842zM577 180l-143 137l-279 -267h842l-277 267zM129 93l266 257l-266 257v-514zM758 350l266 -257v514z" />
    <glyph glyph-name="uni278A" unicode="&#x278a;" horiz-adv-x="953" 
d="M476 -57q-213 0 -309.5 97t-96.5 311q0 213 96 309.5t310 96.5t310.5 -96.5t96.5 -309.5q0 -214 -96.5 -311t-310.5 -97zM353 440l26 -39l93 60v-286h49v350h-34z" />
    <glyph glyph-name="uni278B" unicode="&#x278b;" horiz-adv-x="953" 
d="M476 -57q-213 0 -309.5 97t-96.5 311q0 213 96 309.5t310 96.5t310.5 -96.5t96.5 -309.5q0 -214 -96.5 -311t-310.5 -97zM479 529q-71 0 -103.5 -25t-32.5 -81h49q0 61 86 61t86 -63q0 -37 -33 -48l-120 -41q-61 -20 -61 -94v-63h265v46h-217v25q0 36 34 48l121 40
q59 19 59 90q0 55 -31.5 80t-101.5 25z" />
    <glyph glyph-name="uni278C" unicode="&#x278c;" horiz-adv-x="953" 
d="M70 351q0 213 96 309.5t310 96.5t310.5 -96.5t96.5 -309.5q0 -214 -96.5 -311t-310.5 -97q-213 0 -309.5 97t-96.5 311zM382 276h-48q0 -55 32.5 -80t103.5 -25t103.5 23.5t32.5 75.5q0 65 -57 85q53 19 53 81q0 49 -31 71t-99 22t-99.5 -23.5t-31.5 -75.5h49q0 54 82 54
q43 0 62 -13t19 -41q0 -29 -21 -41.5t-68 -12.5h-19v-43h17q51 0 73.5 -13.5t22.5 -44.5q0 -58 -88 -58t-88 59z" />
    <glyph glyph-name="uni278D" unicode="&#x278d;" horiz-adv-x="953" 
d="M70 351q0 213 96 309.5t310 96.5t310.5 -96.5t96.5 -309.5q0 -214 -96.5 -311t-310.5 -97q-213 0 -309.5 97t-96.5 311zM302 296v-46h209v-75h49v75h62v46h-62v229h-75zM511 293h-154l154 186v-186z" />
    <glyph glyph-name="uni278E" unicode="&#x278e;" horiz-adv-x="953" 
d="M70 351q0 213 96 309.5t310 96.5t310.5 -96.5t96.5 -309.5q0 -214 -96.5 -311t-310.5 -97q-213 0 -309.5 97t-96.5 311zM388 278h-49q0 -55 33 -80.5t104 -25.5q76 0 110.5 28t34.5 89t-33.5 89.5t-105.5 28.5q-62 0 -86 -21v95h201v45h-247v-195h46q0 33 70 33
q56 0 81 -17.5t25 -56.5q0 -38 -23 -56t-73 -18q-88 0 -88 62z" />
    <glyph glyph-name="uni278F" unicode="&#x278f;" horiz-adv-x="953" 
d="M70 351q0 213 96 309.5t310 96.5t310.5 -96.5t96.5 -309.5q0 -214 -96.5 -311t-310.5 -97q-213 0 -309.5 97t-96.5 311zM333 279q0 -56 34 -82t109 -26q76 0 110.5 26.5t34.5 84.5t-34 84.5t-106 26.5q-79 0 -100 -37v50q0 41 21.5 59.5t70.5 18.5q88 0 88 -53h48
q0 52 -32 75t-103 23q-75 0 -108 -29.5t-33 -94.5v-126zM477 217q-50 0 -73 15.5t-23 50.5t22.5 50.5t73.5 15.5q50 0 72.5 -15.5t22.5 -50.5t-22.5 -50.5t-72.5 -15.5z" />
    <glyph glyph-name="uni2790" unicode="&#x2790;" horiz-adv-x="953" 
d="M70 351q0 213 96 309.5t310 96.5t310.5 -96.5t96.5 -309.5q0 -214 -96.5 -311t-310.5 -97q-213 0 -309.5 97t-96.5 311zM345 480h222l-190 -305h55l190 305v45h-277v-45z" />
    <glyph glyph-name="uni2791" unicode="&#x2791;" horiz-adv-x="953" 
d="M70 351q0 213 96 309.5t310 96.5t310.5 -96.5t96.5 -309.5q0 -214 -96.5 -311t-310.5 -97q-213 0 -309.5 97t-96.5 311zM332 270q0 -52 34 -75.5t110 -23.5q77 0 111.5 23.5t34.5 75.5q0 66 -59 85q54 20 54 81q0 49 -33 71t-107 22t-107 -22t-33 -71q0 -60 53 -81
q-58 -19 -58 -85zM476 217q-96 0 -96 58q0 31 23 44.5t73 13.5q51 0 74 -13.5t23 -44.5q0 -30 -23 -44t-74 -14zM385 430q0 28 22 41t70 13t69.5 -13t21.5 -41t-21.5 -40.5t-69.5 -12.5t-70 12.5t-22 40.5z" />
    <glyph glyph-name="uni2792" unicode="&#x2792;" horiz-adv-x="953" 
d="M476 -57q-213 0 -309.5 97t-96.5 311q0 213 96 309.5t310 96.5t310.5 -96.5t96.5 -309.5q0 -214 -96.5 -311t-310.5 -97zM338 417q0 -59 33 -86t104 -27q80 0 98 41v-50q0 -41 -22.5 -59.5t-72.5 -18.5q-88 0 -88 52h-48q0 -52 32.5 -75t104.5 -23q75 0 108.5 29.5
t33.5 95.5v125q0 56 -34 82t-107 26q-75 0 -108.5 -26.5t-33.5 -85.5zM479 346q-49 0 -71.5 16.5t-22.5 52.5q0 35 22.5 51.5t71.5 16.5q93 0 93 -68q0 -36 -22.5 -52.5t-70.5 -16.5z" />
    <glyph glyph-name="uni27E8" unicode="&#x27e8;" horiz-adv-x="322" 
d="M217 -150l-161 468v14l161 468l56 -17l-157 -458l157 -458z" />
    <glyph glyph-name="uni27E9" unicode="&#x27e9;" horiz-adv-x="322" 
d="M266 332v-14l-161 -468l-55 17l157 458l-157 458l55 17z" />
    <glyph glyph-name="uni300C" unicode="&#x300c;" horiz-adv-x="387" 
d="M106 130v670h252v-55h-193v-615h-59z" />
    <glyph glyph-name="uni300D" unicode="&#x300d;" horiz-adv-x="387" 
d="M281 -150h-251v55h193v615h58v-670z" />
    <glyph glyph-name="uni3010" unicode="&#x3010;" horiz-adv-x="345" 
d="M315 -100h-219v900h219q-6 -5 -16.5 -15t-37 -48t-46.5 -85t-36.5 -128t-16.5 -174q0 -68 8.5 -129.5t22 -105.5t29.5 -81.5t32.5 -61.5t30 -41t21.5 -24z" />
    <glyph glyph-name="uni3011" unicode="&#x3011;" horiz-adv-x="345" 
d="M250 -100h-220q6 5 16.5 15t37 48t46.5 85t36.5 128t16.5 174q0 68 -8.5 129.5t-22 105.5t-29.5 81.5t-32.5 61.5t-30 41t-22.5 24l-8 7h220v-900z" />
    <glyph glyph-name="Adieresis.titl" horiz-adv-x="804" 
d="M28 0l333 700h82l333 -700h-74l-81 170h-439l-80 -170h-74zM402 631l-188 -396l376 1zM155 707q48 0 48 -48q0 -25 -11 -35.5t-37 -10.5q-25 0 -35.5 10.5t-10.5 35.5q0 48 46 48zM648 707q47 0 47 -48q0 -25 -11 -35.5t-36 -10.5t-36 10.5t-11 35.5t11 36.5t36 11.5z
" />
    <glyph glyph-name="A.ss01" horiz-adv-x="816" 
d="M83 0v350q0 184 83 267t267 83h284v-700h-69v187l-497 1v-188h-68zM151 253h497v382h-213q-149 0 -216.5 -68t-67.5 -217v-97z" />
    <glyph glyph-name="Aacute.ss01" horiz-adv-x="816" 
d="M83 0v350q0 184 83 267t267 83h284v-700h-69v187l-497 1v-188h-68zM151 253h497v382h-213q-149 0 -216.5 -68t-67.5 -217v-97zM411 804l172 127l38 -48l-185 -113z" />
    <glyph glyph-name="Abreve.ss01" horiz-adv-x="816" 
d="M433 700h284v-700h-69v187l-497 1v-188h-68v350q0 184 83 267t267 83zM151 253h497v382h-213q-149 0 -216.5 -68t-67.5 -217v-97zM309 917h55q0 -52 24.5 -75.5t77.5 -23.5q55 0 79 23.5t24 75.5h55q0 -76 -37.5 -111.5t-120.5 -35.5q-82 0 -119.5 35.5t-37.5 111.5z" />
    <glyph glyph-name="Acircumflex.ss01" horiz-adv-x="816" 
d="M151 0h-68v350q0 184 83 267t267 83h284v-700h-69v187l-497 1v-188zM151 253h497v382h-213q-149 0 -216.5 -68t-67.5 -217v-97zM294 794l172 124l173 -124l-26 -34l-147 94l-146 -94z" />
    <glyph glyph-name="Agrave.ss01" horiz-adv-x="816" 
d="M83 0v350q0 184 83 267t267 83h284v-700h-69v187l-497 1v-188h-68zM151 253h497v382h-213q-149 0 -216.5 -68t-67.5 -217v-97zM496 770l-185 113l38 48l173 -127z" />
    <glyph glyph-name="Adieresis.ss01" horiz-adv-x="816" 
d="M83 0v350q0 184 83 267t267 83h284v-700h-69v187l-497 1v-188h-68zM151 253h497v382h-213q-149 0 -216.5 -68t-67.5 -217v-97zM366 864q49 0 49 -48q0 -25 -11.5 -35.5t-37.5 -10.5q-25 0 -35.5 10.5t-10.5 35.5q0 48 46 48zM565 864q48 0 48 -48q0 -46 -48 -46
q-25 0 -36 10.5t-11 35.5q0 48 47 48z" />
    <glyph glyph-name="Amacron.ss01" horiz-adv-x="816" 
d="M83 0v350q0 184 83 267t267 83h284v-700h-69v187l-497 1v-188h-68zM151 253h497v382h-213q-149 0 -216.5 -68t-67.5 -217v-97zM617 780h-301v55h301v-55z" />
    <glyph glyph-name="Aogonek.ss01" horiz-adv-x="816" 
d="M433 700h284v-700h-10l-13.5 -13.5t-22 -34t-13.5 -49.5q0 -44 38 -44q15 0 30 6.5t22 13.5l7 7l16 -29l-11 -11t-30.5 -18t-49.5 -11q-68 0 -68 70q0 32 13 60t26 41l13 12h-16v187l-497 1v-188h-68v350q0 184 83 267t267 83zM151 253h497v382h-213q-149 0 -216.5 -68
t-67.5 -217v-97z" />
    <glyph glyph-name="Aring.ss01" horiz-adv-x="816" 
d="M83 0v350q0 184 83 267t267 83h284v-700h-69v187l-497 1v-188h-68zM151 253h497v382h-213q-149 0 -216.5 -68t-67.5 -217v-97zM466 974q53 0 78 -24.5t25 -77.5t-25 -77.5t-78 -24.5t-77.5 24.5t-24.5 77.5t24.5 77.5t77.5 24.5zM466 814q58 0 58 58t-58 58t-58 -58
t58 -58z" />
    <glyph glyph-name="Aringacute.ss01" horiz-adv-x="816" 
d="M433 700h284v-700h-69v187l-497 1v-188h-68v350q0 184 83 267t267 83zM151 253h497v382h-213q-149 0 -216.5 -68t-67.5 -217v-97zM466 934q48 0 74 -21l146 108l38 -48l-161 -99q6 -18 6 -42q0 -53 -25 -77.5t-78 -24.5t-77.5 24.5t-24.5 77.5t24.5 77.5t77.5 24.5z
M466 774q58 0 58 58t-58 58t-58 -58t58 -58z" />
    <glyph glyph-name="Atilde.ss01" horiz-adv-x="816" 
d="M83 0v350q0 184 83 267t267 83h284v-700h-69v187l-497 1v-188h-68zM151 253h497v382h-213q-149 0 -216.5 -68t-67.5 -217v-97zM355 780h-46q0 104 81 104q37 0 82 -30t65 -30q39 0 39 55h47q0 -104 -79 -104q-37 0 -82.5 30t-65.5 30q-41 0 -41 -55z" />
    <glyph glyph-name="A.ss02" horiz-adv-x="816" 
d="M168 0h-69v700h284q184 0 267 -83t83 -267v-350h-68v188l-497 -1v-187zM381 635h-213v-382h497v97q0 149 -67.5 217t-216.5 68z" />
    <glyph glyph-name="Aacute.ss02" horiz-adv-x="816" 
d="M99 0v700h284q184 0 267 -83t83 -267v-350h-68v188l-497 -1v-187h-69zM381 635h-213v-382h497v97q0 149 -67.5 217t-216.5 68zM304 770l-26 34l173 127l38 -48z" />
    <glyph glyph-name="Abreve.ss02" horiz-adv-x="816" 
d="M99 0v700h284q184 0 267 -83t83 -267v-350h-68v188l-497 -1v-187h-69zM381 635h-213v-382h497v97q0 149 -67.5 217t-216.5 68zM176 917h55q0 -52 24.5 -75.5t78.5 -23.5t78 23.5t24 75.5h55q0 -76 -37.5 -111.5t-119.5 -35.5t-120 36t-38 111z" />
    <glyph glyph-name="Acircumflex.ss02" horiz-adv-x="816" 
d="M99 0v700h284q184 0 267 -83t83 -267v-350h-68v188l-497 -1v-187h-69zM381 635h-213v-382h497v97q0 149 -67.5 217t-216.5 68zM161 794l173 124l172 -124l-26 -34l-146 94l-147 -94z" />
    <glyph glyph-name="Agrave.ss02" horiz-adv-x="816" 
d="M99 0v700h284q184 0 267 -83t83 -267v-350h-68v188l-497 -1v-187h-69zM381 635h-213v-382h497v97q0 149 -67.5 217t-216.5 68zM179 883l38 48l172 -127l-25 -34z" />
    <glyph glyph-name="Adieresis.ss02" horiz-adv-x="816" 
d="M99 0v700h284q184 0 267 -83t83 -267v-350h-68v188l-497 -1v-187h-69zM381 635h-213v-382h497v97q0 149 -67.5 217t-216.5 68zM187 816q0 25 11 36.5t36 11.5q48 0 48 -48q0 -46 -48 -46q-25 0 -36 10.5t-11 35.5zM433 864q47 0 47 -48q0 -25 -11 -35.5t-36 -10.5
t-36 10.5t-11 35.5t11 36.5t36 11.5z" />
    <glyph glyph-name="Amacron.ss02" horiz-adv-x="816" 
d="M168 0h-69v700h284q184 0 267 -83t83 -267v-350h-68v188l-497 -1v-187zM381 635h-213v-382h497v97q0 149 -67.5 217t-216.5 68zM183 835h302v-55h-302v55z" />
    <glyph glyph-name="Aogonek.ss02" horiz-adv-x="816" 
d="M99 0v700h284q184 0 267 -83t83 -267v-350h-11q-5 -5 -13 -13.5t-21.5 -34t-13.5 -49.5q0 -44 38 -44q15 0 29.5 6.5t21.5 13.5l7 7l16 -29q-4 -4 -10.5 -11t-30.5 -18t-50 -11q-67 0 -67 70q0 32 13 60t26 41l13 12h-15v188l-497 -1v-187h-69zM381 635h-213v-382h497v97
q0 149 -67.5 217t-216.5 68z" />
    <glyph glyph-name="Aring.ss02" horiz-adv-x="816" 
d="M99 0v700h284q184 0 267 -83t83 -267v-350h-68v188l-497 -1v-187h-69zM381 635h-213v-382h497v97q0 149 -67.5 217t-216.5 68zM334 974q53 0 77.5 -24.5t24.5 -77.5t-24.5 -77.5t-77.5 -24.5t-77.5 24.5t-24.5 77.5t24.5 77.5t77.5 24.5zM334 814q58 0 58 58t-58 58
q-59 0 -59 -58t59 -58z" />
    <glyph glyph-name="Aringacute.ss02" horiz-adv-x="816" 
d="M168 0h-69v700h284q184 0 267 -83t83 -267v-350h-68v188l-497 -1v-187zM381 635h-213v-382h497v97q0 149 -67.5 217t-216.5 68zM232 825q0 53 24.5 78t77.5 25q49 0 75 -23l148 110l38 -49l-164 -100q5 -20 5 -41q0 -53 -25 -77.5t-77 -24.5q-53 0 -77.5 24.5t-24.5 77.5
zM275 825q0 -58 59 -58q58 0 58 58t-58 58q-59 0 -59 -58z" />
    <glyph glyph-name="Atilde.ss02" horiz-adv-x="816" 
d="M99 0v700h284q184 0 267 -83t83 -267v-350h-68v188l-497 -1v-187h-69zM381 635h-213v-382h497v97q0 149 -67.5 217t-216.5 68zM223 780h-47q0 104 82 104q36 0 81.5 -30t65.5 -30q39 0 39 55h47q0 -104 -79 -104q-38 0 -83.5 30t-65.5 30q-40 0 -40 -55z" />
    <glyph glyph-name="AE.ss01" horiz-adv-x="1263" 
d="M83 0v350q0 184 83 267t267 83h756v-65h-472v-254h422v-62h-422v-254h472v-65h-541v164h-497v-164h-68zM151 230l497 -1v406h-213q-149 0 -216.5 -68t-67.5 -217v-120z" />
    <glyph glyph-name="AEacute.ss01" horiz-adv-x="1263" 
d="M433 700h756v-65h-472v-254h422v-62h-422v-254h472v-65h-541v164h-497v-164h-68v350q0 184 83 267t267 83zM151 230l497 -1v406h-213q-149 0 -216.5 -68t-67.5 -217v-120zM623 804l173 127l38 -48l-185 -113z" />
    <glyph glyph-name="Jacute" horiz-adv-x="684" 
d="M322 -7q-146 0 -212.5 49.5t-66.5 156.5v57h69v-56q0 -73 50.5 -107t159.5 -34q108 0 158 45t50 142v454h69v-460q0 -129 -66 -188t-211 -59zM535 770l-26 34l172 127l38 -48z" />
    <glyph glyph-name="Q.ss04" horiz-adv-x="846" 
d="M423 707q187 0 272 -85t85 -272q0 -170 -70 -255l106 -95l-47 -47l-109 97q-82 -57 -237 -57q-187 0 -272 85t-85 272q0 188 85 272.5t272 84.5zM423 59q116 0 183 40l-179 160l48 48l181 -163q55 70 55 206q0 153 -68.5 222t-219.5 69t-219.5 -69t-68.5 -222t68.5 -222
t219.5 -69z" />
    <glyph glyph-name="R.ss03" horiz-adv-x="756" 
d="M99 0v700h355q122 0 177.5 -49.5t55.5 -159.5q0 -88 -35.5 -137t-111.5 -64l160 -290h-76l-156 282h-14h-286v-282h-69zM450 635h-282v-287h282q89 0 129 34t40 109q0 76 -40 110t-129 34z" />
    <glyph glyph-name="Racute.ss03" horiz-adv-x="756" 
d="M99 0v700h355q122 0 177.5 -49.5t55.5 -159.5q0 -88 -35.5 -137t-111.5 -64l160 -290h-76l-156 282h-14h-286v-282h-69zM450 635h-282v-287h282q89 0 129 34t40 109q0 76 -40 110t-129 34zM317 770l-26 34l173 127l38 -48z" />
    <glyph glyph-name="Rcaron.ss03" horiz-adv-x="756" 
d="M99 0v700h355q122 0 177.5 -49.5t55.5 -159.5q0 -88 -35.5 -137t-111.5 -64l160 -290h-76l-156 282h-14h-286v-282h-69zM450 635h-282v-287h282q89 0 129 34t40 109q0 76 -40 110t-129 34zM175 884l25 34l147 -95l147 95l25 -34l-172 -124z" />
    <glyph glyph-name="Rcommaaccent.ss03" horiz-adv-x="756" 
d="M99 0v700h355q122 0 177.5 -49.5t55.5 -159.5q0 -88 -35.5 -137t-111.5 -64l160 -290h-76l-156 282h-14h-286v-282h-69zM450 635h-282v-287h282q89 0 129 34t40 109q0 76 -40 110t-129 34zM351 -295v27q34 0 50 27t16 85v4q-28 0 -39.5 8t-11.5 35q0 42 42 42
q44 0 44 -42v-42q0 -75 -24 -109.5t-77 -34.5z" />
    <glyph glyph-name="Udieresis.titl" horiz-adv-x="823" 
d="M84 700h69v-394q0 -130 61.5 -188.5t196.5 -58.5q136 0 197 58.5t61 188.5v394h69v-400q0 -161 -77.5 -234t-249.5 -73q-171 0 -249 73t-78 234v400zM411 372q-23 0 -33.5 10.5t-10.5 33.5q0 45 44 45q45 0 45 -45q0 -44 -45 -44zM412 619q-24 0 -34.5 10t-10.5 34
q0 23 10.5 33.5t34.5 10.5q44 0 44 -44q0 -24 -10.5 -34t-33.5 -10z" />
    <glyph glyph-name="a.ss05" 
d="M56 260q0 140 58.5 203.5t187.5 63.5q160 0 212 -100v93h66v-520h-66v93q-52 -100 -212 -100q-129 0 -187.5 63.5t-58.5 203.5zM317 55q103 0 149 49t46 156q0 108 -46 156.5t-149 48.5t-149.5 -48.5t-46.5 -156.5q0 -107 46.5 -156t149.5 -49z" />
    <glyph glyph-name="aacute.ss05" 
d="M302 527q160 0 212 -100v93h66v-520h-66v93q-52 -100 -212 -100q-129 0 -187.5 63.5t-58.5 203.5t58.5 203.5t187.5 63.5zM121 260q0 -107 46.5 -156t149.5 -49t149 49t46 156q0 108 -46 156.5t-149 48.5t-149.5 -48.5t-46.5 -156.5zM285 606l-26 34l173 128l38 -49z" />
    <glyph glyph-name="abreve.ss05" 
d="M302 527q160 0 212 -100v93h66v-520h-66v93q-52 -100 -212 -100q-129 0 -187.5 63.5t-58.5 203.5t58.5 203.5t187.5 63.5zM317 55q103 0 149 49t46 156q0 108 -46 156.5t-149 48.5t-149.5 -48.5t-46.5 -156.5q0 -107 46.5 -156t149.5 -49zM157 753h55q0 -52 24.5 -75.5
t78.5 -23.5t78 23.5t24 75.5h55q0 -76 -37.5 -111.5t-119.5 -35.5t-120 36t-38 111z" />
    <glyph glyph-name="acircumflex.ss05" 
d="M302 527q160 0 212 -100v93h66v-520h-66v93q-52 -100 -212 -100q-129 0 -187.5 63.5t-58.5 203.5t58.5 203.5t187.5 63.5zM121 260q0 -107 46.5 -156t149.5 -49t149 49t46 156q0 108 -46 156.5t-149 48.5t-149.5 -48.5t-46.5 -156.5zM142 630l173 124l172 -124l-26 -34
l-146 95l-147 -95z" />
    <glyph glyph-name="agrave.ss05" 
d="M302 527q160 0 212 -100v93h66v-520h-66v93q-52 -100 -212 -100q-129 0 -187.5 63.5t-58.5 203.5t58.5 203.5t187.5 63.5zM121 260q0 -107 46.5 -156t149.5 -49t149 49t46 156q0 108 -46 156.5t-149 48.5t-149.5 -48.5t-46.5 -156.5zM160 719l38 49l172 -128l-25 -34z
" />
    <glyph glyph-name="adieresis.ss05" 
d="M56 260q0 140 58.5 203.5t187.5 63.5q160 0 212 -100v93h66v-520h-66v93q-52 -100 -212 -100q-129 0 -187.5 63.5t-58.5 203.5zM121 260q0 -107 46.5 -156t149.5 -49t149 49t46 156q0 108 -46 156.5t-149 48.5t-149.5 -48.5t-46.5 -156.5zM168 653q0 25 11 36t36 11
q48 0 48 -47q0 -25 -11.5 -36t-36.5 -11t-36 11t-11 36zM367 653q0 25 11 36t36 11t36 -11t11 -36t-11 -36t-36 -11q-26 0 -36.5 11t-10.5 36z" />
    <glyph glyph-name="amacron.ss05" 
d="M56 260q0 140 58.5 203.5t187.5 63.5q160 0 212 -100v93h66v-520h-66v93q-52 -100 -212 -100q-129 0 -187.5 63.5t-58.5 203.5zM317 55q103 0 149 49t46 156q0 108 -46 156.5t-149 48.5t-149.5 -48.5t-46.5 -156.5q0 -107 46.5 -156t149.5 -49zM466 616h-302v55h302v-55z
" />
    <glyph glyph-name="aogonek.ss05" 
d="M56 260q0 140 58.5 203.5t187.5 63.5q160 0 212 -100v93h66v-520h-8l-13.5 -13.5t-22 -34t-13.5 -49.5q0 -44 38 -44q16 0 30.5 6.5t21.5 13.5l7 7l16 -29l-11 -11t-30.5 -18t-49.5 -11q-67 0 -67 70q0 32 13 60t25 41l13 12h-15v93q-52 -100 -212 -100
q-129 0 -187.5 63.5t-58.5 203.5zM317 55q103 0 149 49t46 156q0 108 -46 156.5t-149 48.5t-149.5 -48.5t-46.5 -156.5q0 -107 46.5 -156t149.5 -49z" />
    <glyph glyph-name="aring.ss05" 
d="M302 527q160 0 212 -100v93h66v-520h-66v93q-52 -100 -212 -100q-129 0 -187.5 63.5t-58.5 203.5t58.5 203.5t187.5 63.5zM121 260q0 -107 46.5 -156t149.5 -49t149 49t46 156q0 108 -46 156.5t-149 48.5t-149.5 -48.5t-46.5 -156.5zM315 811q53 0 77.5 -25t24.5 -78
t-24.5 -77.5t-77.5 -24.5t-77.5 24.5t-24.5 77.5t24.5 78t77.5 25zM315 650q58 0 58 58t-58 58q-59 0 -59 -58t59 -58z" />
    <glyph glyph-name="aringacute.ss05" 
d="M56 260q0 140 58.5 203.5t187.5 63.5q160 0 212 -100v93h66v-520h-66v93q-52 -100 -212 -100q-129 0 -187.5 63.5t-58.5 203.5zM121 260q0 -107 46.5 -156t149.5 -49t149 49t46 156q0 108 -46 156.5t-149 48.5t-149.5 -48.5t-46.5 -156.5zM213 678q0 53 24.5 78t77.5 25
q50 0 76 -23l143 106l38 -49l-159 -97q4 -16 4 -40q0 -53 -24.5 -77.5t-77.5 -24.5t-77.5 24.5t-24.5 77.5zM256 678q0 -58 59 -58q58 0 58 58t-58 58q-59 0 -59 -58z" />
    <glyph glyph-name="atilde.ss05" 
d="M302 527q160 0 212 -100v93h66v-520h-66v93q-52 -100 -212 -100q-129 0 -187.5 63.5t-58.5 203.5t58.5 203.5t187.5 63.5zM121 260q0 -107 46.5 -156t149.5 -49t149 49t46 156q0 108 -46 156.5t-149 48.5t-149.5 -48.5t-46.5 -156.5zM239 721q36 0 81.5 -30.5t65.5 -30.5
q39 0 39 56h47q0 -105 -79 -105q-38 0 -83.5 30t-65.5 30q-40 0 -40 -55h-47q0 105 82 105z" />
    <glyph glyph-name="jacute" horiz-adv-x="239" 
d="M-46 -250v62h32q54 0 78.5 26t24.5 84v598h66v-597q0 -91 -39.5 -132t-126.5 -41h-35zM92 606l-26 34l173 128l38 -49z" />
    <glyph glyph-name="u.ss06" horiz-adv-x="665" 
d="M86 234v286h65v-283q0 -95 43.5 -138.5t138.5 -43.5t138 43.5t43 138.5v283h66v-286q0 -127 -58.5 -184t-188.5 -57t-188.5 57t-58.5 184z" />
    <glyph glyph-name="uacute.ss06" horiz-adv-x="665" 
d="M333 -7q-130 0 -188.5 57t-58.5 184v286h65v-283q0 -95 43.5 -138.5t138.5 -43.5t138 43.5t43 138.5v283h66v-286q0 -127 -58.5 -184t-188.5 -57zM303 606l-26 34l173 128l38 -49z" />
    <glyph glyph-name="ubreve.ss06" horiz-adv-x="665" 
d="M333 -7q-130 0 -188.5 57t-58.5 184v286h65v-283q0 -95 43.5 -138.5t138.5 -43.5t138 43.5t43 138.5v283h66v-286q0 -127 -58.5 -184t-188.5 -57zM176 753h54q0 -52 24.5 -75.5t78.5 -23.5t78.5 23.5t24.5 75.5h54q0 -76 -37.5 -111.5t-119.5 -35.5t-119.5 35.5
t-37.5 111.5z" />
    <glyph glyph-name="ucircumflex.ss06" horiz-adv-x="665" 
d="M333 -7q-130 0 -188.5 57t-58.5 184v286h65v-283q0 -95 43.5 -138.5t138.5 -43.5t138 43.5t43 138.5v283h66v-286q0 -127 -58.5 -184t-188.5 -57zM161 630l172 124l172 -124l-25 -34l-147 95l-147 -95z" />
    <glyph glyph-name="udieresis.ss06" horiz-adv-x="665" 
d="M86 234v286h65v-283q0 -95 43.5 -138.5t138.5 -43.5t138 43.5t43 138.5v283h66v-286q0 -127 -58.5 -184t-188.5 -57t-188.5 57t-58.5 184zM186 653q0 25 11 36t36 11q48 0 48 -47q0 -25 -11.5 -36t-36.5 -11t-36 11t-11 36zM432 606q-26 0 -36.5 11t-10.5 36t11 36t36 11
q48 0 48 -47q0 -25 -11.5 -36t-36.5 -11z" />
    <glyph glyph-name="ugrave.ss06" horiz-adv-x="665" 
d="M86 234v286h65v-283q0 -95 43.5 -138.5t138.5 -43.5t138 43.5t43 138.5v283h66v-286q0 -127 -58.5 -184t-188.5 -57t-188.5 57t-58.5 184zM178 719l38 49l173 -128l-26 -34z" />
    <glyph glyph-name="uhungarumlaut.ss06" horiz-adv-x="665" 
d="M86 234v286h65v-283q0 -95 43.5 -138.5t138.5 -43.5t138 43.5t43 138.5v283h66v-286q0 -127 -58.5 -184t-188.5 -57t-188.5 57t-58.5 184zM232 596l-37 21l109 173l54 -30zM417 596l-37 21l109 173l54 -30z" />
    <glyph glyph-name="umacron.ss06" horiz-adv-x="665" 
d="M333 -7q-130 0 -188.5 57t-58.5 184v286h65v-283q0 -95 43.5 -138.5t138.5 -43.5t138 43.5t43 138.5v283h66v-286q0 -127 -58.5 -184t-188.5 -57zM484 616h-302v55h302v-55z" />
    <glyph glyph-name="uogonek.ss06" horiz-adv-x="665" 
d="M340 -7q-133 0 -193.5 55t-60.5 186v286h65v-283q0 -95 43.5 -138.5t138.5 -43.5t138 43.5t43 138.5v283h66v-286q0 -113 -47 -170t-148 -68q-44 -44 -44 -93q0 -44 38 -44q15 0 29.5 6.5t21.5 13.5l7 7l16 -29q-4 -4 -10.5 -11t-30.5 -18t-50 -11q-67 0 -67 70
q0 64 45 106z" />
    <glyph glyph-name="uring.ss06" horiz-adv-x="665" 
d="M86 234v286h65v-283q0 -95 43.5 -138.5t138.5 -43.5t138 43.5t43 138.5v283h66v-286q0 -127 -58.5 -184t-188.5 -57t-188.5 57t-58.5 184zM333 606q-53 0 -77.5 24.5t-24.5 77.5t24.5 78t77.5 25t77.5 -25t24.5 -78t-24.5 -77.5t-77.5 -24.5zM275 708q0 -58 58 -58t58 58
t-58 58t-58 -58z" />
    <glyph glyph-name="utilde.ss06" horiz-adv-x="665" 
d="M333 -7q-130 0 -188.5 57t-58.5 184v286h65v-283q0 -95 43.5 -138.5t138.5 -43.5t138 43.5t43 138.5v283h66v-286q0 -127 -58.5 -184t-188.5 -57zM222 616h-47q0 105 82 105q37 0 82 -30.5t65 -30.5q39 0 39 56h47q0 -105 -79 -105q-38 0 -83 30t-66 30q-40 0 -40 -55z
" />
    <glyph glyph-name="y.ss07" horiz-adv-x="665" 
d="M326 -257q-110 0 -167.5 41t-72.5 130h65q15 -56 56.5 -82.5t116.5 -26.5q98 0 142 46.5t44 150.5v96q-47 -105 -202 -105q-114 0 -166.5 53.5t-52.5 170.5v303h65v-303q0 -85 41 -123.5t129 -38.5q99 0 142.5 48.5t43.5 156.5v260h66v-519q0 -136 -59.5 -197t-190.5 -61
z" />
    <glyph glyph-name="yacute.ss07" horiz-adv-x="665" 
d="M86 -86h65q15 -56 56.5 -82.5t116.5 -26.5q98 0 142 46.5t44 150.5v96q-47 -105 -202 -105q-114 0 -166.5 53.5t-52.5 170.5v303h65v-303q0 -85 41 -123.5t129 -38.5q99 0 142.5 48.5t43.5 156.5v260h66v-519q0 -136 -59.5 -197t-190.5 -61q-110 0 -167.5 41t-72.5 130z
M301 606l-25 34l172 128l38 -49z" />
    <glyph glyph-name="ycircumflex.ss07" horiz-adv-x="665" 
d="M326 -257q-110 0 -167.5 41t-72.5 130h65q15 -56 56.5 -82.5t116.5 -26.5q98 0 142 46.5t44 150.5v96q-47 -105 -202 -105q-114 0 -166.5 53.5t-52.5 170.5v303h65v-303q0 -85 41 -123.5t129 -38.5q99 0 142.5 48.5t43.5 156.5v260h66v-519q0 -136 -59.5 -197t-190.5 -61
zM185 596l-26 34l172 124l173 -124l-26 -34l-147 95z" />
    <glyph glyph-name="ydieresis.ss07" horiz-adv-x="665" 
d="M326 -257q-110 0 -167.5 41t-72.5 130h65q15 -56 56.5 -82.5t116.5 -26.5q98 0 142 46.5t44 150.5v96q-47 -105 -202 -105q-114 0 -166.5 53.5t-52.5 170.5v303h65v-303q0 -85 41 -123.5t129 -38.5q99 0 142.5 48.5t43.5 156.5v260h66v-519q0 -136 -59.5 -197t-190.5 -61
zM185 653q0 25 10.5 36t35.5 11t36.5 -11t11.5 -36t-11 -36t-37 -11q-25 0 -35.5 11t-10.5 36zM383 653q0 25 11 36t36 11q48 0 48 -47q0 -25 -11.5 -36t-36.5 -11q-26 0 -36.5 11t-10.5 36z" />
    <glyph glyph-name="ygrave.ss07" horiz-adv-x="665" 
d="M86 -86h65q15 -56 56.5 -82.5t116.5 -26.5q98 0 142 46.5t44 150.5v96q-47 -105 -202 -105q-114 0 -166.5 53.5t-52.5 170.5v303h65v-303q0 -85 41 -123.5t129 -38.5q99 0 142.5 48.5t43.5 156.5v260h66v-519q0 -136 -59.5 -197t-190.5 -61q-110 0 -167.5 41t-72.5 130z
M361 606l-185 113l38 49l173 -128z" />
    <glyph glyph-name="Alphatonos.ss01" horiz-adv-x="816" 
d="M151 0h-68v350q0 184 83 267t267 83h284v-700h-69v187l-497 1v-188zM151 253h497v382h-213q-149 0 -216.5 -68t-67.5 -217v-97zM-39 478l-39 13l85 216l58 -19z" />
    <glyph glyph-name="Alphatonos.ss02" horiz-adv-x="816" 
d="M99 0v700h284q184 0 267 -83t83 -267v-350h-68v188l-497 -1v-187h-69zM381 635h-213v-382h497v97q0 149 -67.5 217t-216.5 68zM-66 478l-39 13l84 216l59 -19z" />
    </font>
</defs>
</svg>
